<svg width="1920" height="223" viewBox="0 0 1920 223" fill="none" xmlns="http://www.w3.org/2000/svg">
<path d="M1613.58 197.756C1590.81 197.756 1568.11 191.414 1553.64 172.817L1572.21 157.142C1583.13 169.076 1597.72 175.003 1613.82 175.003C1624.22 175.003 1639.77 172.347 1639.77 159.1C1639.77 149.458 1630.28 147.364 1622.39 146.132C1610.44 144.262 1598.3 142.905 1586.65 139.527C1571.3 134.411 1560.95 122.857 1560.95 106.497C1560.95 75.9734 1590.33 65.6382 1616.52 65.6382C1635.66 65.6382 1653.95 69.1002 1669.13 87.824L1650.38 103.316C1640.95 93.0288 1629.23 88.3919 1615.54 88.3919C1599.55 88.3919 1591.55 93.3667 1591.55 103.316C1591.55 123.065 1632.06 119.18 1644.67 123.379C1660.12 127.863 1670.61 139.767 1670.61 155.919C1670.61 186.926 1640.04 197.756 1613.58 197.756Z" fill="#1C1A17"/>
<path d="M1525.34 68.6982L1525.34 173.046L1547.33 173.046L1547.33 194.935L1494.31 194.935L1494.31 173.046L1492.63 173.046C1486.32 188.679 1472.89 197.871 1456.08 197.871C1443.72 197.871 1433.72 193.712 1426.08 185.394C1418.27 177.239 1414.37 165.496 1414.37 150.165L1414.37 68.6982L1445.59 68.6982L1445.59 145.762C1445.59 164.028 1453.48 173.162 1469.25 173.162C1481.2 173.162 1494.31 166.483 1494.31 153.101L1494.31 68.6982L1525.34 68.6982Z" fill="#1C1A17"/>
<path d="M1326.01 172.862H1347.73V90.4155L1326.01 90.4155V68.5835H1379.08V172.862H1400.91V194.811L1326.01 194.811V172.862Z" fill="#1C1A17"/>
<path d="M1445.51 28.1907L1326.01 28.1907V50.0701L1445.51 50.0701V28.1907Z" fill="#1C1A17"/>
<path d="M1258.7 194.811C1237.92 194.811 1223.73 181.88 1223.73 160.624V90.4629H1200.63V68.5835H1212.08C1221.5 68.5835 1225.92 64.3989 1225.92 54.8879V28.1907L1254.82 28.1907V68.5835H1304.13V90.4629H1254.82V172.932H1304.13V194.811H1258.7Z" fill="#1C1A17"/>
<path d="M1137.72 197.871C1111.94 197.871 1089.18 184.199 1080.22 159.214C1074.41 142.04 1074.41 121.583 1080.22 104.409C1089.05 79.7992 1111.37 65.7527 1137.48 65.7527C1159.54 65.7527 1180.42 74.8091 1189.9 95.3018L1166.96 109.187C1162.55 97.8263 1149.78 91.1977 1137.48 91.1977C1113.41 91.1977 1107.21 112.132 1107.21 131.277C1107.21 150.52 1115.35 172.426 1137.97 172.426C1151.16 172.426 1161.04 165.32 1166.72 153.587L1190.11 167.533C1180.32 188.311 1159.95 197.871 1137.72 197.871Z" fill="#1C1A17"/>
<path d="M705.428 179.308C687.778 160.105 685.268 128.298 693.47 104.302C705.205 71.8785 742.441 57.2034 774.246 70.5609C788.859 76.3749 799.551 88.4859 804.75 103.088C808.907 114.762 808.899 126.823 808.899 139.013H720.558C720.558 157.442 730.882 172.63 750.584 173.094C764.384 173.418 779.263 166.233 787.18 155.277L804.995 172.997C800.439 179.632 793.769 185.296 784.984 189.989C760.884 203.105 724.713 199.653 705.428 179.308ZM720.558 120.565H777.663C777.663 103.704 769.103 88.7271 750.584 88.6202C731.836 88.512 720.558 102.99 720.558 120.565Z" fill="#1C1A17"/>
<path d="M632.613 194.811C611.835 194.811 597.643 181.88 597.643 160.624V90.4629H574.537V68.5835H585.986C595.41 68.5835 599.829 64.3989 599.829 54.8879V28.1907L628.728 28.1907V68.5835H678.043V90.4629H628.728V172.932H678.043V194.811H632.613Z" fill="#1C1A17"/>
<path d="M450.1 194.811V90.4629H428.113V68.5739H481.128V90.4629H482.811C489.119 74.8298 502.548 65.6382 519.366 65.6382C531.723 65.6382 541.723 69.7972 549.365 78.1151C557.17 86.27 561.072 98.013 561.072 113.344V194.811H529.853V117.748C529.853 99.4808 521.967 90.3474 506.196 90.3474C494.241 90.3474 481.128 97.026 481.128 110.408V194.811H450.1Z" fill="#1C1A17"/>
<path d="M353.218 172.862H374.937V90.4155L353.218 90.4155V68.5835H406.284V172.862H428.113V194.811L353.218 194.811V172.862Z" fill="#1C1A17"/>
<path d="M406.233 28.1907L353.218 28.1907V50.0701H406.233V28.1907Z" fill="#1C1A17"/>
<path d="M1054.47 194.835C1035.31 194.835 1026.62 187.061 1024.87 173.147H1023.07C1017.82 190.179 1003.48 197.756 986.681 197.756C963.677 197.756 945.225 183.976 945.225 160.016C945.225 134.694 963.839 122.033 1001.07 122.033H1023.07C1023.07 113.053 1024.15 102.754 1017.41 95.7368C1003.15 80.9071 976.562 92.1174 966.684 106.207L948.948 90.8665C958.989 72.9052 981.545 65.6866 1001.07 65.6384C1030.12 65.5667 1054.2 81.6689 1054.2 112.294V172.938H1076.08V194.835H1054.47ZM997.167 176.33C1009.06 176.33 1023.07 170.615 1023.07 156.851V140.051H1001.8C984.73 140.051 976.195 145.407 976.195 156.121C976.195 169.193 983.291 176.33 997.167 176.33Z" fill="#1C1A17"/>
<path d="M825.309 172.932H847.188V90.4155H825.309L825.309 68.5835L878.324 68.5835V90.4629H880.007C886.189 76.1572 901.222 68.5835 922.707 68.5835H936.389V95.4142C936.389 95.4142 928.218 95.4142 910.491 95.4142C892.764 95.4142 878.324 106.583 878.324 124.933V172.851L900.204 172.932V194.811L825.309 194.811L825.309 172.932Z" fill="#1C1A17"/>
<path opacity="0.4" d="M428.113 12.0103V222.583" stroke="#1C1A17" stroke-width="0.210379"/>
<path opacity="0.1" d="M375.097 12.0103V222.583" stroke="#1C1A17" stroke-width="0.210379"/>
<path opacity="0.4" d="M406.233 12.0103V222.583" stroke="#1C1A17" stroke-width="0.210379"/>
<path opacity="0.4" d="M353.218 12.0103V222.583" stroke="#1C1A17" stroke-width="0.210379"/>
<path opacity="0.1" d="M449.992 12.0103V222.583" stroke="#1C1A17" stroke-width="0.210379"/>
<path opacity="0.1" d="M529.936 12.0103V222.583" stroke="#1C1A17" stroke-width="0.210379"/>
<path opacity="0.1" d="M597.674 12.0103V222.583" stroke="#1C1A17" stroke-width="0.210379"/>
<path opacity="0.1" d="M847.184 12.0103V222.583" stroke="#1C1A17" stroke-width="0.210379"/>
<path opacity="0.1" d="M1024.74 12.0103V223" stroke="#1C1A17" stroke-width="0.210379"/>
<path opacity="0.1" d="M1023.06 12.0103V223" stroke="#1C1A17" stroke-width="0.210379"/>
<path opacity="0.1" d="M481.128 12.0103V222.583" stroke="#1C1A17" stroke-width="0.210379"/>
<path opacity="0.1" d="M482.811 12.0103V222.583" stroke="#1C1A17" stroke-width="0.210379"/>
<path opacity="0.4" d="M561.072 12.0103V222.583" stroke="#1C1A17" stroke-width="0.210379"/>
<path opacity="0.1" d="M628.81 12.0103V222.583" stroke="#1C1A17" stroke-width="0.210379"/>
<path opacity="0.1" d="M878.32 12.0103V222.583" stroke="#1C1A17" stroke-width="0.210379"/>
<path opacity="0.1" d="M1054.2 12.0103V223" stroke="#1C1A17" stroke-width="0.210379"/>
<path opacity="0.1" d="M880.003 12.0103V222.583" stroke="#1C1A17" stroke-width="0.210379"/>
<path opacity="0.4" d="M574.532 12.0103V222.583" stroke="#1C1A17" stroke-width="0.210379"/>
<path opacity="0.4" d="M678.039 12.0103V222.583" stroke="#1C1A17" stroke-width="0.210379"/>
<path opacity="0.4" d="M699.918 12.0103V222.583" stroke="#1C1A17" stroke-width="0.210379"/>
<path opacity="0.4" d="M803.425 12.0103V222.583" stroke="#1C1A17" stroke-width="0.210379"/>
<path opacity="0.4" d="M825.305 12.0103V222.583" stroke="#1C1A17" stroke-width="0.210379"/>
<path opacity="0.4" d="M936.385 12.0103V222.583" stroke="#1C1A17" stroke-width="0.210379"/>
<path opacity="0.4" d="M949.853 12.0103V223" stroke="#1C1A17" stroke-width="0.210379"/>
<path opacity="0.4" d="M1076.08 12.0103V223" stroke="#1C1A17" stroke-width="0.210379"/>
<path opacity="0.4" d="M1187.16 12.0103V222.583" stroke="#1C1A17" stroke-width="0.210379"/>
<path opacity="0.1" d="M1166.96 12.0103V222.583" stroke="#1C1A17" stroke-width="0.210379"/>
<path opacity="0.1" d="M1190.1 12.0103V222.583" stroke="#1C1A17" stroke-width="0.210379"/>
<path opacity="0.1" d="M1223.35 12.0103V222.583" stroke="#1C1A17" stroke-width="0.210379"/>
<path opacity="0.1" d="M1254.49 12.0103V222.583" stroke="#1C1A17" stroke-width="0.210379"/>
<path opacity="0.4" d="M1200.63 12.0103V222.583" stroke="#1C1A17" stroke-width="0.210379"/>
<path opacity="0.4" d="M1304.14 12.0103V222.583" stroke="#1C1A17" stroke-width="0.210379"/>
<path opacity="0.4" d="M1326.02 12.0103V222.583" stroke="#1C1A17" stroke-width="0.210379"/>
<path opacity="0.2" d="M1379.03 12.0103V223" stroke="#1C1A17" stroke-width="0.210379"/>
<path opacity="0.2" d="M1347.9 12.0103V223" stroke="#1C1A17" stroke-width="0.210379"/>
<path opacity="0.4" d="M1400.91 12.0103V222.583" stroke="#1C1A17" stroke-width="0.210379"/>
<path opacity="0.4" d="M1414.37 12.0103V222.583" stroke="#1C1A17" stroke-width="0.210379"/>
<path opacity="0.1" d="M1418.58 12.0103V222.583" stroke="#1C1A17" stroke-width="0.210379"/>
<path opacity="0.1" d="M1445.51 12.0103V222.583" stroke="#1C1A17" stroke-width="0.210379"/>
<path opacity="0.1" d="M1494.32 12.0103V222.583" stroke="#1C1A17" stroke-width="0.210379"/>
<path opacity="0.1" d="M1525.46 12.0103V222.583" stroke="#1C1A17" stroke-width="0.210379"/>
<path opacity="0.4" d="M1547.33 12.0103V222.583" stroke="#1C1A17" stroke-width="0.210379"/>
<path opacity="0.4" d="M1560.8 12.0103V222.583" stroke="#1C1A17" stroke-width="0.210379"/>
<path opacity="0.4" d="M1670.2 12.0103V222.583" stroke="#1C1A17" stroke-width="0.210379"/>
<path opacity="0.4" d="M0 68.5835L1920 68.5836" stroke="#1C1A17" stroke-width="0.210379"/>
<path opacity="0.1" d="M0.39502 66L1920 65.9999" stroke="#1C1A17" stroke-width="0.210379"/>
<path opacity="0.4" d="M0 50.0703L1920 50.0704" stroke="#1C1A17" stroke-width="0.210379"/>
<path opacity="0.4" d="M0 28.1907L1920 28.1908" stroke="#1C1A17" stroke-width="0.210379"/>
<path opacity="0.2" d="M0 90.4631L1920 90.4633" stroke="#1C1A17" stroke-width="0.210379"/>
<path opacity="0.4" d="M0 172.932C749.807 172.932 1170.19 172.932 1920 172.932" stroke="#1C1A17" stroke-width="0.210379"/>
<path opacity="0.1" d="M0 131.277L1920 131.277" stroke="#1C1A17" stroke-width="0.210379"/>
<path opacity="0.4" d="M0 194.811L1920 194.811" stroke="#1C1A17" stroke-width="0.210379"/>
<path opacity="0.1" d="M0 197.757L1920 197.757" stroke="#1C1A17" stroke-width="0.210379"/>
<path opacity="0.5" d="M406.237 68.5835H428.117V90.4629H406.237V68.5835Z" fill="#FC9E00"/>
<path opacity="0.5" d="M428.113 172.932H449.992V194.811H428.113V172.932Z" fill="#FC9E00"/>
<path opacity="0.5" d="M561.072 68.5835H574.537V90.4629H561.072V68.5835Z" fill="#FC9E00"/>
<path opacity="0.5" d="M678.043 68.5835H699.923V90.4629H678.043V68.5835Z" fill="#FC9E00"/>
<path opacity="0.5" d="M803.429 68.5835H825.309V90.4629H803.429V68.5835Z" fill="#FC9E00"/>
<path opacity="0.5" d="M936.389 68.5835H949.853V90.4629H936.389V68.5835Z" fill="#FC9E00"/>
<path opacity="0.5" d="M1187.16 68.5835H1200.63V90.4629H1187.16V68.5835Z" fill="#FC9E00"/>
<path opacity="0.5" d="M1304.13 68.5835H1326.01V90.4629H1304.13V68.5835Z" fill="#FC9E00"/>
<path opacity="0.5" d="M1379.03 68.5835H1400.91V90.4629H1379.03V68.5835Z" fill="#FC9E00"/>
<path opacity="0.5" d="M1400.9 172.932H1414.37V194.811H1400.9V172.932Z" fill="#FC9E00"/>
<path opacity="0.5" d="M1547.33 172.932H1560.79V194.811H1547.33V172.932Z" fill="#FC9E00"/>
<path opacity="0.5" d="M1525.45 151.052H1547.33V172.932H1525.45V151.052Z" fill="#FC9E00"/>
<path opacity="0.2" d="M619.938 5V4.67726L621.15 3.35043C621.292 3.19504 621.409 3.05997 621.501 2.94522C621.593 2.82927 621.661 2.72049 621.706 2.61889C621.751 2.51609 621.774 2.40851 621.774 2.29615C621.774 2.16705 621.743 2.05529 621.681 1.96086C621.62 1.86642 621.536 1.79351 621.43 1.74211C621.323 1.69071 621.204 1.66501 621.071 1.66501C620.93 1.66501 620.807 1.6943 620.702 1.75287C620.598 1.81024 620.517 1.89093 620.459 1.99492C620.403 2.09892 620.375 2.22084 620.375 2.3607H619.952C619.952 2.14554 620.002 1.95667 620.101 1.79411C620.2 1.63154 620.335 1.50483 620.506 1.41399C620.678 1.32314 620.871 1.27772 621.085 1.27772C621.3 1.27772 621.491 1.32314 621.657 1.41399C621.823 1.50483 621.954 1.62736 622.048 1.78156C622.143 1.93575 622.19 2.10728 622.19 2.29615C622.19 2.43122 622.165 2.56331 622.116 2.6924C622.068 2.8203 621.985 2.96315 621.865 3.12093C621.747 3.27752 621.583 3.46877 621.372 3.69469L620.547 4.57685V4.60554H622.254V5H619.938ZM622.83 4.24694V3.88116L624.444 1.32792H624.709V1.89451H624.53L623.31 3.82379V3.85248H625.484V4.24694H622.83ZM624.558 5V4.13577V3.96544V1.32792H624.981V5H624.558ZM627.375 5.0502C627.224 5.04781 627.073 5.01913 626.923 4.96414C626.772 4.90915 626.635 4.81652 626.51 4.68622C626.386 4.55474 626.286 4.37723 626.211 4.1537C626.136 3.92898 626.098 3.64688 626.098 3.3074C626.098 2.98227 626.129 2.69419 626.189 2.44317C626.25 2.19096 626.339 1.97879 626.455 1.80666C626.571 1.63333 626.711 1.50185 626.874 1.4122C627.039 1.32255 627.225 1.27772 627.432 1.27772C627.638 1.27772 627.821 1.31896 627.981 1.40144C628.142 1.48272 628.274 1.59628 628.375 1.74211C628.477 1.88794 628.543 2.05589 628.572 2.24594H628.135C628.094 2.08099 628.015 1.94412 627.898 1.83535C627.781 1.72657 627.626 1.67218 627.432 1.67218C627.148 1.67218 626.923 1.7959 626.76 2.04333C626.597 2.29077 626.515 2.63801 626.514 3.08507H626.543C626.61 2.98347 626.689 2.8968 626.781 2.82508C626.874 2.75217 626.977 2.69599 627.09 2.65654C627.202 2.6171 627.321 2.59737 627.446 2.59737C627.657 2.59737 627.849 2.64997 628.024 2.75516C628.198 2.85915 628.338 3.00319 628.443 3.18727C628.548 3.37016 628.601 3.57994 628.601 3.81662C628.601 4.04373 628.55 4.25172 628.449 4.44058C628.347 4.62825 628.204 4.77767 628.02 4.88883C627.837 4.9988 627.622 5.05259 627.375 5.0502ZM627.375 4.65574C627.525 4.65574 627.66 4.61809 627.78 4.54278C627.901 4.46748 627.996 4.36647 628.065 4.23977C628.136 4.11306 628.171 3.97201 628.171 3.81662C628.171 3.66481 628.137 3.52675 628.069 3.40243C628.002 3.27692 627.909 3.17711 627.791 3.103C627.674 3.02889 627.54 2.99183 627.389 2.99183C627.275 2.99183 627.17 3.01455 627.072 3.05997C626.974 3.1042 626.888 3.16516 626.813 3.24285C626.741 3.32055 626.683 3.4096 626.641 3.51001C626.599 3.60923 626.579 3.71382 626.579 3.82379C626.579 3.96962 626.613 4.10589 626.681 4.23259C626.75 4.3593 626.845 4.4615 626.964 4.5392C627.085 4.61689 627.222 4.65574 627.375 4.65574Z" fill="#1C1A17"/>
<path opacity="0.2" d="M1256.97 5V4.67726L1258.18 3.35043C1258.32 3.19504 1258.44 3.05997 1258.53 2.94522C1258.63 2.82927 1258.69 2.72049 1258.74 2.61889C1258.78 2.51609 1258.81 2.40851 1258.81 2.29615C1258.81 2.16705 1258.78 2.05529 1258.71 1.96086C1258.65 1.86642 1258.57 1.79351 1258.46 1.74211C1258.36 1.69071 1258.24 1.66501 1258.1 1.66501C1257.96 1.66501 1257.84 1.6943 1257.73 1.75287C1257.63 1.81024 1257.55 1.89093 1257.49 1.99492C1257.44 2.09892 1257.41 2.22084 1257.41 2.3607H1256.98C1256.98 2.14554 1257.03 1.95667 1257.13 1.79411C1257.23 1.63154 1257.37 1.50483 1257.54 1.41399C1257.71 1.32314 1257.9 1.27772 1258.12 1.27772C1258.33 1.27772 1258.52 1.32314 1258.69 1.41399C1258.86 1.50483 1258.99 1.62736 1259.08 1.78156C1259.18 1.93575 1259.22 2.10728 1259.22 2.29615C1259.22 2.43122 1259.2 2.56331 1259.15 2.6924C1259.1 2.8203 1259.02 2.96315 1258.9 3.12093C1258.78 3.27752 1258.62 3.46877 1258.4 3.69469L1257.58 4.57685V4.60554H1259.29V5H1256.97ZM1259.86 4.24694V3.88116L1261.48 1.32792H1261.74V1.89451H1261.56L1260.34 3.82379V3.85248H1262.52V4.24694H1259.86ZM1261.59 5V4.13577V3.96544V1.32792H1262.01V5H1261.59ZM1264.41 5.0502C1264.26 5.04781 1264.11 5.01913 1263.96 4.96414C1263.8 4.90915 1263.67 4.81652 1263.54 4.68622C1263.42 4.55474 1263.32 4.37723 1263.24 4.1537C1263.17 3.92898 1263.13 3.64688 1263.13 3.3074C1263.13 2.98227 1263.16 2.69419 1263.22 2.44317C1263.28 2.19096 1263.37 1.97879 1263.49 1.80666C1263.6 1.63333 1263.74 1.50185 1263.91 1.4122C1264.07 1.32255 1264.26 1.27772 1264.46 1.27772C1264.67 1.27772 1264.85 1.31896 1265.01 1.40144C1265.17 1.48272 1265.31 1.59628 1265.41 1.74211C1265.51 1.88794 1265.58 2.05589 1265.61 2.24594H1265.17C1265.13 2.08099 1265.05 1.94412 1264.93 1.83535C1264.81 1.72657 1264.66 1.67218 1264.46 1.67218C1264.18 1.67218 1263.96 1.7959 1263.79 2.04333C1263.63 2.29077 1263.55 2.63801 1263.55 3.08507H1263.58C1263.64 2.98347 1263.72 2.8968 1263.81 2.82508C1263.91 2.75217 1264.01 2.69599 1264.12 2.65654C1264.23 2.6171 1264.35 2.59737 1264.48 2.59737C1264.69 2.59737 1264.88 2.64997 1265.06 2.75516C1265.23 2.85915 1265.37 3.00319 1265.48 3.18727C1265.58 3.37016 1265.63 3.57994 1265.63 3.81662C1265.63 4.04373 1265.58 4.25172 1265.48 4.44058C1265.38 4.62825 1265.24 4.77767 1265.05 4.88883C1264.87 4.9988 1264.65 5.05259 1264.41 5.0502ZM1264.41 4.65574C1264.56 4.65574 1264.69 4.61809 1264.81 4.54278C1264.93 4.46748 1265.03 4.36647 1265.1 4.23977C1265.17 4.11306 1265.2 3.97201 1265.2 3.81662C1265.2 3.66481 1265.17 3.52675 1265.1 3.40243C1265.03 3.27692 1264.94 3.17711 1264.82 3.103C1264.71 3.02889 1264.57 2.99183 1264.42 2.99183C1264.31 2.99183 1264.2 3.01455 1264.1 3.05997C1264.01 3.1042 1263.92 3.16516 1263.85 3.24285C1263.77 3.32055 1263.72 3.4096 1263.67 3.51001C1263.63 3.60923 1263.61 3.71382 1263.61 3.82379C1263.61 3.96962 1263.65 4.10589 1263.71 4.23259C1263.78 4.3593 1263.88 4.4615 1264 4.5392C1264.12 4.61689 1264.25 4.65574 1264.41 4.65574Z" fill="#1C1A17"/>
<path opacity="0.2" d="M744.903 5V4.67726L746.115 3.35043C746.257 3.19504 746.375 3.05997 746.467 2.94522C746.559 2.82927 746.627 2.72049 746.671 2.61889C746.716 2.51609 746.739 2.40851 746.739 2.29615C746.739 2.16705 746.708 2.05529 746.646 1.96086C746.585 1.86642 746.501 1.79351 746.395 1.74211C746.288 1.69071 746.169 1.66501 746.036 1.66501C745.895 1.66501 745.772 1.6943 745.667 1.75287C745.563 1.81024 745.482 1.89093 745.425 1.99492C745.369 2.09892 745.341 2.22084 745.341 2.3607H744.917C744.917 2.14554 744.967 1.95667 745.066 1.79411C745.165 1.63154 745.301 1.50483 745.471 1.41399C745.644 1.32314 745.837 1.27772 746.051 1.27772C746.266 1.27772 746.456 1.32314 746.623 1.41399C746.789 1.50483 746.919 1.62736 747.013 1.78156C747.108 1.93575 747.155 2.10728 747.155 2.29615C747.155 2.43122 747.131 2.56331 747.082 2.6924C747.034 2.8203 746.95 2.96315 746.831 3.12093C746.712 3.27752 746.548 3.46877 746.337 3.69469L745.513 4.57685V4.60554H747.22V5H744.903ZM747.795 4.24694V3.88116L749.409 1.32792H749.674V1.89451H749.495L748.276 3.82379V3.85248H750.449V4.24694H747.795ZM749.524 5V4.13577V3.96544V1.32792H749.947V5H749.524ZM752.34 5.0502C752.189 5.04781 752.039 5.01913 751.888 4.96414C751.738 4.90915 751.6 4.81652 751.476 4.68622C751.351 4.55474 751.252 4.37723 751.176 4.1537C751.101 3.92898 751.063 3.64688 751.063 3.3074C751.063 2.98227 751.094 2.69419 751.155 2.44317C751.216 2.19096 751.304 1.97879 751.42 1.80666C751.536 1.63333 751.676 1.50185 751.84 1.4122C752.005 1.32255 752.191 1.27772 752.397 1.27772C752.603 1.27772 752.786 1.31896 752.946 1.40144C753.107 1.48272 753.239 1.59628 753.341 1.74211C753.442 1.88794 753.508 2.05589 753.538 2.24594H753.1C753.06 2.08099 752.981 1.94412 752.864 1.83535C752.746 1.72657 752.591 1.67218 752.397 1.67218C752.113 1.67218 751.889 1.7959 751.725 2.04333C751.562 2.29077 751.481 2.63801 751.479 3.08507H751.508C751.575 2.98347 751.654 2.8968 751.747 2.82508C751.84 2.75217 751.943 2.69599 752.055 2.65654C752.167 2.6171 752.286 2.59737 752.412 2.59737C752.622 2.59737 752.815 2.64997 752.989 2.75516C753.164 2.85915 753.303 3.00319 753.409 3.18727C753.514 3.37016 753.566 3.57994 753.566 3.81662C753.566 4.04373 753.516 4.25172 753.414 4.44058C753.312 4.62825 753.17 4.77767 752.985 4.88883C752.803 4.9988 752.587 5.05259 752.34 5.0502ZM752.34 4.65574C752.491 4.65574 752.626 4.61809 752.745 4.54278C752.866 4.46748 752.961 4.36647 753.03 4.23977C753.101 4.11306 753.136 3.97201 753.136 3.81662C753.136 3.66481 753.102 3.52675 753.034 3.40243C752.967 3.27692 752.874 3.17711 752.756 3.103C752.639 3.02889 752.505 2.99183 752.354 2.99183C752.241 2.99183 752.135 3.01455 752.037 3.05997C751.939 3.1042 751.853 3.16516 751.779 3.24285C751.706 3.32055 751.649 3.4096 751.607 3.51001C751.565 3.60923 751.544 3.71382 751.544 3.82379C751.544 3.96962 751.578 4.10589 751.646 4.23259C751.715 4.3593 751.81 4.4615 751.929 4.5392C752.05 4.61689 752.187 4.65574 752.34 4.65574Z" fill="#1C1A17"/>
<path opacity="0.2" d="M876.601 5V4.67726L877.813 3.35043C877.955 3.19504 878.072 3.05997 878.164 2.94522C878.256 2.82927 878.324 2.72049 878.368 2.61889C878.414 2.51609 878.437 2.40851 878.437 2.29615C878.437 2.16705 878.406 2.05529 878.343 1.96086C878.282 1.86642 878.199 1.79351 878.092 1.74211C877.986 1.69071 877.866 1.66501 877.734 1.66501C877.593 1.66501 877.47 1.6943 877.364 1.75287C877.26 1.81024 877.18 1.89093 877.122 1.99492C877.066 2.09892 877.038 2.22084 877.038 2.3607H876.615C876.615 2.14554 876.665 1.95667 876.764 1.79411C876.863 1.63154 876.998 1.50483 877.169 1.41399C877.341 1.32314 877.534 1.27772 877.748 1.27772C877.963 1.27772 878.154 1.32314 878.32 1.41399C878.486 1.50483 878.617 1.62736 878.711 1.78156C878.805 1.93575 878.853 2.10728 878.853 2.29615C878.853 2.43122 878.828 2.56331 878.779 2.6924C878.731 2.8203 878.648 2.96315 878.528 3.12093C878.41 3.27752 878.245 3.46877 878.035 3.69469L877.21 4.57685V4.60554H878.917V5H876.601ZM880.877 5.0502C880.726 5.04781 880.576 5.01913 880.425 4.96414C880.274 4.90915 880.137 4.81652 880.013 4.68622C879.888 4.55474 879.789 4.37723 879.713 4.1537C879.638 3.92898 879.6 3.64688 879.6 3.3074C879.6 2.98227 879.631 2.69419 879.692 2.44317C879.753 2.19096 879.841 1.97879 879.957 1.80666C880.073 1.63333 880.213 1.50185 880.377 1.4122C880.542 1.32255 880.727 1.27772 880.934 1.27772C881.14 1.27772 881.323 1.31896 881.483 1.40144C881.644 1.48272 881.776 1.59628 881.877 1.74211C881.979 1.88794 882.045 2.05589 882.075 2.24594H881.637C881.596 2.08099 881.518 1.94412 881.4 1.83535C881.283 1.72657 881.128 1.67218 880.934 1.67218C880.65 1.67218 880.426 1.7959 880.262 2.04333C880.099 2.29077 880.017 2.63801 880.016 3.08507H880.045C880.112 2.98347 880.191 2.8968 880.283 2.82508C880.377 2.75217 880.479 2.69599 880.592 2.65654C880.704 2.6171 880.823 2.59737 880.949 2.59737C881.159 2.59737 881.351 2.64997 881.526 2.75516C881.7 2.85915 881.84 3.00319 881.946 3.18727C882.051 3.37016 882.103 3.57994 882.103 3.81662C882.103 4.04373 882.053 4.25172 881.951 4.44058C881.849 4.62825 881.706 4.77767 881.522 4.88883C881.339 4.9988 881.124 5.05259 880.877 5.0502ZM880.877 4.65574C881.028 4.65574 881.163 4.61809 881.282 4.54278C881.403 4.46748 881.498 4.36647 881.567 4.23977C881.638 4.11306 881.673 3.97201 881.673 3.81662C881.673 3.66481 881.639 3.52675 881.571 3.40243C881.504 3.27692 881.411 3.17711 881.293 3.103C881.176 3.02889 881.042 2.99183 880.891 2.99183C880.778 2.99183 880.672 3.01455 880.574 3.05997C880.476 3.1042 880.39 3.16516 880.316 3.24285C880.243 3.32055 880.185 3.4096 880.144 3.51001C880.102 3.60923 880.081 3.71382 880.081 3.82379C880.081 3.96962 880.115 4.10589 880.183 4.23259C880.252 4.3593 880.347 4.4615 880.466 4.5392C880.587 4.61689 880.724 4.65574 880.877 4.65574ZM882.722 4.24694V3.88116L884.336 1.32792H884.601V1.89451H884.422L883.203 3.82379V3.85248H885.376V4.24694H882.722ZM884.451 5V4.13577V3.96544V1.32792H884.874V5H884.451Z" fill="#1C1A17"/>
<path opacity="0.2" d="M1007.44 5.0502C1007.2 5.0502 1006.99 5.00956 1006.8 4.92828C1006.62 4.847 1006.47 4.73404 1006.36 4.5894C1006.26 4.44357 1006.2 4.27443 1006.19 4.08198H1006.64C1006.65 4.20032 1006.69 4.30252 1006.76 4.38859C1006.83 4.47345 1006.93 4.5392 1007.04 4.58582C1007.16 4.63243 1007.29 4.65574 1007.43 4.65574C1007.59 4.65574 1007.73 4.62825 1007.85 4.57326C1007.97 4.51828 1008.07 4.44178 1008.13 4.34376C1008.2 4.24574 1008.24 4.13219 1008.24 4.00309C1008.24 3.86802 1008.2 3.74908 1008.14 3.64628C1008.07 3.54229 1007.97 3.461 1007.84 3.40243C1007.71 3.34386 1007.56 3.31457 1007.37 3.31457H1007.08V2.92011H1007.37C1007.52 2.92011 1007.64 2.89382 1007.75 2.84122C1007.87 2.78863 1007.95 2.71452 1008.01 2.61889C1008.08 2.52326 1008.11 2.4109 1008.11 2.2818C1008.11 2.15749 1008.08 2.04931 1008.03 1.95727C1007.97 1.86523 1007.89 1.79351 1007.79 1.74211C1007.69 1.69071 1007.58 1.66501 1007.44 1.66501C1007.32 1.66501 1007.2 1.68832 1007.08 1.73494C1006.97 1.78036 1006.88 1.8467 1006.81 1.93396C1006.74 2.02003 1006.7 2.12402 1006.7 2.24594H1006.27C1006.27 2.05349 1006.33 1.88495 1006.44 1.74032C1006.55 1.59448 1006.69 1.48093 1006.87 1.39965C1007.04 1.31836 1007.24 1.27772 1007.45 1.27772C1007.68 1.27772 1007.87 1.32374 1008.03 1.41578C1008.2 1.50663 1008.32 1.62676 1008.41 1.77618C1008.5 1.92559 1008.54 2.08696 1008.54 2.26029C1008.54 2.46708 1008.49 2.64339 1008.38 2.78922C1008.27 2.93506 1008.12 3.03606 1007.94 3.09224V3.12093C1008.17 3.15918 1008.35 3.2578 1008.48 3.41678C1008.61 3.57456 1008.68 3.77 1008.68 4.00309C1008.68 4.20271 1008.62 4.38201 1008.51 4.54099C1008.41 4.69878 1008.26 4.82309 1008.07 4.91394C1007.89 5.00478 1007.67 5.0502 1007.44 5.0502ZM1010.61 5.0502C1010.34 5.0502 1010.11 4.97669 1009.92 4.82966C1009.73 4.68144 1009.58 4.46688 1009.48 4.18598C1009.38 3.90388 1009.33 3.5632 1009.33 3.16396C1009.33 2.76711 1009.38 2.42823 1009.48 2.14733C1009.58 1.86523 1009.73 1.65007 1009.92 1.50185C1010.11 1.35243 1010.34 1.27772 1010.61 1.27772C1010.87 1.27772 1011.1 1.35243 1011.29 1.50185C1011.48 1.65007 1011.63 1.86523 1011.73 2.14733C1011.83 2.42823 1011.88 2.76711 1011.88 3.16396C1011.88 3.5632 1011.83 3.90388 1011.73 4.18598C1011.63 4.46688 1011.49 4.68144 1011.3 4.82966C1011.11 4.97669 1010.88 5.0502 1010.61 5.0502ZM1010.61 4.65574C1010.87 4.65574 1011.08 4.52665 1011.23 4.26845C1011.38 4.01026 1011.45 3.6421 1011.45 3.16396C1011.45 2.846 1011.42 2.57526 1011.35 2.35173C1011.28 2.1282 1011.19 1.95787 1011.06 1.84072C1010.94 1.72358 1010.78 1.66501 1010.61 1.66501C1010.34 1.66501 1010.13 1.7959 1009.98 2.05768C1009.84 2.31826 1009.76 2.68702 1009.76 3.16396C1009.76 3.48192 1009.79 3.75207 1009.86 3.9744C1009.93 4.19673 1010.02 4.36587 1010.15 4.48182C1010.28 4.59777 1010.43 4.65574 1010.61 4.65574ZM1013.76 5.0502C1013.49 5.0502 1013.26 4.97669 1013.07 4.82966C1012.88 4.68144 1012.74 4.46688 1012.64 4.18598C1012.54 3.90388 1012.49 3.5632 1012.49 3.16396C1012.49 2.76711 1012.54 2.42823 1012.64 2.14733C1012.74 1.86523 1012.88 1.65007 1013.07 1.50185C1013.27 1.35243 1013.49 1.27772 1013.76 1.27772C1014.03 1.27772 1014.26 1.35243 1014.45 1.50185C1014.64 1.65007 1014.79 1.86523 1014.89 2.14733C1014.99 2.42823 1015.04 2.76711 1015.04 3.16396C1015.04 3.5632 1014.99 3.90388 1014.89 4.18598C1014.79 4.46688 1014.64 4.68144 1014.45 4.82966C1014.26 4.97669 1014.03 5.0502 1013.76 5.0502ZM1013.76 4.65574C1014.03 4.65574 1014.24 4.52665 1014.39 4.26845C1014.53 4.01026 1014.61 3.6421 1014.61 3.16396C1014.61 2.846 1014.57 2.57526 1014.51 2.35173C1014.44 2.1282 1014.34 1.95787 1014.22 1.84072C1014.09 1.72358 1013.94 1.66501 1013.76 1.66501C1013.5 1.66501 1013.29 1.7959 1013.14 2.05768C1012.99 2.31826 1012.92 2.68702 1012.92 3.16396C1012.92 3.48192 1012.95 3.75207 1013.02 3.9744C1013.08 4.19673 1013.18 4.36587 1013.31 4.48182C1013.43 4.59777 1013.58 4.65574 1013.76 4.65574Z" fill="#1C1A17"/>
<path opacity="0.2" d="M1128.63 5V4.67726L1129.85 3.35043C1129.99 3.19504 1130.11 3.05997 1130.2 2.94522C1130.29 2.82927 1130.36 2.72049 1130.4 2.61889C1130.45 2.51609 1130.47 2.40851 1130.47 2.29615C1130.47 2.16705 1130.44 2.05529 1130.38 1.96086C1130.32 1.86642 1130.23 1.79351 1130.13 1.74211C1130.02 1.69071 1129.9 1.66501 1129.77 1.66501C1129.63 1.66501 1129.5 1.6943 1129.4 1.75287C1129.29 1.81024 1129.21 1.89093 1129.16 1.99492C1129.1 2.09892 1129.07 2.22084 1129.07 2.3607H1128.65C1128.65 2.14554 1128.7 1.95667 1128.8 1.79411C1128.9 1.63154 1129.03 1.50483 1129.2 1.41399C1129.38 1.32314 1129.57 1.27772 1129.78 1.27772C1130 1.27772 1130.19 1.32314 1130.35 1.41399C1130.52 1.50483 1130.65 1.62736 1130.75 1.78156C1130.84 1.93575 1130.89 2.10728 1130.89 2.29615C1130.89 2.43122 1130.86 2.56331 1130.81 2.6924C1130.77 2.8203 1130.68 2.96315 1130.56 3.12093C1130.44 3.27752 1130.28 3.46877 1130.07 3.69469L1129.24 4.57685V4.60554H1130.95V5H1128.63ZM1132.91 5.0502C1132.76 5.04781 1132.61 5.01913 1132.46 4.96414C1132.31 4.90915 1132.17 4.81652 1132.05 4.68622C1131.92 4.55474 1131.82 4.37723 1131.75 4.1537C1131.67 3.92898 1131.63 3.64688 1131.63 3.3074C1131.63 2.98227 1131.67 2.69419 1131.73 2.44317C1131.79 2.19096 1131.88 1.97879 1131.99 1.80666C1132.11 1.63333 1132.25 1.50185 1132.41 1.4122C1132.58 1.32255 1132.76 1.27772 1132.97 1.27772C1133.17 1.27772 1133.36 1.31896 1133.52 1.40144C1133.68 1.48272 1133.81 1.59628 1133.91 1.74211C1134.01 1.88794 1134.08 2.05589 1134.11 2.24594H1133.67C1133.63 2.08099 1133.55 1.94412 1133.43 1.83535C1133.32 1.72657 1133.16 1.67218 1132.97 1.67218C1132.68 1.67218 1132.46 1.7959 1132.3 2.04333C1132.13 2.29077 1132.05 2.63801 1132.05 3.08507H1132.08C1132.15 2.98347 1132.23 2.8968 1132.32 2.82508C1132.41 2.75217 1132.51 2.69599 1132.63 2.65654C1132.74 2.6171 1132.86 2.59737 1132.98 2.59737C1133.19 2.59737 1133.39 2.64997 1133.56 2.75516C1133.73 2.85915 1133.87 3.00319 1133.98 3.18727C1134.09 3.37016 1134.14 3.57994 1134.14 3.81662C1134.14 4.04373 1134.09 4.25172 1133.99 4.44058C1133.88 4.62825 1133.74 4.77767 1133.56 4.88883C1133.37 4.9988 1133.16 5.05259 1132.91 5.0502ZM1132.91 4.65574C1133.06 4.65574 1133.2 4.61809 1133.32 4.54278C1133.44 4.46748 1133.53 4.36647 1133.6 4.23977C1133.67 4.11306 1133.71 3.97201 1133.71 3.81662C1133.71 3.66481 1133.67 3.52675 1133.61 3.40243C1133.54 3.27692 1133.45 3.17711 1133.33 3.103C1133.21 3.02889 1133.08 2.99183 1132.93 2.99183C1132.81 2.99183 1132.71 3.01455 1132.61 3.05997C1132.51 3.1042 1132.42 3.16516 1132.35 3.24285C1132.28 3.32055 1132.22 3.4096 1132.18 3.51001C1132.14 3.60923 1132.12 3.71382 1132.12 3.82379C1132.12 3.96962 1132.15 4.10589 1132.22 4.23259C1132.29 4.3593 1132.38 4.4615 1132.5 4.5392C1132.62 4.61689 1132.76 4.65574 1132.91 4.65574ZM1134.76 4.24694V3.88116L1136.37 1.32792H1136.64V1.89451H1136.46L1135.24 3.82379V3.85248H1137.41V4.24694H1134.76ZM1136.49 5V4.13577V3.96544V1.32792H1136.91V5H1136.49Z" fill="#1C1A17"/>
<path opacity="0.2" d="M482.656 5.0502C482.445 5.0502 482.256 5.00837 482.087 4.92469C481.919 4.84102 481.784 4.72627 481.682 4.58044C481.581 4.43461 481.525 4.26845 481.515 4.08198H481.946C481.963 4.24813 482.038 4.3856 482.172 4.49437C482.307 4.60195 482.468 4.65574 482.656 4.65574C482.806 4.65574 482.94 4.62048 483.057 4.54996C483.176 4.47943 483.268 4.38261 483.335 4.25949C483.403 4.13517 483.438 3.99472 483.438 3.83813C483.438 3.67796 483.402 3.53511 483.332 3.4096C483.262 3.2829 483.167 3.18309 483.045 3.11017C482.923 3.03726 482.784 3.0002 482.627 2.99901C482.515 2.99781 482.399 3.01514 482.281 3.051C482.163 3.08567 482.065 3.13049 481.989 3.18548L481.573 3.13527L481.795 1.32792H483.703V1.72239H482.168L482.039 2.80536H482.061C482.136 2.74559 482.23 2.69599 482.344 2.65654C482.457 2.6171 482.576 2.59737 482.699 2.59737C482.924 2.59737 483.124 2.65116 483.3 2.75874C483.476 2.86513 483.615 3.01096 483.715 3.19624C483.817 3.38151 483.868 3.59309 483.868 3.83096C483.868 4.06525 483.815 4.27443 483.71 4.45851C483.606 4.6414 483.463 4.78603 483.28 4.89242C483.097 4.99761 482.889 5.0502 482.656 5.0502ZM484.58 5V4.67726L485.792 3.35043C485.934 3.19504 486.052 3.05997 486.144 2.94522C486.236 2.82927 486.304 2.72049 486.348 2.61889C486.393 2.51609 486.416 2.40851 486.416 2.29615C486.416 2.16705 486.385 2.05529 486.323 1.96086C486.262 1.86642 486.178 1.79351 486.072 1.74211C485.966 1.69071 485.846 1.66501 485.713 1.66501C485.572 1.66501 485.449 1.6943 485.344 1.75287C485.24 1.81024 485.159 1.89093 485.102 1.99492C485.046 2.09892 485.018 2.22084 485.018 2.3607H484.595C484.595 2.14554 484.644 1.95667 484.743 1.79411C484.843 1.63154 484.978 1.50483 485.149 1.41399C485.321 1.32314 485.514 1.27772 485.728 1.27772C485.943 1.27772 486.133 1.32314 486.3 1.41399C486.466 1.50483 486.596 1.62736 486.691 1.78156C486.785 1.93575 486.832 2.10728 486.832 2.29615C486.832 2.43122 486.808 2.56331 486.759 2.6924C486.711 2.8203 486.627 2.96315 486.508 3.12093C486.389 3.27752 486.225 3.46877 486.015 3.69469L485.19 4.57685V4.60554H486.897V5H484.58ZM488.72 4.35452V1.98775H489.122V4.35452H488.72ZM487.738 3.37195V2.97032H490.104V3.37195H487.738ZM490.793 5V4.67726L492.005 3.35043C492.147 3.19504 492.264 3.05997 492.356 2.94522C492.448 2.82927 492.517 2.72049 492.561 2.61889C492.606 2.51609 492.629 2.40851 492.629 2.29615C492.629 2.16705 492.598 2.05529 492.536 1.96086C492.475 1.86642 492.391 1.79351 492.285 1.74211C492.178 1.69071 492.059 1.66501 491.926 1.66501C491.785 1.66501 491.662 1.6943 491.557 1.75287C491.453 1.81024 491.372 1.89093 491.315 1.99492C491.259 2.09892 491.23 2.22084 491.23 2.3607H490.807C490.807 2.14554 490.857 1.95667 490.956 1.79411C491.055 1.63154 491.19 1.50483 491.361 1.41399C491.533 1.32314 491.726 1.27772 491.94 1.27772C492.156 1.27772 492.346 1.32314 492.512 1.41399C492.679 1.50483 492.809 1.62736 492.903 1.78156C492.998 1.93575 493.045 2.10728 493.045 2.29615C493.045 2.43122 493.02 2.56331 492.971 2.6924C492.924 2.8203 492.84 2.96315 492.72 3.12093C492.602 3.27752 492.438 3.46877 492.227 3.69469L491.403 4.57685V4.60554H493.109V5H490.793ZM495.069 5.0502C494.919 5.04781 494.768 5.01913 494.617 4.96414C494.467 4.90915 494.329 4.81652 494.205 4.68622C494.081 4.55474 493.981 4.37723 493.906 4.1537C493.83 3.92898 493.793 3.64688 493.793 3.3074C493.793 2.98227 493.823 2.69419 493.884 2.44317C493.945 2.19096 494.033 1.97879 494.149 1.80666C494.265 1.63333 494.405 1.50185 494.569 1.4122C494.734 1.32255 494.92 1.27772 495.127 1.27772C495.332 1.27772 495.515 1.31896 495.675 1.40144C495.837 1.48272 495.968 1.59628 496.07 1.74211C496.171 1.88794 496.237 2.05589 496.267 2.24594H495.829C495.789 2.08099 495.71 1.94412 495.593 1.83535C495.476 1.72657 495.32 1.67218 495.127 1.67218C494.842 1.67218 494.618 1.7959 494.454 2.04333C494.292 2.29077 494.21 2.63801 494.209 3.08507H494.237C494.304 2.98347 494.384 2.8968 494.476 2.82508C494.569 2.75217 494.672 2.69599 494.784 2.65654C494.897 2.6171 495.015 2.59737 495.141 2.59737C495.351 2.59737 495.544 2.64997 495.718 2.75516C495.893 2.85915 496.033 3.00319 496.138 3.18727C496.243 3.37016 496.296 3.57994 496.296 3.81662C496.296 4.04373 496.245 4.25172 496.143 4.44058C496.042 4.62825 495.899 4.77767 495.715 4.88883C495.532 4.9988 495.317 5.05259 495.069 5.0502ZM495.069 4.65574C495.22 4.65574 495.355 4.61809 495.474 4.54278C495.595 4.46748 495.69 4.36647 495.76 4.23977C495.83 4.11306 495.865 3.97201 495.865 3.81662C495.865 3.66481 495.831 3.52675 495.763 3.40243C495.696 3.27692 495.604 3.17711 495.485 3.103C495.368 3.02889 495.234 2.99183 495.084 2.99183C494.97 2.99183 494.864 3.01455 494.766 3.05997C494.668 3.1042 494.582 3.16516 494.508 3.24285C494.435 3.32055 494.378 3.4096 494.336 3.51001C494.294 3.60923 494.273 3.71382 494.273 3.82379C494.273 3.96962 494.307 4.10589 494.375 4.23259C494.445 4.3593 494.539 4.4615 494.659 4.5392C494.779 4.61689 494.916 4.65574 495.069 4.65574ZM496.915 4.24694V3.88116L498.528 1.32792H498.794V1.89451H498.614L497.395 3.82379V3.85248H499.568V4.24694H496.915ZM498.643 5V4.13577V3.96544V1.32792H499.066V5H498.643Z" fill="#1C1A17"/>
<path opacity="0.2" d="M1475.34 5V4.67726L1476.56 3.35043C1476.7 3.19504 1476.82 3.05997 1476.91 2.94522C1477 2.82927 1477.07 2.72049 1477.11 2.61889C1477.16 2.51609 1477.18 2.40851 1477.18 2.29615C1477.18 2.16705 1477.15 2.05529 1477.09 1.96086C1477.03 1.86642 1476.94 1.79351 1476.84 1.74211C1476.73 1.69071 1476.61 1.66501 1476.48 1.66501C1476.34 1.66501 1476.21 1.6943 1476.11 1.75287C1476 1.81024 1475.92 1.89093 1475.87 1.99492C1475.81 2.09892 1475.78 2.22084 1475.78 2.3607H1475.36C1475.36 2.14554 1475.41 1.95667 1475.51 1.79411C1475.61 1.63154 1475.74 1.50483 1475.91 1.41399C1476.08 1.32314 1476.28 1.27772 1476.49 1.27772C1476.71 1.27772 1476.9 1.32314 1477.06 1.41399C1477.23 1.50483 1477.36 1.62736 1477.45 1.78156C1477.55 1.93575 1477.6 2.10728 1477.6 2.29615C1477.6 2.43122 1477.57 2.56331 1477.52 2.6924C1477.48 2.8203 1477.39 2.96315 1477.27 3.12093C1477.15 3.27752 1476.99 3.46877 1476.78 3.69469L1475.95 4.57685V4.60554H1477.66V5H1475.34ZM1479.62 5.0502C1479.47 5.04781 1479.32 5.01913 1479.17 4.96414C1479.02 4.90915 1478.88 4.81652 1478.76 4.68622C1478.63 4.55474 1478.53 4.37723 1478.46 4.1537C1478.38 3.92898 1478.34 3.64688 1478.34 3.3074C1478.34 2.98227 1478.37 2.69419 1478.44 2.44317C1478.5 2.19096 1478.59 1.97879 1478.7 1.80666C1478.82 1.63333 1478.96 1.50185 1479.12 1.4122C1479.29 1.32255 1479.47 1.27772 1479.68 1.27772C1479.88 1.27772 1480.07 1.31896 1480.23 1.40144C1480.39 1.48272 1480.52 1.59628 1480.62 1.74211C1480.72 1.88794 1480.79 2.05589 1480.82 2.24594H1480.38C1480.34 2.08099 1480.26 1.94412 1480.14 1.83535C1480.03 1.72657 1479.87 1.67218 1479.68 1.67218C1479.39 1.67218 1479.17 1.7959 1479.01 2.04333C1478.84 2.29077 1478.76 2.63801 1478.76 3.08507H1478.79C1478.86 2.98347 1478.94 2.8968 1479.03 2.82508C1479.12 2.75217 1479.22 2.69599 1479.34 2.65654C1479.45 2.6171 1479.57 2.59737 1479.69 2.59737C1479.9 2.59737 1480.1 2.64997 1480.27 2.75516C1480.44 2.85915 1480.58 3.00319 1480.69 3.18727C1480.79 3.37016 1480.85 3.57994 1480.85 3.81662C1480.85 4.04373 1480.8 4.25172 1480.69 4.44058C1480.59 4.62825 1480.45 4.77767 1480.27 4.88883C1480.08 4.9988 1479.87 5.05259 1479.62 5.0502ZM1479.62 4.65574C1479.77 4.65574 1479.91 4.61809 1480.03 4.54278C1480.15 4.46748 1480.24 4.36647 1480.31 4.23977C1480.38 4.11306 1480.42 3.97201 1480.42 3.81662C1480.42 3.66481 1480.38 3.52675 1480.31 3.40243C1480.25 3.27692 1480.16 3.17711 1480.04 3.103C1479.92 3.02889 1479.79 2.99183 1479.64 2.99183C1479.52 2.99183 1479.42 3.01455 1479.32 3.05997C1479.22 3.1042 1479.13 3.16516 1479.06 3.24285C1478.99 3.32055 1478.93 3.4096 1478.89 3.51001C1478.85 3.60923 1478.82 3.71382 1478.82 3.82379C1478.82 3.96962 1478.86 4.10589 1478.93 4.23259C1479 4.3593 1479.09 4.4615 1479.21 4.5392C1479.33 4.61689 1479.47 4.65574 1479.62 4.65574ZM1481.47 4.24694V3.88116L1483.08 1.32792H1483.35V1.89451H1483.17L1481.95 3.82379V3.85248H1484.12V4.24694H1481.47ZM1483.19 5V4.13577V3.96544V1.32792H1483.62V5H1483.19ZM1485.87 4.35452V1.98775H1486.28V4.35452H1485.87ZM1484.89 3.37195V2.97032H1487.26V3.37195H1484.89ZM1489.27 5.0502C1489.06 5.0502 1488.87 5.00837 1488.7 4.92469C1488.53 4.84102 1488.4 4.72627 1488.29 4.58044C1488.19 4.43461 1488.14 4.26845 1488.13 4.08198H1488.56C1488.57 4.24813 1488.65 4.3856 1488.78 4.49437C1488.92 4.60195 1489.08 4.65574 1489.27 4.65574C1489.42 4.65574 1489.55 4.62048 1489.67 4.54996C1489.79 4.47943 1489.88 4.38261 1489.95 4.25949C1490.02 4.13517 1490.05 3.99472 1490.05 3.83813C1490.05 3.67796 1490.01 3.53511 1489.94 3.4096C1489.87 3.2829 1489.78 3.18309 1489.66 3.11017C1489.53 3.03726 1489.4 3.0002 1489.24 2.99901C1489.13 2.99781 1489.01 3.01514 1488.89 3.051C1488.77 3.08567 1488.68 3.13049 1488.6 3.18548L1488.18 3.13527L1488.41 1.32792H1490.31V1.72239H1488.78L1488.65 2.80536H1488.67C1488.75 2.74559 1488.84 2.69599 1488.96 2.65654C1489.07 2.6171 1489.19 2.59737 1489.31 2.59737C1489.54 2.59737 1489.74 2.65116 1489.91 2.75874C1490.09 2.86513 1490.23 3.01096 1490.33 3.19624C1490.43 3.38151 1490.48 3.59309 1490.48 3.83096C1490.48 4.06525 1490.43 4.27443 1490.32 4.45851C1490.22 4.6414 1490.07 4.78603 1489.89 4.89242C1489.71 4.99761 1489.5 5.0502 1489.27 5.0502ZM1491.19 5V4.67726L1492.4 3.35043C1492.55 3.19504 1492.66 3.05997 1492.76 2.94522C1492.85 2.82927 1492.92 2.72049 1492.96 2.61889C1493.01 2.51609 1493.03 2.40851 1493.03 2.29615C1493.03 2.16705 1493 2.05529 1492.93 1.96086C1492.87 1.86642 1492.79 1.79351 1492.68 1.74211C1492.58 1.69071 1492.46 1.66501 1492.33 1.66501C1492.18 1.66501 1492.06 1.6943 1491.96 1.75287C1491.85 1.81024 1491.77 1.89093 1491.71 1.99492C1491.66 2.09892 1491.63 2.22084 1491.63 2.3607H1491.21C1491.21 2.14554 1491.26 1.95667 1491.36 1.79411C1491.45 1.63154 1491.59 1.50483 1491.76 1.41399C1491.93 1.32314 1492.13 1.27772 1492.34 1.27772C1492.55 1.27772 1492.75 1.32314 1492.91 1.41399C1493.08 1.50483 1493.21 1.62736 1493.3 1.78156C1493.4 1.93575 1493.44 2.10728 1493.44 2.29615C1493.44 2.43122 1493.42 2.56331 1493.37 2.6924C1493.32 2.8203 1493.24 2.96315 1493.12 3.12093C1493 3.27752 1492.84 3.46877 1492.63 3.69469L1491.8 4.57685V4.60554H1493.51V5H1491.19Z" fill="#1C1A17"/>
<path opacity="0.2" d="M1507.44 23.9341L1509.08 20.6852V20.6565H1507.19V20.262H1509.54V20.678L1507.9 23.9341H1507.44ZM1509.82 23.181V22.8152L1511.44 20.262H1511.7V20.8286H1511.52L1510.31 22.7579V22.7866H1512.48V23.181H1509.82ZM1511.55 23.9341V23.0699V22.8995V20.262H1511.98V23.9341H1511.55Z" fill="#1C1A17"/>
<path opacity="0.2" d="M1430.02 23.9341L1431.66 20.6852V20.6565H1429.77V20.262H1432.12V20.678L1430.48 23.9341H1430.02ZM1432.41 23.181V22.8152L1434.02 20.262H1434.28V20.8286H1434.1L1432.89 22.7579V22.7866H1435.06V23.181H1432.41ZM1434.13 23.9341V23.0699V22.8995V20.262H1434.56V23.9341H1434.13Z" fill="#1C1A17"/>
<path opacity="0.2" d="M1361.01 23.9341L1362.66 20.6852V20.6565H1360.76V20.262H1363.11V20.678L1361.48 23.9341H1361.01ZM1363.4 23.181V22.8152L1365.01 20.262H1365.28V20.8286H1365.1L1363.88 22.7579V22.7866H1366.05V23.181H1363.4ZM1365.13 23.9341V23.0699V22.8995V20.262H1365.55V23.9341H1365.13Z" fill="#1C1A17"/>
<path opacity="0.2" d="M1236.47 23.9341L1238.11 20.6852V20.6565H1236.22V20.262H1238.57V20.678L1236.93 23.9341H1236.47ZM1238.86 23.181V22.8152L1240.47 20.262H1240.73V20.8286H1240.56L1239.34 22.7579V22.7866H1241.51V23.181H1238.86ZM1240.58 23.9341V23.0699V22.8995V20.262H1241.01V23.9341H1240.58Z" fill="#1C1A17"/>
<path opacity="0.2" d="M1036.18 23.9341L1037.83 20.6852V20.6565H1035.93V20.262H1038.28V20.678L1036.65 23.9341H1036.18ZM1038.57 23.181V22.8152L1040.18 20.262H1040.45V20.8286H1040.27L1039.05 22.7579V22.7866H1041.22V23.181H1038.57ZM1040.3 23.9341V23.0699V22.8995V20.262H1040.72V23.9341H1040.3Z" fill="#1C1A17"/>
<path opacity="0.2" d="M861.989 23.9341L863.631 20.6852V20.6565H861.738V20.262H864.09V20.678L862.455 23.9341H861.989ZM864.377 23.181V22.8152L865.99 20.262H866.256V20.8286H866.076L864.857 22.7579V22.7866H867.03V23.181H864.377ZM866.105 23.9341V23.0699V22.8995V20.262H866.528V23.9341H866.105Z" fill="#1C1A17"/>
<path opacity="0.2" d="M612.479 23.9341L614.121 20.6852V20.6565H612.228V20.262H614.58V20.678L612.945 23.9341H612.479ZM614.867 23.181V22.8152L616.48 20.262H616.746V20.8286H616.566L615.347 22.7579V22.7866H617.52V23.181H614.867ZM616.595 23.9341V23.0699V22.8995V20.262H617.018V23.9341H616.595Z" fill="#1C1A17"/>
<path opacity="0.2" d="M543.054 23.9341L544.696 20.6852V20.6565H542.803V20.262H545.155V20.678L543.52 23.9341H543.054ZM545.442 23.181V22.8152L547.055 20.262H547.321V20.8286H547.141L545.922 22.7579V22.7866H548.095V23.181H545.442ZM547.17 23.9341V23.0699V22.8995V20.262H547.593V23.9341H547.17Z" fill="#1C1A17"/>
<path opacity="0.2" d="M464.372 23.9341L466.014 20.6852V20.6565H464.121V20.262H466.473V20.678L464.838 23.9341H464.372ZM466.76 23.181V22.8152L468.374 20.262H468.639V20.8286H468.46L467.24 22.7579V22.7866H469.414V23.181H466.76ZM468.488 23.9341V23.0699V22.8995V20.262H468.912V23.9341H468.488Z" fill="#1C1A17"/>
<path opacity="0.2" d="M438.897 23.9843C438.686 23.9843 438.497 23.9424 438.328 23.8588C438.16 23.7751 438.025 23.6603 437.923 23.5145C437.822 23.3687 437.766 23.2025 437.756 23.0161H438.187C438.203 23.1822 438.279 23.3197 438.413 23.4285C438.548 23.536 438.709 23.5898 438.897 23.5898C439.047 23.5898 439.181 23.5546 439.298 23.484C439.417 23.4135 439.509 23.3167 439.576 23.1936C439.644 23.0693 439.679 22.9288 439.679 22.7722C439.679 22.612 439.643 22.4692 439.573 22.3437C439.503 22.217 439.408 22.1172 439.286 22.0443C439.164 21.9713 439.025 21.9343 438.868 21.9331C438.756 21.9319 438.64 21.9492 438.522 21.9851C438.404 22.0197 438.306 22.0646 438.23 22.1196L437.814 22.0694L438.036 20.262H439.944V20.6565H438.409L438.28 21.7394H438.302C438.377 21.6797 438.471 21.6301 438.585 21.5906C438.698 21.5512 438.817 21.5315 438.94 21.5315C439.165 21.5315 439.365 21.5852 439.54 21.6928C439.717 21.7992 439.856 21.945 439.956 22.1303C440.058 22.3156 440.109 22.5272 440.109 22.765C440.109 22.9993 440.056 23.2085 439.951 23.3926C439.847 23.5755 439.704 23.7201 439.521 23.8265C439.338 23.9317 439.13 23.9843 438.897 23.9843ZM440.821 23.9341V23.6113L442.033 22.2845C442.175 22.1291 442.293 21.9941 442.385 21.8793C442.477 21.7634 442.545 21.6546 442.589 21.553C442.634 21.4502 442.657 21.3426 442.657 21.2302C442.657 21.1011 442.626 20.9894 442.564 20.8949C442.503 20.8005 442.419 20.7276 442.313 20.6762C442.207 20.6248 442.087 20.5991 441.954 20.5991C441.813 20.5991 441.69 20.6284 441.585 20.6869C441.481 20.7443 441.4 20.825 441.343 20.929C441.287 21.033 441.259 21.1549 441.259 21.2948H440.835C440.835 21.0796 440.885 20.8908 440.984 20.7282C441.084 20.5656 441.219 20.4389 441.39 20.3481C441.562 20.2572 441.755 20.2118 441.969 20.2118C442.184 20.2118 442.374 20.2572 442.541 20.3481C442.707 20.4389 442.837 20.5614 442.931 20.7156C443.026 20.8698 443.073 21.0414 443.073 21.2302C443.073 21.3653 443.049 21.4974 443 21.6265C442.952 21.7544 442.868 21.8972 442.749 22.055C442.63 22.2116 442.466 22.4029 442.256 22.6288L441.431 23.5109V23.5396H443.138V23.9341H440.821Z" fill="#1C1A17"/>
<path opacity="0.2" d="M389.477 23.9341L391.119 20.6852V20.6565H389.226V20.262H391.578V20.678L389.943 23.9341H389.477ZM391.865 23.181V22.8152L393.478 20.262H393.744V20.8286H393.564L392.345 22.7579V22.7866H394.518V23.181H391.865ZM393.593 23.9341V23.0699V22.8995V20.262H394.016V23.9341H393.593Z" fill="#1C1A17"/>
<path opacity="0.2" d="M364.002 23.9843C363.792 23.9843 363.602 23.9424 363.434 23.8588C363.265 23.7751 363.13 23.6603 363.028 23.5145C362.927 23.3687 362.871 23.2025 362.862 23.0161H363.292C363.309 23.1822 363.384 23.3197 363.518 23.4285C363.653 23.536 363.814 23.5898 364.002 23.5898C364.153 23.5898 364.286 23.5546 364.404 23.484C364.522 23.4135 364.615 23.3167 364.682 23.1936C364.75 23.0693 364.784 22.9288 364.784 22.7722C364.784 22.612 364.748 22.4692 364.678 22.3437C364.609 22.217 364.513 22.1172 364.391 22.0443C364.269 21.9713 364.13 21.9343 363.973 21.9331C363.861 21.9319 363.746 21.9492 363.627 21.9851C363.509 22.0197 363.412 22.0646 363.335 22.1196L362.919 22.0694L363.141 20.262H365.049V20.6565H363.514L363.385 21.7394H363.407C363.482 21.6797 363.576 21.6301 363.69 21.5906C363.804 21.5512 363.922 21.5315 364.045 21.5315C364.27 21.5315 364.47 21.5852 364.646 21.6928C364.823 21.7992 364.961 21.945 365.062 22.1303C365.163 22.3156 365.214 22.5272 365.214 22.765C365.214 22.9993 365.161 23.2085 365.056 23.3926C364.952 23.5755 364.809 23.7201 364.626 23.8265C364.443 23.9317 364.235 23.9843 364.002 23.9843ZM365.926 23.9341V23.6113L367.138 22.2845C367.281 22.1291 367.398 21.9941 367.49 21.8793C367.582 21.7634 367.65 21.6546 367.694 21.553C367.74 21.4502 367.762 21.3426 367.762 21.2302C367.762 21.1011 367.731 20.9894 367.669 20.8949C367.608 20.8005 367.525 20.7276 367.418 20.6762C367.312 20.6248 367.192 20.5991 367.06 20.5991C366.918 20.5991 366.795 20.6284 366.69 20.6869C366.586 20.7443 366.505 20.825 366.448 20.929C366.392 21.033 366.364 21.1549 366.364 21.2948H365.941C365.941 21.0796 365.99 20.8908 366.09 20.7282C366.189 20.5656 366.324 20.4389 366.495 20.3481C366.667 20.2572 366.86 20.2118 367.074 20.2118C367.289 20.2118 367.48 20.2572 367.646 20.3481C367.812 20.4389 367.942 20.5614 368.037 20.7156C368.131 20.8698 368.178 21.0414 368.178 21.2302C368.178 21.3653 368.154 21.4974 368.105 21.6265C368.057 21.7544 367.973 21.8972 367.854 22.055C367.735 22.2116 367.571 22.4029 367.361 22.6288L366.536 23.5109V23.5396H368.243V23.9341H365.926Z" fill="#1C1A17"/>
<path opacity="0.2" d="M331.604 40.8146C331.393 40.8146 331.204 40.7728 331.035 40.6891C330.867 40.6054 330.732 40.4907 330.63 40.3448C330.528 40.199 330.473 40.0329 330.463 39.8464H330.894C330.91 40.0125 330.986 40.15 331.119 40.2588C331.255 40.3664 331.416 40.4201 331.604 40.4201C331.754 40.4201 331.888 40.3849 332.005 40.3144C332.124 40.2438 332.216 40.147 332.283 40.0239C332.351 39.8996 332.385 39.7591 332.385 39.6025C332.385 39.4424 332.35 39.2995 332.28 39.174C332.21 39.0473 332.115 38.9475 331.993 38.8746C331.871 38.8017 331.731 38.7646 331.575 38.7634C331.463 38.7622 331.347 38.7795 331.229 38.8154C331.11 38.8501 331.013 38.8949 330.937 38.9499L330.521 38.8997L330.743 37.0923H332.651V37.4868H331.116L330.987 38.5698H331.008C331.084 38.51 331.178 38.4604 331.292 38.4209C331.405 38.3815 331.523 38.3618 331.647 38.3618C331.871 38.3618 332.072 38.4156 332.247 38.5231C332.424 38.6295 332.563 38.7754 332.663 38.9606C332.765 39.1459 332.816 39.3575 332.816 39.5954C332.816 39.8297 332.763 40.0388 332.658 40.2229C332.554 40.4058 332.41 40.5504 332.228 40.6568C332.045 40.762 331.837 40.8146 331.604 40.8146ZM333.528 40.7644V40.4417L334.74 39.1148C334.882 38.9594 334.999 38.8244 335.091 38.7096C335.183 38.5937 335.252 38.4849 335.296 38.3833C335.341 38.2805 335.364 38.1729 335.364 38.0606C335.364 37.9315 335.333 37.8197 335.271 37.7253C335.21 37.6308 335.126 37.5579 335.02 37.5065C334.913 37.4551 334.794 37.4294 334.661 37.4294C334.52 37.4294 334.397 37.4587 334.292 37.5173C334.188 37.5746 334.107 37.6553 334.05 37.7593C333.993 37.8633 333.965 37.9852 333.965 38.1251H333.542C333.542 37.9099 333.592 37.7211 333.691 37.5585C333.79 37.3959 333.925 37.2692 334.096 37.1784C334.268 37.0875 334.461 37.0421 334.675 37.0421C334.891 37.0421 335.081 37.0875 335.247 37.1784C335.414 37.2692 335.544 37.3918 335.638 37.546C335.733 37.7002 335.78 37.8717 335.78 38.0606C335.78 38.1956 335.755 38.3277 335.706 38.4568C335.659 38.5847 335.575 38.7276 335.455 38.8853C335.337 39.0419 335.173 39.2332 334.962 39.4591L334.138 40.3413V40.3699H335.844V40.7644H333.528Z" fill="#1C1A17"/>
<path opacity="0.2" d="M331.604 81.6283C331.393 81.6283 331.204 81.5865 331.035 81.5028C330.867 81.4191 330.732 81.3044 330.63 81.1586C330.528 81.0127 330.473 80.8466 330.463 80.6601H330.894C330.91 80.8263 330.986 80.9637 331.119 81.0725C331.255 81.1801 331.416 81.2339 331.604 81.2339C331.754 81.2339 331.888 81.1986 332.005 81.1281C332.124 81.0576 332.216 80.9607 332.283 80.8376C332.351 80.7133 332.385 80.5728 332.385 80.4163C332.385 80.2561 332.35 80.1132 332.28 79.9877C332.21 79.861 332.115 79.7612 331.993 79.6883C331.871 79.6154 331.731 79.5783 331.575 79.5771C331.463 79.5759 331.347 79.5933 331.229 79.6291C331.11 79.6638 331.013 79.7086 330.937 79.7636L330.521 79.7134L330.743 77.906H332.651V78.3005H331.116L330.987 79.3835H331.008C331.084 79.3237 331.178 79.2741 331.292 79.2347C331.405 79.1952 331.523 79.1755 331.647 79.1755C331.871 79.1755 332.072 79.2293 332.247 79.3369C332.424 79.4433 332.563 79.5891 332.663 79.7744C332.765 79.9596 332.816 80.1712 332.816 80.4091C332.816 80.6434 332.763 80.8526 332.658 81.0366C332.554 81.2195 332.41 81.3642 332.228 81.4705C332.045 81.5757 331.837 81.6283 331.604 81.6283ZM333.528 81.5781V81.2554L334.74 79.9286C334.882 79.7732 334.999 79.6381 335.091 79.5233C335.183 79.4074 335.252 79.2986 335.296 79.197C335.341 79.0942 335.364 78.9866 335.364 78.8743C335.364 78.7452 335.333 78.6334 335.271 78.539C335.21 78.4445 335.126 78.3716 335.02 78.3202C334.913 78.2688 334.794 78.2431 334.661 78.2431C334.52 78.2431 334.397 78.2724 334.292 78.331C334.188 78.3884 334.107 78.4691 334.05 78.573C333.993 78.677 333.965 78.799 333.965 78.9388H333.542C333.542 78.7237 333.592 78.5348 333.691 78.3722C333.79 78.2097 333.925 78.083 334.096 77.9921C334.268 77.9013 334.461 77.8558 334.675 77.8558C334.891 77.8558 335.081 77.9013 335.247 77.9921C335.414 78.083 335.544 78.2055 335.638 78.3597C335.733 78.5139 335.78 78.6854 335.78 78.8743C335.78 79.0093 335.755 79.1414 335.706 79.2705C335.659 79.3984 335.575 79.5413 335.455 79.6991C335.337 79.8556 335.173 80.0469 334.962 80.2728L334.138 81.155V81.1837H335.844V81.5781H333.528Z" fill="#1C1A17"/>
<path opacity="0.2" d="M331.604 185.556C331.393 185.556 331.204 185.514 331.035 185.43C330.867 185.346 330.732 185.232 330.63 185.086C330.528 184.94 330.473 184.774 330.463 184.587H330.894C330.91 184.754 330.986 184.891 331.119 185C331.255 185.107 331.416 185.161 331.604 185.161C331.754 185.161 331.888 185.126 332.005 185.055C332.124 184.985 332.216 184.888 332.283 184.765C332.351 184.641 332.385 184.5 332.385 184.344C332.385 184.183 332.35 184.04 332.28 183.915C332.21 183.788 332.115 183.688 331.993 183.616C331.871 183.543 331.731 183.506 331.575 183.504C331.463 183.503 331.347 183.521 331.229 183.556C331.11 183.591 331.013 183.636 330.937 183.691L330.521 183.641L330.743 181.833H332.651V182.228H331.116L330.987 183.311H331.008C331.084 183.251 331.178 183.201 331.292 183.162C331.405 183.122 331.523 183.103 331.647 183.103C331.871 183.103 332.072 183.157 332.247 183.264C332.424 183.37 332.563 183.516 332.663 183.702C332.765 183.887 332.816 184.098 332.816 184.336C332.816 184.571 332.763 184.78 332.658 184.964C332.554 185.147 332.41 185.291 332.228 185.398C332.045 185.503 331.837 185.556 331.604 185.556ZM333.528 185.505V185.183L334.74 183.856C334.882 183.7 334.999 183.565 335.091 183.451C335.183 183.335 335.252 183.226 335.296 183.124C335.341 183.021 335.364 182.914 335.364 182.802C335.364 182.672 335.333 182.561 335.271 182.466C335.21 182.372 335.126 182.299 335.02 182.247C334.913 182.196 334.794 182.17 334.661 182.17C334.52 182.17 334.397 182.2 334.292 182.258C334.188 182.316 334.107 182.396 334.05 182.5C333.993 182.604 333.965 182.726 333.965 182.866H333.542C333.542 182.651 333.592 182.462 333.691 182.299C333.79 182.137 333.925 182.01 334.096 181.919C334.268 181.829 334.461 181.783 334.675 181.783C334.891 181.783 335.081 181.829 335.247 181.919C335.414 182.01 335.544 182.133 335.638 182.287C335.733 182.441 335.78 182.613 335.78 182.802C335.78 182.937 335.755 183.069 335.706 183.198C335.659 183.326 335.575 183.469 335.455 183.626C335.337 183.783 335.173 183.974 334.962 184.2L334.138 185.082V185.111H335.844V185.505H333.528Z" fill="#1C1A17"/>
<path opacity="0.2" d="M330.37 60.6285V60.2628L331.984 57.7095H332.249V58.2761H332.07L330.851 60.2054V60.2341H333.024V60.6285H330.37ZM332.098 61.3816V60.5174V60.347V57.7095H332.522V61.3816H332.098ZM333.609 60.6285V60.2628L335.223 57.7095H335.489V58.2761H335.309L334.09 60.2054V60.2341H336.263V60.6285H333.609ZM335.338 61.3816V60.5174V60.347V57.7095H335.761V61.3816H335.338Z" fill="#1C1A17"/>
<path opacity="0.2" d="M1608.72 5V4.67726L1609.93 3.35043C1610.07 3.19504 1610.19 3.05997 1610.28 2.94522C1610.38 2.82927 1610.44 2.72049 1610.49 2.61889C1610.53 2.51609 1610.56 2.40851 1610.56 2.29615C1610.56 2.16705 1610.53 2.05529 1610.46 1.96086C1610.4 1.86642 1610.32 1.79351 1610.21 1.74211C1610.11 1.69071 1609.99 1.66501 1609.85 1.66501C1609.71 1.66501 1609.59 1.6943 1609.48 1.75287C1609.38 1.81024 1609.3 1.89093 1609.24 1.99492C1609.19 2.09892 1609.16 2.22084 1609.16 2.3607H1608.73C1608.73 2.14554 1608.78 1.95667 1608.88 1.79411C1608.98 1.63154 1609.12 1.50483 1609.29 1.41399C1609.46 1.32314 1609.65 1.27772 1609.87 1.27772C1610.08 1.27772 1610.27 1.32314 1610.44 1.41399C1610.61 1.50483 1610.74 1.62736 1610.83 1.78156C1610.93 1.93575 1610.97 2.10728 1610.97 2.29615C1610.97 2.43122 1610.95 2.56331 1610.9 2.6924C1610.85 2.8203 1610.77 2.96315 1610.65 3.12093C1610.53 3.27752 1610.37 3.46877 1610.15 3.69469L1609.33 4.57685V4.60554H1611.04V5H1608.72ZM1613 5.0502C1612.85 5.04781 1612.7 5.01913 1612.54 4.96414C1612.39 4.90915 1612.26 4.81652 1612.13 4.68622C1612.01 4.55474 1611.91 4.37723 1611.83 4.1537C1611.76 3.92898 1611.72 3.64688 1611.72 3.3074C1611.72 2.98227 1611.75 2.69419 1611.81 2.44317C1611.87 2.19096 1611.96 1.97879 1612.08 1.80666C1612.19 1.63333 1612.33 1.50185 1612.5 1.4122C1612.66 1.32255 1612.85 1.27772 1613.05 1.27772C1613.26 1.27772 1613.44 1.31896 1613.6 1.40144C1613.76 1.48272 1613.9 1.59628 1614 1.74211C1614.1 1.88794 1614.16 2.05589 1614.19 2.24594H1613.76C1613.72 2.08099 1613.64 1.94412 1613.52 1.83535C1613.4 1.72657 1613.25 1.67218 1613.05 1.67218C1612.77 1.67218 1612.55 1.7959 1612.38 2.04333C1612.22 2.29077 1612.14 2.63801 1612.14 3.08507H1612.16C1612.23 2.98347 1612.31 2.8968 1612.4 2.82508C1612.5 2.75217 1612.6 2.69599 1612.71 2.65654C1612.82 2.6171 1612.94 2.59737 1613.07 2.59737C1613.28 2.59737 1613.47 2.64997 1613.65 2.75516C1613.82 2.85915 1613.96 3.00319 1614.07 3.18727C1614.17 3.37016 1614.22 3.57994 1614.22 3.81662C1614.22 4.04373 1614.17 4.25172 1614.07 4.44058C1613.97 4.62825 1613.83 4.77767 1613.64 4.88883C1613.46 4.9988 1613.24 5.05259 1613 5.0502ZM1613 4.65574C1613.15 4.65574 1613.28 4.61809 1613.4 4.54278C1613.52 4.46748 1613.62 4.36647 1613.69 4.23977C1613.76 4.11306 1613.79 3.97201 1613.79 3.81662C1613.79 3.66481 1613.76 3.52675 1613.69 3.40243C1613.62 3.27692 1613.53 3.17711 1613.41 3.103C1613.3 3.02889 1613.16 2.99183 1613.01 2.99183C1612.9 2.99183 1612.79 3.01455 1612.69 3.05997C1612.6 3.1042 1612.51 3.16516 1612.44 3.24285C1612.36 3.32055 1612.31 3.4096 1612.26 3.51001C1612.22 3.60923 1612.2 3.71382 1612.2 3.82379C1612.2 3.96962 1612.23 4.10589 1612.3 4.23259C1612.37 4.3593 1612.47 4.4615 1612.59 4.5392C1612.71 4.61689 1612.84 4.65574 1613 4.65574ZM1616.13 5.0502C1615.86 5.0502 1615.63 4.97669 1615.44 4.82966C1615.25 4.68144 1615.1 4.46688 1615 4.18598C1614.9 3.90388 1614.85 3.5632 1614.85 3.16396C1614.85 2.76711 1614.9 2.42823 1615 2.14733C1615.1 1.86523 1615.25 1.65007 1615.44 1.50185C1615.63 1.35243 1615.86 1.27772 1616.13 1.27772C1616.39 1.27772 1616.62 1.35243 1616.81 1.50185C1617 1.65007 1617.15 1.86523 1617.25 2.14733C1617.35 2.42823 1617.4 2.76711 1617.4 3.16396C1617.4 3.5632 1617.35 3.90388 1617.25 4.18598C1617.15 4.46688 1617.01 4.68144 1616.82 4.82966C1616.63 4.97669 1616.4 5.0502 1616.13 5.0502ZM1616.13 4.65574C1616.39 4.65574 1616.6 4.52665 1616.75 4.26845C1616.9 4.01026 1616.97 3.6421 1616.97 3.16396C1616.97 2.846 1616.94 2.57526 1616.87 2.35173C1616.8 2.1282 1616.71 1.95787 1616.58 1.84072C1616.45 1.72358 1616.3 1.66501 1616.13 1.66501C1615.86 1.66501 1615.65 1.7959 1615.5 2.05768C1615.35 2.31826 1615.28 2.68702 1615.28 3.16396C1615.28 3.48192 1615.31 3.75207 1615.38 3.9744C1615.45 4.19673 1615.54 4.36587 1615.67 4.48182C1615.8 4.59777 1615.95 4.65574 1616.13 4.65574Z" fill="#1C1A17"/>
<path opacity="0.2" d="M376.347 1.32792V5H375.903V1.79411H375.881L374.985 2.38938V1.93755L375.903 1.32792H376.347ZM377.403 5V4.67726L378.616 3.35043C378.758 3.19504 378.875 3.05997 378.967 2.94522C379.059 2.82927 379.127 2.72049 379.171 2.61889C379.217 2.51609 379.239 2.40851 379.239 2.29615C379.239 2.16705 379.208 2.05529 379.146 1.96086C379.085 1.86642 379.002 1.79351 378.895 1.74211C378.789 1.69071 378.669 1.66501 378.537 1.66501C378.396 1.66501 378.272 1.6943 378.167 1.75287C378.063 1.81024 377.983 1.89093 377.925 1.99492C377.869 2.09892 377.841 2.22084 377.841 2.3607H377.418C377.418 2.14554 377.467 1.95667 377.567 1.79411C377.666 1.63154 377.801 1.50483 377.972 1.41399C378.144 1.32314 378.337 1.27772 378.551 1.27772C378.766 1.27772 378.957 1.32314 379.123 1.41399C379.289 1.50483 379.419 1.62736 379.514 1.78156C379.608 1.93575 379.655 2.10728 379.655 2.29615C379.655 2.43122 379.631 2.56331 379.582 2.6924C379.534 2.8203 379.45 2.96315 379.331 3.12093C379.213 3.27752 379.048 3.46877 378.838 3.69469L378.013 4.57685V4.60554H379.72V5H377.403ZM381.68 5.0502C381.529 5.04781 381.379 5.01913 381.228 4.96414C381.077 4.90915 380.94 4.81652 380.816 4.68622C380.691 4.55474 380.591 4.37723 380.516 4.1537C380.441 3.92898 380.403 3.64688 380.403 3.3074C380.403 2.98227 380.434 2.69419 380.495 2.44317C380.556 2.19096 380.644 1.97879 380.76 1.80666C380.876 1.63333 381.016 1.50185 381.18 1.4122C381.344 1.32255 381.53 1.27772 381.737 1.27772C381.943 1.27772 382.126 1.31896 382.286 1.40144C382.447 1.48272 382.579 1.59628 382.68 1.74211C382.782 1.88794 382.848 2.05589 382.877 2.24594H382.44C382.399 2.08099 382.32 1.94412 382.203 1.83535C382.086 1.72657 381.931 1.67218 381.737 1.67218C381.453 1.67218 381.229 1.7959 381.065 2.04333C380.902 2.29077 380.82 2.63801 380.819 3.08507H380.848C380.915 2.98347 380.994 2.8968 381.086 2.82508C381.18 2.75217 381.282 2.69599 381.395 2.65654C381.507 2.6171 381.626 2.59737 381.751 2.59737C381.962 2.59737 382.154 2.64997 382.329 2.75516C382.503 2.85915 382.643 3.00319 382.748 3.18727C382.854 3.37016 382.906 3.57994 382.906 3.81662C382.906 4.04373 382.855 4.25172 382.754 4.44058C382.652 4.62825 382.509 4.77767 382.325 4.88883C382.142 4.9988 381.927 5.05259 381.68 5.0502ZM381.68 4.65574C381.83 4.65574 381.965 4.61809 382.085 4.54278C382.206 4.46748 382.301 4.36647 382.37 4.23977C382.441 4.11306 382.476 3.97201 382.476 3.81662C382.476 3.66481 382.442 3.52675 382.374 3.40243C382.307 3.27692 382.214 3.17711 382.096 3.103C381.979 3.02889 381.845 2.99183 381.694 2.99183C381.581 2.99183 381.475 3.01455 381.377 3.05997C381.279 3.1042 381.193 3.16516 381.119 3.24285C381.046 3.32055 380.988 3.4096 380.946 3.51001C380.905 3.60923 380.884 3.71382 380.884 3.82379C380.884 3.96962 380.918 4.10589 380.986 4.23259C381.055 4.3593 381.15 4.4615 381.269 4.5392C381.39 4.61689 381.527 4.65574 381.68 4.65574ZM384.694 4.35452V1.98775H385.096V4.35452H384.694ZM383.712 3.37195V2.97032H386.078V3.37195H383.712ZM388.087 5.0502C387.877 5.0502 387.687 5.00837 387.519 4.92469C387.35 4.84102 387.215 4.72627 387.113 4.58044C387.012 4.43461 386.956 4.26845 386.947 4.08198H387.377C387.394 4.24813 387.469 4.3856 387.603 4.49437C387.738 4.60195 387.899 4.65574 388.087 4.65574C388.238 4.65574 388.372 4.62048 388.489 4.54996C388.607 4.47943 388.7 4.38261 388.767 4.25949C388.835 4.13517 388.869 3.99472 388.869 3.83813C388.869 3.67796 388.834 3.53511 388.763 3.4096C388.694 3.2829 388.598 3.18309 388.476 3.11017C388.354 3.03726 388.215 3.0002 388.058 2.99901C387.946 2.99781 387.831 3.01514 387.712 3.051C387.594 3.08567 387.497 3.13049 387.42 3.18548L387.004 3.13527L387.226 1.32792H389.134V1.72239H387.599L387.47 2.80536H387.492C387.567 2.74559 387.662 2.69599 387.775 2.65654C387.889 2.6171 388.007 2.59737 388.13 2.59737C388.355 2.59737 388.555 2.65116 388.731 2.75874C388.908 2.86513 389.046 3.01096 389.147 3.19624C389.248 3.38151 389.299 3.59309 389.299 3.83096C389.299 4.06525 389.247 4.27443 389.141 4.45851C389.037 4.6414 388.894 4.78603 388.711 4.89242C388.528 4.99761 388.32 5.0502 388.087 5.0502ZM390.011 5V4.67726L391.223 3.35043C391.366 3.19504 391.483 3.05997 391.575 2.94522C391.667 2.82927 391.735 2.72049 391.779 2.61889C391.825 2.51609 391.847 2.40851 391.847 2.29615C391.847 2.16705 391.816 2.05529 391.754 1.96086C391.693 1.86642 391.61 1.79351 391.503 1.74211C391.397 1.69071 391.277 1.66501 391.145 1.66501C391.004 1.66501 390.88 1.6943 390.775 1.75287C390.671 1.81024 390.591 1.89093 390.533 1.99492C390.477 2.09892 390.449 2.22084 390.449 2.3607H390.026C390.026 2.14554 390.075 1.95667 390.175 1.79411C390.274 1.63154 390.409 1.50483 390.58 1.41399C390.752 1.32314 390.945 1.27772 391.159 1.27772C391.374 1.27772 391.565 1.32314 391.731 1.41399C391.897 1.50483 392.027 1.62736 392.122 1.78156C392.216 1.93575 392.263 2.10728 392.263 2.29615C392.263 2.43122 392.239 2.56331 392.19 2.6924C392.142 2.8203 392.058 2.96315 391.939 3.12093C391.821 3.27752 391.656 3.46877 391.446 3.69469L390.621 4.57685V4.60554H392.328V5H390.011Z" fill="#1C1A17"/>
<path opacity="0.2" d="M1357.14 1.32792V5H1356.7V1.79411H1356.67L1355.78 2.38938V1.93755L1356.7 1.32792H1357.14ZM1358.2 5V4.67726L1359.41 3.35043C1359.55 3.19504 1359.67 3.05997 1359.76 2.94522C1359.85 2.82927 1359.92 2.72049 1359.96 2.61889C1360.01 2.51609 1360.03 2.40851 1360.03 2.29615C1360.03 2.16705 1360 2.05529 1359.94 1.96086C1359.88 1.86642 1359.79 1.79351 1359.69 1.74211C1359.58 1.69071 1359.46 1.66501 1359.33 1.66501C1359.19 1.66501 1359.06 1.6943 1358.96 1.75287C1358.86 1.81024 1358.78 1.89093 1358.72 1.99492C1358.66 2.09892 1358.63 2.22084 1358.63 2.3607H1358.21C1358.21 2.14554 1358.26 1.95667 1358.36 1.79411C1358.46 1.63154 1358.59 1.50483 1358.76 1.41399C1358.94 1.32314 1359.13 1.27772 1359.34 1.27772C1359.56 1.27772 1359.75 1.32314 1359.92 1.41399C1360.08 1.50483 1360.21 1.62736 1360.31 1.78156C1360.4 1.93575 1360.45 2.10728 1360.45 2.29615C1360.45 2.43122 1360.42 2.56331 1360.37 2.6924C1360.33 2.8203 1360.24 2.96315 1360.12 3.12093C1360.01 3.27752 1359.84 3.46877 1359.63 3.69469L1358.81 4.57685V4.60554H1360.51V5H1358.2ZM1362.47 5.0502C1362.32 5.04781 1362.17 5.01913 1362.02 4.96414C1361.87 4.90915 1361.73 4.81652 1361.61 4.68622C1361.48 4.55474 1361.38 4.37723 1361.31 4.1537C1361.23 3.92898 1361.2 3.64688 1361.2 3.3074C1361.2 2.98227 1361.23 2.69419 1361.29 2.44317C1361.35 2.19096 1361.44 1.97879 1361.55 1.80666C1361.67 1.63333 1361.81 1.50185 1361.97 1.4122C1362.14 1.32255 1362.32 1.27772 1362.53 1.27772C1362.74 1.27772 1362.92 1.31896 1363.08 1.40144C1363.24 1.48272 1363.37 1.59628 1363.47 1.74211C1363.57 1.88794 1363.64 2.05589 1363.67 2.24594H1363.23C1363.19 2.08099 1363.11 1.94412 1363 1.83535C1362.88 1.72657 1362.72 1.67218 1362.53 1.67218C1362.25 1.67218 1362.02 1.7959 1361.86 2.04333C1361.69 2.29077 1361.61 2.63801 1361.61 3.08507H1361.64C1361.71 2.98347 1361.79 2.8968 1361.88 2.82508C1361.97 2.75217 1362.07 2.69599 1362.19 2.65654C1362.3 2.6171 1362.42 2.59737 1362.54 2.59737C1362.75 2.59737 1362.95 2.64997 1363.12 2.75516C1363.3 2.85915 1363.44 3.00319 1363.54 3.18727C1363.65 3.37016 1363.7 3.57994 1363.7 3.81662C1363.7 4.04373 1363.65 4.25172 1363.55 4.44058C1363.44 4.62825 1363.3 4.77767 1363.12 4.88883C1362.93 4.9988 1362.72 5.05259 1362.47 5.0502ZM1362.47 4.65574C1362.62 4.65574 1362.76 4.61809 1362.88 4.54278C1363 4.46748 1363.09 4.36647 1363.16 4.23977C1363.23 4.11306 1363.27 3.97201 1363.27 3.81662C1363.27 3.66481 1363.23 3.52675 1363.17 3.40243C1363.1 3.27692 1363.01 3.17711 1362.89 3.103C1362.77 3.02889 1362.64 2.99183 1362.49 2.99183C1362.37 2.99183 1362.27 3.01455 1362.17 3.05997C1362.07 3.1042 1361.99 3.16516 1361.91 3.24285C1361.84 3.32055 1361.78 3.4096 1361.74 3.51001C1361.7 3.60923 1361.68 3.71382 1361.68 3.82379C1361.68 3.96962 1361.71 4.10589 1361.78 4.23259C1361.85 4.3593 1361.94 4.4615 1362.06 4.5392C1362.18 4.61689 1362.32 4.65574 1362.47 4.65574ZM1365.49 4.35452V1.98775H1365.89V4.35452H1365.49ZM1364.5 3.37195V2.97032H1366.87V3.37195H1364.5ZM1368.88 5.0502C1368.67 5.0502 1368.48 5.00837 1368.31 4.92469C1368.14 4.84102 1368.01 4.72627 1367.91 4.58044C1367.8 4.43461 1367.75 4.26845 1367.74 4.08198H1368.17C1368.19 4.24813 1368.26 4.3856 1368.4 4.49437C1368.53 4.60195 1368.69 4.65574 1368.88 4.65574C1369.03 4.65574 1369.16 4.62048 1369.28 4.54996C1369.4 4.47943 1369.49 4.38261 1369.56 4.25949C1369.63 4.13517 1369.66 3.99472 1369.66 3.83813C1369.66 3.67796 1369.63 3.53511 1369.56 3.4096C1369.49 3.2829 1369.39 3.18309 1369.27 3.11017C1369.15 3.03726 1369.01 3.0002 1368.85 2.99901C1368.74 2.99781 1368.62 3.01514 1368.5 3.051C1368.39 3.08567 1368.29 3.13049 1368.21 3.18548L1367.8 3.13527L1368.02 1.32792H1369.93V1.72239H1368.39L1368.26 2.80536H1368.28C1368.36 2.74559 1368.45 2.69599 1368.57 2.65654C1368.68 2.6171 1368.8 2.59737 1368.92 2.59737C1369.15 2.59737 1369.35 2.65116 1369.52 2.75874C1369.7 2.86513 1369.84 3.01096 1369.94 3.19624C1370.04 3.38151 1370.09 3.59309 1370.09 3.83096C1370.09 4.06525 1370.04 4.27443 1369.93 4.45851C1369.83 4.6414 1369.69 4.78603 1369.5 4.89242C1369.32 4.99761 1369.11 5.0502 1368.88 5.0502ZM1370.8 5V4.67726L1372.02 3.35043C1372.16 3.19504 1372.28 3.05997 1372.37 2.94522C1372.46 2.82927 1372.53 2.72049 1372.57 2.61889C1372.62 2.51609 1372.64 2.40851 1372.64 2.29615C1372.64 2.16705 1372.61 2.05529 1372.55 1.96086C1372.49 1.86642 1372.4 1.79351 1372.3 1.74211C1372.19 1.69071 1372.07 1.66501 1371.94 1.66501C1371.8 1.66501 1371.67 1.6943 1371.57 1.75287C1371.46 1.81024 1371.38 1.89093 1371.33 1.99492C1371.27 2.09892 1371.24 2.22084 1371.24 2.3607H1370.82C1370.82 2.14554 1370.87 1.95667 1370.97 1.79411C1371.07 1.63154 1371.2 1.50483 1371.37 1.41399C1371.54 1.32314 1371.74 1.27772 1371.95 1.27772C1372.17 1.27772 1372.36 1.32314 1372.52 1.41399C1372.69 1.50483 1372.82 1.62736 1372.91 1.78156C1373.01 1.93575 1373.06 2.10728 1373.06 2.29615C1373.06 2.43122 1373.03 2.56331 1372.98 2.6924C1372.93 2.8203 1372.85 2.96315 1372.73 3.12093C1372.61 3.27752 1372.45 3.46877 1372.24 3.69469L1371.41 4.57685V4.60554H1373.12V5H1370.8Z" fill="#1C1A17"/>
<path opacity="0.5" d="M825.309 151.052H847.188V172.932H825.309V151.052Z" fill="#FC9E00"/>
<path opacity="0.5" d="M878.324 151.052H900.204V172.932H878.324V151.052Z" fill="#FC9E00"/>
<path opacity="0.5" d="M1054.2 151.052H1076.08V172.932H1054.2V151.052Z" fill="#FC9E00"/>
<path opacity="0.1" d="M1249.22 202.385L1129.52 131.277" stroke="#1C1A17" stroke-width="0.210379"/>
<path opacity="0.1" d="M1510.3 209.099L1616.77 119.706" stroke="#1C1A17" stroke-width="0.210379"/>
<path opacity="0.1" d="M1580.99 161.763L1687.45 72.3706" stroke="#1C1A17" stroke-width="0.210379"/>
<path opacity="0.1" d="M1249.22 60.1684L1129.52 131.277" stroke="#1C1A17" stroke-width="0.210379"/>
<path opacity="0.1" d="M1523.77 60.1684L1643.47 131.277" stroke="#1C1A17" stroke-width="0.210379"/>
</svg>
