<svg width="138" height="68" viewBox="0 0 138 68" fill="none" xmlns="http://www.w3.org/2000/svg">
<path opacity="0.1" d="M115.16 67.9047C106.042 67.9047 96.9529 65.3649 91.1577 57.9175L98.594 51.6403C102.965 56.4192 108.808 58.7927 115.258 58.7927C119.422 58.7927 125.649 57.729 125.649 52.4241C125.649 48.5631 121.848 47.7246 118.689 47.2312C113.905 46.4822 109.04 45.9387 104.377 44.5858C98.2289 42.5373 94.0849 37.9102 94.0849 31.3587C94.0849 19.1352 105.849 14.9963 116.337 14.9963C124.002 14.9963 131.328 16.3828 137.405 23.8809L129.898 30.085C126.119 25.9652 121.427 24.1083 115.944 24.1083C109.54 24.1083 106.338 26.1006 106.338 30.085C106.338 37.9938 122.562 36.4376 127.609 38.1193C133.798 39.9151 138 44.6819 138 51.1504C138 63.5677 125.755 67.9047 115.16 67.9047Z" fill="#1C1A17"/>
<path opacity="0.1" d="M79.8249 16.2218L79.8249 58.0093L88.6299 58.0093L88.6299 66.775L67.3991 66.775L67.3991 58.0093L66.7252 58.0093C64.1989 64.2698 58.8212 67.9507 52.0863 67.9507C47.1377 67.9507 43.1332 66.2852 40.0728 62.9541C36.9473 59.6884 35.3846 54.9858 35.3846 48.8463L35.3846 16.2218L47.8865 16.2218L47.8865 47.0828C47.8865 54.398 51.0445 58.0556 57.3606 58.0556C62.1479 58.0556 67.3991 55.381 67.3991 50.0219L67.3991 16.2218L79.8249 16.2218Z" fill="#1C1A17"/>
<path opacity="0.1" d="M0 57.9354H8.69768L8.69768 24.9187L0 24.9187L0 16.1758H21.2511L21.2511 57.9354H29.9926V66.7252L0 66.7252L0 57.9354Z" fill="#1C1A17"/>
<path d="M47.8534 0L0 0L0 8.76189L47.8534 8.76189V0Z" fill="#1C1A17"/>
</svg>
