<svg width="845" height="212" viewBox="0 0 845 212" fill="none" xmlns="http://www.w3.org/2000/svg">
<g clip-path="url(#clip0_16_1958)">
<path d="M743.285 141.125C731.132 141.125 719.015 137.738 711.292 127.808L721.203 119.438C727.031 125.81 734.818 128.975 743.415 128.975C748.965 128.975 757.266 127.557 757.266 120.483C757.266 115.335 752.199 114.216 747.988 113.558C741.612 112.56 735.128 111.835 728.913 110.031C720.718 107.3 715.193 101.13 715.193 92.3939C715.193 76.0949 730.874 70.5762 744.853 70.5762C755.072 70.5762 764.835 72.4248 772.936 82.4229L762.928 90.6956C757.892 85.2022 751.638 82.7263 744.329 82.7263C735.795 82.7263 731.525 85.3826 731.525 90.6956C731.525 101.241 753.151 99.1663 759.878 101.409C768.127 103.803 773.729 110.159 773.729 118.784C773.729 135.342 757.407 141.125 743.285 141.125Z" fill="#1C1A17"/>
<path d="M696.186 72.21V127.93L707.923 127.93V139.618H679.624V127.93H678.726C675.359 136.278 668.19 141.186 659.213 141.186C652.617 141.186 647.28 138.965 643.199 134.524C639.033 130.169 636.951 123.898 636.951 115.712V72.21L653.616 72.21V113.36C653.616 123.115 657.825 127.992 666.243 127.992C672.623 127.992 679.624 124.425 679.624 117.28V72.21L696.186 72.21Z" fill="#1C1A17"/>
<path d="M589.786 127.832H601.38V83.8072H589.786V72.1494H618.112V127.832H629.764V139.553H589.786V127.832Z" fill="#1C1A17"/>
<path d="M653.571 50.5801L589.786 50.5801V62.2633L653.571 62.2633V50.5801Z" fill="#1C1A17"/>
<path d="M553.858 139.552C542.768 139.552 535.192 132.647 535.192 121.297V83.8323H522.857V72.1491H528.969C534 72.1491 536.358 69.9146 536.358 64.8359V50.5801L551.783 50.5801V72.1491L578.107 72.1491V83.8323H551.783V127.869L578.107 127.869V139.552H553.858Z" fill="#1C1A17"/>
<path d="M489.281 141.186C475.52 141.186 463.369 133.886 458.588 120.544C455.484 111.374 455.484 100.45 458.588 91.2797C463.297 78.1383 475.217 70.6377 489.15 70.6377C500.926 70.6377 512.072 75.4736 517.13 86.4163L504.89 93.8307C502.532 87.7644 495.715 84.2248 489.15 84.2248C476.301 84.2248 472.995 95.4034 472.995 105.626C472.995 115.902 477.337 127.599 489.411 127.599C496.452 127.599 501.728 123.805 504.757 117.539L517.243 124.986C512.021 136.081 501.146 141.186 489.281 141.186Z" fill="#1C1A17"/>
<path d="M258.53 131.274C249.108 121.02 247.769 104.036 252.147 91.2217C258.411 73.9083 278.286 66.0721 295.263 73.2049C303.063 76.3095 308.77 82.7763 311.546 90.5735C313.765 96.807 313.761 103.248 313.761 109.757H266.606C266.606 119.598 272.117 127.708 282.633 127.955C290 128.129 297.943 124.292 302.167 118.442L311.676 127.904C309.244 131.447 305.684 134.471 300.995 136.977C288.131 143.981 268.824 142.138 258.53 131.274ZM266.606 99.9062H297.087C297.087 90.9025 292.518 82.9053 282.633 82.848C272.626 82.7903 266.606 90.5214 266.606 99.9062Z" fill="#1C1A17"/>
<path d="M219.662 139.552C208.571 139.552 200.995 132.647 200.995 121.297V83.8323H188.662V72.1491H194.773C199.804 72.1491 202.162 69.9146 202.162 64.8359V50.5801L217.588 50.5801V72.1491L243.912 72.1491V83.8323H217.588V127.869L243.912 127.869V139.552H219.662Z" fill="#1C1A17"/>
<path d="M122.239 139.552L122.239 83.8321H110.503V72.1438H138.802V83.8321H139.7C143.067 75.4842 150.235 70.5762 159.212 70.5762C165.809 70.5762 171.146 72.797 175.225 77.2385C179.391 81.5932 181.474 87.8637 181.474 96.0503V139.552H164.81V98.4018C164.81 88.6474 160.601 83.7703 152.182 83.7703C145.801 83.7703 138.802 87.3366 138.802 94.4825V139.552H122.239Z" fill="#1C1A17"/>
<path d="M70.5254 127.832H82.1187L82.1187 83.8072H70.5254V72.1494H98.8514L98.8514 127.832H110.503L110.503 139.553H70.5254V127.832Z" fill="#1C1A17"/>
<path d="M98.8242 50.5801L70.5254 50.5801V62.2633L98.8242 62.2633V50.5801Z" fill="#1C1A17"/>
<path d="M444.845 139.392C434.614 139.392 429.976 135.241 429.042 127.811H428.079C425.278 136.906 417.626 140.952 408.658 140.952C396.377 140.952 386.529 133.593 386.529 120.8C386.529 107.278 396.465 100.517 416.337 100.517H428.079C428.079 95.7222 428.66 90.2223 425.058 86.4754C417.446 78.5566 403.257 84.5427 397.983 92.066L388.516 83.8747C393.875 74.2837 405.916 70.4292 416.337 70.4034C431.845 70.3651 444.699 78.9635 444.699 95.3164V127.699L456.377 127.699V139.392H444.845ZM414.255 129.51C420.604 129.51 428.079 126.459 428.079 119.109V110.138H416.728C407.616 110.138 403.061 112.998 403.061 118.719C403.061 125.7 406.848 129.51 414.255 129.51Z" fill="#1C1A17"/>
<path d="M322.52 127.869H334.198V83.8072H322.52V72.1494H350.818V83.8326H351.717C355.016 76.1936 363.041 72.1494 374.508 72.1494H381.812V86.4764C381.812 86.4764 377.451 86.4764 367.989 86.4764C358.526 86.4764 350.818 92.4402 350.818 102.239V127.826L362.497 127.869V139.553H322.52V127.869Z" fill="#1C1A17"/>
</g>
<rect opacity="0.2" x="0.622559" y="0.5" width="843.009" height="210.752" stroke="#1C1A17"/>
<path opacity="0.1" d="M445.015 209.706C434.777 209.706 430.135 205.593 429.2 198.231H428.236C425.433 207.243 417.775 211.252 408.8 211.252C396.51 211.252 386.654 203.96 386.654 191.284C386.654 177.886 396.598 171.187 416.485 171.187H428.236C428.236 166.436 428.818 160.986 425.213 157.274C417.595 149.427 403.395 155.359 398.117 162.813L388.643 154.697C394.006 145.194 406.056 141.374 416.485 141.349C432.005 141.311 444.869 149.83 444.869 166.034V198.12H456.557V209.706H445.015ZM414.401 199.915C420.756 199.915 428.236 196.891 428.236 189.609V180.72H416.876C407.757 180.72 403.199 183.554 403.199 189.222C403.199 196.139 406.989 199.915 414.401 199.915Z" fill="#1C1A17"/>
<path opacity="0.1" d="M445.015 68.8571C434.777 68.8571 430.135 64.7442 429.2 57.3823H428.236C425.433 66.394 417.775 70.403 408.8 70.403C396.51 70.403 386.654 63.1117 386.654 50.435C386.654 37.0372 396.598 30.3381 416.485 30.3381L428.236 30.3381C428.236 25.5872 428.818 20.1376 425.213 16.425C417.595 8.57868 403.395 14.51 398.117 21.9644L388.643 13.8481C394.006 4.34488 406.056 0.525639 416.485 0.500126C432.005 0.462147 444.869 8.98185 444.869 25.1851V57.2715L456.557 57.2715V68.8571H445.015ZM414.401 59.0662C420.756 59.0662 428.236 56.0428 428.236 48.7602V39.8712H416.876C407.757 39.8712 403.199 42.7054 403.199 48.3737C403.199 55.2904 406.989 59.0662 414.401 59.0662Z" fill="#1C1A17"/>
<path opacity="0.1" d="M58.9837 139.803C48.7455 139.803 44.104 135.69 43.169 128.329H42.2047C39.4019 137.34 31.744 141.349 22.769 141.349C10.4787 141.349 0.622559 134.058 0.622559 121.381C0.622559 107.984 10.5663 101.284 30.4538 101.284H42.2047C42.2047 96.5334 42.7869 91.0839 39.1816 87.3713C31.5642 79.525 17.3633 85.4563 12.0857 92.9107L2.61175 84.7944C7.97473 75.2912 20.0246 71.4719 30.4538 71.4464C45.9741 71.4084 58.8376 79.9281 58.8376 96.1314V128.218H70.5256V139.803H58.9837ZM28.3702 130.013C34.7244 130.013 42.2047 126.989 42.2047 119.707V110.817H30.8449C21.7261 110.817 17.1678 113.652 17.1678 119.32C17.1678 126.237 20.9573 130.013 28.3702 130.013Z" fill="#1C1A17"/>
<path opacity="0.1" d="M832.091 139.803C821.852 139.803 817.211 135.69 816.276 128.329H815.312C812.509 137.34 804.851 141.349 795.876 141.349C783.586 141.349 773.729 134.058 773.729 121.381C773.729 107.984 783.673 101.284 803.561 101.284H815.312C815.312 96.5334 815.894 91.0839 812.289 87.3713C804.671 79.525 790.47 85.4563 785.193 92.9107L775.719 84.7944C781.082 75.2912 793.131 71.4719 803.561 71.4464C819.081 71.4084 831.945 79.9281 831.945 96.1314V128.218H843.632V139.803H832.091ZM801.477 130.013C807.831 130.013 815.312 126.989 815.312 119.707V110.817H803.952C794.833 110.817 790.275 113.652 790.275 119.32C790.275 126.237 794.064 130.013 801.477 130.013Z" fill="#1C1A17"/>
<path opacity="0.1" d="M0 50.3086H843.632" stroke="#1C1A17" stroke-width="0.5"/>
<path opacity="0.1" d="M421.504 210.941L421.504 0.500408" stroke="#1C1A17" stroke-width="0.5"/>
<path opacity="0.1" d="M773.9 210.941L773.9 0.500408" stroke="#1C1A17" stroke-width="0.5"/>
<path opacity="0.1" d="M70.3545 210.941L70.3545 0.500408" stroke="#1C1A17" stroke-width="0.5"/>
<path opacity="0.1" d="M0 139.964H843.632" stroke="#1C1A17" stroke-width="0.5"/>
<defs>
<clipPath id="clip0_16_1958">
<rect width="703.203" height="90.7695" fill="white" transform="translate(70.5254 50.5801)"/>
</clipPath>
</defs>
</svg>
