<?xml version="1.0" encoding="UTF-8"?>
<svg xmlns="http://www.w3.org/2000/svg" viewBox="0 0 600 600" width="600" height="600" role="img" aria-label="Interactius shape · polygon (Strategic thinking)">
  <title>Interactius shape · polygon (Strategic thinking)</title>
  <defs>
    <linearGradient id="grad-polygon" gradientUnits="userSpaceOnUse" x1="0" y1="0" x2="600" y2="600">
      <stop offset="0" stop-color="#B0B5B0"/>
      <stop offset="1" stop-color="#F5F2ED"/>
    </linearGradient>
  </defs>
  <g fill="none" stroke="url(#grad-polygon)" stroke-width="4" stroke-linecap="round" stroke-dasharray="0 8">
  <polyline points="300.00,15.00 307.71,28.36 315.43,41.72 323.14,55.08 330.85,68.44 338.57,81.80 346.28,95.16 353.99,108.52 361.70,121.87 369.42,135.23 377.13,148.59 384.84,161.95 392.56,175.31 400.27,188.67 407.98,202.03 415.70,215.39 423.41,228.75 431.12,242.11 438.83,255.47 446.55,268.83 454.26,282.19 461.97,295.55 469.69,308.91 477.40,322.27 485.11,335.62 492.83,348.98 500.54,362.34 508.25,375.70 515.97,389.06 523.68,402.42 531.39,415.78 539.10,429.14 546.82,442.50 531.39,442.50 515.97,442.50 500.54,442.50 485.11,442.50 469.69,442.50 454.26,442.50 438.83,442.50 423.41,442.50 407.98,442.50 392.56,442.50 377.13,442.50 361.70,442.50 346.28,442.50 330.85,442.50 315.43,442.50 300.00,442.50 284.57,442.50 269.15,442.50 253.72,442.50 238.30,442.50 222.87,442.50 207.44,442.50 192.02,442.50 176.59,442.50 161.17,442.50 145.74,442.50 130.31,442.50 114.89,442.50 99.46,442.50 84.03,442.50 68.61,442.50 53.18,442.50 60.90,429.14 68.61,415.78 76.32,402.42 84.03,389.06 91.75,375.70 99.46,362.34 107.17,348.98 114.89,335.63 122.60,322.27 130.31,308.91 138.03,295.55 145.74,282.19 153.45,268.83 161.17,255.47 168.88,242.11 176.59,228.75 184.30,215.39 192.02,202.03 199.73,188.67 207.44,175.31 215.16,161.95 222.87,148.59 230.58,135.23 238.30,121.88 246.01,108.52 253.72,95.16 261.43,81.80 269.15,68.44 276.86,55.08 284.57,41.72 292.29,28.36"/>
  <polyline points="313.78,24.67 320.58,37.95 327.39,51.23 334.19,64.51 341.00,77.79 347.81,91.07 354.61,104.35 361.42,117.62 368.22,130.90 375.03,144.18 381.83,157.46 388.64,170.74 395.44,184.02 402.25,197.30 409.05,210.58 415.86,223.86 422.67,237.13 429.47,250.41 436.28,263.69 443.08,276.97 449.89,290.25 456.69,303.53 463.50,316.81 470.30,330.09 477.11,343.37 483.91,356.64 490.72,369.92 497.53,383.20 504.33,396.48 511.14,409.76 517.94,423.04 524.75,436.32 531.55,449.60 516.65,448.85 501.75,448.10 486.84,447.36 471.94,446.61 457.04,445.87 442.14,445.12 427.23,444.38 412.33,443.63 397.43,442.88 382.53,442.14 367.62,441.39 352.72,440.65 337.82,439.90 322.92,439.16 308.01,438.41 293.11,437.66 278.21,436.92 263.31,436.17 248.40,435.43 233.50,434.68 218.60,433.94 203.70,433.19 188.79,432.44 173.89,431.70 158.99,430.95 144.09,430.21 129.18,429.46 114.28,428.72 99.38,427.97 84.47,427.22 69.57,426.48 54.67,425.73 62.77,413.20 70.86,400.67 78.96,388.13 87.06,375.60 95.16,363.07 103.25,350.53 111.35,338.00 119.45,325.47 127.54,312.93 135.64,300.40 143.74,287.87 151.84,275.33 159.93,262.80 168.03,250.27 176.13,237.74 184.22,225.20 192.32,212.67 200.42,200.14 208.52,187.60 216.61,175.07 224.71,162.54 232.81,150.00 240.90,137.47 249.00,124.94 257.10,112.40 265.20,99.87 273.29,87.34 281.39,74.80 289.49,62.27 297.58,49.74 305.68,37.20"/>
  <polyline points="326.59,34.99 332.52,48.13 338.44,61.27 344.37,74.41 350.29,87.55 356.22,100.70 362.14,113.84 368.07,126.98 374.00,140.12 379.92,153.26 385.85,166.41 391.77,179.55 397.70,192.69 403.63,205.83 409.55,218.98 415.48,232.12 421.40,245.26 427.33,258.40 433.25,271.54 439.18,284.69 445.11,297.83 451.03,310.97 456.96,324.11 462.88,337.26 468.81,350.40 474.73,363.54 480.66,376.68 486.59,389.82 492.51,402.97 498.44,416.11 504.36,429.25 510.29,442.39 516.21,455.54 501.87,454.10 487.53,452.66 473.18,451.22 458.84,449.78 444.49,448.34 430.15,446.90 415.80,445.46 401.46,444.02 387.12,442.58 372.77,441.14 358.43,439.70 344.08,438.26 329.74,436.83 315.39,435.39 301.05,433.95 286.70,432.51 272.36,431.07 258.02,429.63 243.67,428.19 229.33,426.75 214.98,425.31 200.64,423.87 186.29,422.43 171.95,420.99 157.61,419.55 143.26,418.12 128.92,416.68 114.57,415.24 100.23,413.80 85.88,412.36 71.54,410.92 57.20,409.48 65.61,397.78 74.03,386.07 82.45,374.37 90.87,362.67 99.29,350.96 107.71,339.26 116.13,327.56 124.54,315.86 132.96,304.15 141.38,292.45 149.80,280.75 158.22,269.04 166.64,257.34 175.06,245.64 183.47,233.94 191.89,222.23 200.31,210.53 208.73,198.83 217.15,187.12 225.57,175.42 233.99,163.72 242.40,152.01 250.82,140.31 259.24,128.61 267.66,116.91 276.08,105.20 284.50,93.50 292.92,81.80 301.33,70.09 309.75,58.39 318.17,46.69"/>
  <polyline points="338.41,45.87 343.49,58.82 348.56,71.77 353.64,84.72 358.72,97.68 363.79,110.63 368.87,123.58 373.95,136.53 379.03,149.48 384.10,162.43 389.18,175.39 394.26,188.34 399.34,201.29 404.41,214.24 409.49,227.19 414.57,240.15 419.64,253.10 424.72,266.05 429.80,279.00 434.88,291.95 439.95,304.91 445.03,317.86 450.11,330.81 455.19,343.76 460.26,356.71 465.34,369.67 470.42,382.62 475.49,395.57 480.57,408.52 485.65,421.47 490.73,434.42 495.80,447.38 500.88,460.33 487.13,458.25 473.37,456.17 459.61,454.09 445.86,452.01 432.10,449.93 418.35,447.86 404.59,445.78 390.84,443.70 377.08,441.62 363.33,439.54 349.57,437.46 335.82,435.38 322.06,433.30 308.31,431.22 294.55,429.14 280.80,427.07 267.04,424.99 253.29,422.91 239.53,420.83 225.77,418.75 212.02,416.67 198.26,414.59 184.51,412.51 170.75,410.43 157.00,408.36 143.24,406.28 129.49,404.20 115.73,402.12 101.98,400.04 88.22,397.96 74.47,395.88 60.71,393.80 69.39,382.93 78.07,372.06 86.75,361.18 95.42,350.31 104.10,339.44 112.78,328.57 121.46,317.69 130.14,306.82 138.81,295.95 147.49,285.07 156.17,274.20 164.85,263.33 173.53,252.45 182.20,241.58 190.88,230.71 199.56,219.84 208.24,208.96 216.92,198.09 225.59,187.22 234.27,176.34 242.95,165.47 251.63,154.60 260.31,143.72 268.98,132.85 277.66,121.98 286.34,111.11 295.02,100.23 303.70,89.36 312.37,78.49 321.05,67.61 329.73,56.74"/>
  <polyline points="349.21,57.25 353.47,69.96 357.73,82.67 362.00,95.38 366.26,108.09 370.52,120.80 374.79,133.51 379.05,146.22 383.31,158.93 387.58,171.64 391.84,184.35 396.10,197.07 400.37,209.78 404.63,222.49 408.89,235.20 413.15,247.91 417.42,260.62 421.68,273.33 425.94,286.04 430.21,298.75 434.47,311.46 438.73,324.17 443.00,336.88 447.26,349.60 451.52,362.31 455.79,375.02 460.05,387.73 464.31,400.44 468.57,413.15 472.84,425.86 477.10,438.57 481.36,451.28 485.63,463.99 472.49,461.33 459.35,458.67 446.21,456.00 433.07,453.34 419.93,450.68 406.79,448.01 393.65,445.35 380.51,442.68 367.37,440.02 354.23,437.36 341.09,434.69 327.95,432.03 314.81,429.37 301.67,426.70 288.54,424.04 275.40,421.38 262.26,418.71 249.12,416.05 235.98,413.39 222.84,410.72 209.70,408.06 196.56,405.40 183.42,402.73 170.28,400.07 157.14,397.41 144.00,394.74 130.86,392.08 117.72,389.41 104.58,386.75 91.44,384.09 78.30,381.42 65.16,378.76 74.04,368.71 82.92,358.67 91.79,348.62 100.67,338.57 109.55,328.52 118.42,318.48 127.30,308.43 136.18,298.38 145.05,288.33 153.93,278.29 162.80,268.24 171.68,258.19 180.56,248.15 189.43,238.10 198.31,228.05 207.19,218.00 216.06,207.96 224.94,197.91 233.82,187.86 242.69,177.81 251.57,167.77 260.44,157.72 269.32,147.67 278.20,137.63 287.07,127.58 295.95,117.53 304.83,107.48 313.70,97.44 322.58,87.39 331.46,77.34 340.33,67.29"/>
  <polyline points="358.97,69.05 362.46,81.47 365.94,93.89 369.43,106.31 372.92,118.73 376.40,131.16 379.89,143.58 383.37,156.00 386.86,168.42 390.35,180.84 393.83,193.27 397.32,205.69 400.80,218.11 404.29,230.53 407.78,242.95 411.26,255.38 414.75,267.80 418.23,280.22 421.72,292.64 425.21,305.06 428.69,317.48 432.18,329.91 435.67,342.33 439.15,354.75 442.64,367.17 446.12,379.59 449.61,392.02 453.10,404.44 456.58,416.86 460.07,429.28 463.55,441.70 467.04,454.13 470.53,466.55 458.02,463.36 445.52,460.16 433.02,456.97 420.52,453.78 408.02,450.59 395.52,447.40 383.02,444.20 370.52,441.01 358.02,437.82 345.52,434.63 333.02,431.44 320.52,428.24 308.02,425.05 295.52,421.86 283.01,418.67 270.51,415.48 258.01,412.28 245.51,409.09 233.01,405.90 220.51,402.71 208.01,399.52 195.51,396.32 183.01,393.13 170.51,389.94 158.01,386.75 145.51,383.56 133.01,380.37 120.51,377.17 108.00,373.98 95.50,370.79 83.00,367.60 70.50,364.41 79.52,355.18 88.53,345.95 97.55,336.72 106.56,327.49 115.58,318.26 124.59,309.03 133.61,299.80 142.62,290.57 151.63,281.34 160.65,272.11 169.66,262.88 178.68,253.65 187.69,244.42 196.71,235.19 205.72,225.96 214.74,216.73 223.75,207.50 232.77,198.27 241.78,189.04 250.80,179.81 259.81,170.58 268.83,161.35 277.84,152.12 286.85,142.89 295.87,133.66 304.88,124.43 313.90,115.20 322.91,105.97 331.93,96.74 340.94,87.51 349.96,78.28"/>
  <polyline points="367.68,81.19 370.43,93.28 373.18,105.37 375.93,117.46 378.68,129.55 381.43,141.63 384.18,153.72 386.93,165.81 389.68,177.90 392.43,189.99 395.17,202.08 397.92,214.16 400.67,226.25 403.42,238.34 406.17,250.43 408.92,262.52 411.67,274.61 414.42,286.70 417.17,298.78 419.91,310.87 422.66,322.96 425.41,335.05 428.16,347.14 430.91,359.23 433.66,371.31 436.41,383.40 439.16,395.49 441.91,407.58 444.65,419.67 447.40,431.76 450.15,443.84 452.90,455.93 455.65,468.02 443.81,464.36 431.96,460.69 420.12,457.03 408.28,453.37 396.43,449.70 384.59,446.04 372.75,442.38 360.90,438.71 349.06,435.05 337.22,431.38 325.37,427.72 313.53,424.06 301.69,420.39 289.84,416.73 278.00,413.07 266.16,409.40 254.31,405.74 242.47,402.08 230.63,398.41 218.78,394.75 206.94,391.09 195.10,387.42 183.25,383.76 171.41,380.09 159.57,376.43 147.72,372.77 135.88,369.10 124.04,365.44 112.20,361.78 100.35,358.11 88.51,354.45 76.67,350.79 85.76,342.36 94.85,333.94 103.95,325.51 113.04,317.09 122.14,308.66 131.23,300.24 140.33,291.81 149.42,283.39 158.51,274.96 167.61,266.54 176.70,258.11 185.80,249.69 194.89,241.26 203.99,232.84 213.08,224.41 222.18,215.99 231.27,207.57 240.36,199.14 249.46,190.72 258.55,182.29 267.65,173.87 276.74,165.44 285.84,157.02 294.93,148.59 304.02,140.17 313.12,131.74 322.21,123.32 331.31,114.89 340.40,106.47 349.50,98.04 358.59,89.62"/>
  <polyline points="375.34,93.61 377.39,105.32 379.45,117.04 381.50,128.75 383.55,140.46 385.61,152.18 387.66,163.89 389.72,175.60 391.77,187.32 393.82,199.03 395.88,210.74 397.93,222.46 399.99,234.17 402.04,245.88 404.10,257.60 406.15,269.31 408.20,281.03 410.26,292.74 412.31,304.45 414.37,316.17 416.42,327.88 418.47,339.59 420.53,351.31 422.58,363.02 424.64,374.73 426.69,386.45 428.74,398.16 430.80,409.87 432.85,421.59 434.91,433.30 436.96,445.01 439.01,456.73 441.07,468.44 429.90,464.36 418.73,460.28 407.56,456.21 396.38,452.13 385.21,448.05 374.04,443.97 362.87,439.89 351.70,435.82 340.53,431.74 329.36,427.66 318.19,423.58 307.02,419.51 295.84,415.43 284.67,411.35 273.50,407.27 262.33,403.19 251.16,399.12 239.99,395.04 228.82,390.96 217.65,386.88 206.48,382.81 195.30,378.73 184.13,374.65 172.96,370.57 161.79,366.49 150.62,362.42 139.45,358.34 128.28,354.26 117.11,350.18 105.94,346.11 94.76,342.03 83.59,337.95 92.71,330.31 101.83,322.68 110.94,315.04 120.06,307.41 129.18,299.77 138.30,292.14 147.41,284.50 156.53,276.87 165.65,269.23 174.76,261.59 183.88,253.96 193.00,246.32 202.11,238.69 211.23,231.05 220.35,223.42 229.47,215.78 238.58,208.15 247.70,200.51 256.82,192.87 265.93,185.24 275.05,177.60 284.17,169.97 293.28,162.33 302.40,154.70 311.52,147.06 320.64,139.42 329.75,131.79 338.87,124.15 347.99,116.52 357.10,108.88 366.22,101.25"/>
  <polyline points="381.93,106.23 383.33,117.53 384.73,128.83 386.14,140.13 387.54,151.43 388.95,162.73 390.35,174.03 391.75,185.33 393.16,196.63 394.56,207.93 395.97,219.23 397.37,230.53 398.77,241.83 400.18,253.13 401.58,264.43 402.98,275.73 404.39,287.03 405.79,298.33 407.20,309.63 408.60,320.93 410.00,332.23 411.41,343.53 412.81,354.83 414.22,366.13 415.62,377.43 417.02,388.74 418.43,400.04 419.83,411.34 421.23,422.64 422.64,433.94 424.04,445.24 425.45,456.54 426.85,467.84 416.36,463.40 405.87,458.97 395.39,454.53 384.90,450.10 374.41,445.67 363.92,441.23 353.43,436.80 342.94,432.36 332.46,427.93 321.97,423.49 311.48,419.06 300.99,414.62 290.50,410.19 280.01,405.76 269.53,401.32 259.04,396.89 248.55,392.45 238.06,388.02 227.57,383.58 217.08,379.15 206.59,374.72 196.11,370.28 185.62,365.85 175.13,361.41 164.64,356.98 154.15,352.54 143.66,348.11 133.18,343.67 122.69,339.24 112.20,334.81 101.71,330.37 91.22,325.94 100.31,319.07 109.39,312.20 118.48,305.34 127.56,298.47 136.65,291.61 145.73,284.74 154.81,277.87 163.90,271.01 172.98,264.14 182.07,257.28 191.15,250.41 200.24,243.55 209.32,236.68 218.41,229.81 227.49,222.95 236.57,216.08 245.66,209.22 254.74,202.35 263.83,195.48 272.91,188.62 282.00,181.75 291.08,174.89 300.17,168.02 309.25,161.15 318.34,154.29 327.42,147.42 336.50,140.56 345.59,133.69 354.67,126.82 363.76,119.96 372.84,113.09"/>
  <polyline points="387.45,118.96 388.25,129.81 389.05,140.67 389.85,151.52 390.65,162.37 391.45,173.23 392.25,184.08 393.05,194.93 393.85,205.78 394.65,216.64 395.45,227.49 396.25,238.34 397.05,249.20 397.85,260.05 398.65,270.90 399.45,281.76 400.26,292.61 401.06,303.46 401.86,314.31 402.66,325.17 403.46,336.02 404.26,346.87 405.06,357.73 405.86,368.58 406.66,379.43 407.46,390.28 408.26,401.14 409.06,411.99 409.86,422.84 410.66,433.70 411.46,444.55 412.26,455.40 413.06,466.25 403.26,461.52 393.46,456.79 383.66,452.05 373.86,447.32 364.06,442.59 354.26,437.85 344.47,433.12 334.67,428.39 324.87,423.65 315.07,418.92 305.27,414.19 295.47,409.45 285.67,404.72 275.87,399.99 266.07,395.25 256.27,390.52 246.48,385.79 236.68,381.05 226.88,376.32 217.08,371.59 207.28,366.85 197.48,362.12 187.68,357.39 177.88,352.65 168.08,347.92 158.28,343.18 148.48,338.45 138.69,333.72 128.89,328.98 119.09,324.25 109.29,319.52 99.49,314.78 108.49,308.66 117.49,302.55 126.49,296.43 135.48,290.31 144.48,284.19 153.48,278.07 162.48,271.95 171.48,265.83 180.48,259.71 189.48,253.59 198.48,247.47 207.48,241.35 216.47,235.23 225.47,229.11 234.47,222.99 243.47,216.87 252.47,210.75 261.47,204.63 270.47,198.51 279.47,192.39 288.46,186.28 297.46,180.16 306.46,174.04 315.46,167.92 324.46,161.80 333.46,155.68 342.46,149.56 351.46,143.44 360.46,137.32 369.45,131.20 378.45,125.08"/>
  <polyline points="391.92,131.74 392.16,142.12 392.41,152.49 392.65,162.87 392.90,173.24 393.14,183.62 393.39,193.99 393.63,204.37 393.88,214.74 394.12,225.12 394.37,235.49 394.61,245.86 394.86,256.24 395.10,266.61 395.35,276.99 395.59,287.36 395.84,297.74 396.08,308.11 396.33,318.49 396.57,328.86 396.82,339.24 397.06,349.61 397.31,359.99 397.55,370.36 397.80,380.74 398.04,391.11 398.29,401.48 398.53,411.86 398.78,422.23 399.02,432.61 399.27,442.98 399.51,453.36 399.75,463.73 390.65,458.76 381.54,453.78 372.43,448.81 363.33,443.83 354.22,438.86 345.11,433.88 336.00,428.91 326.90,423.93 317.79,418.96 308.68,413.98 299.58,409.00 290.47,404.03 281.36,399.05 272.25,394.08 263.15,389.10 254.04,384.13 244.93,379.15 235.83,374.18 226.72,369.20 217.61,364.23 208.50,359.25 199.40,354.28 190.29,349.30 181.18,344.33 172.08,339.35 162.97,334.38 153.86,329.40 144.75,324.43 135.65,319.45 126.54,314.47 117.43,309.50 108.33,304.52 117.19,299.12 126.05,293.73 134.91,288.33 143.78,282.93 152.64,277.53 161.50,272.13 170.36,266.73 179.22,261.33 188.09,255.93 196.95,250.53 205.81,245.13 214.67,239.73 223.54,234.33 232.40,228.93 241.26,223.53 250.12,218.13 258.98,212.73 267.85,207.34 276.71,201.94 285.57,196.54 294.43,191.14 303.30,185.74 312.16,180.34 321.02,174.94 329.88,169.54 338.75,164.14 347.61,158.74 356.47,153.34 365.33,147.94 374.19,142.54 383.06,137.14"/>
  <polyline points="395.34,144.50 395.08,154.37 394.82,164.24 394.56,174.11 394.30,183.98 394.04,193.85 393.77,203.72 393.51,213.58 393.25,223.45 392.99,233.32 392.73,243.19 392.47,253.06 392.21,262.93 391.95,272.80 391.69,282.67 391.43,292.54 391.17,302.41 390.91,312.28 390.65,322.15 390.39,332.02 390.13,341.88 389.87,351.75 389.60,361.62 389.34,371.49 389.08,381.36 388.82,391.23 388.56,401.10 388.30,410.97 388.04,420.84 387.78,430.71 387.52,440.58 387.26,450.45 387.00,460.32 378.58,455.16 370.16,449.99 361.75,444.83 353.33,439.67 344.91,434.51 336.50,429.35 328.08,424.19 319.66,419.03 311.25,413.87 302.83,408.71 294.41,403.55 286.00,398.39 277.58,393.23 269.16,388.07 260.75,382.91 252.33,377.75 243.91,372.59 235.50,367.43 227.08,362.27 218.66,357.11 210.25,351.95 201.83,346.79 193.41,341.63 185.00,336.47 176.58,331.31 168.16,326.15 159.75,320.99 151.33,315.83 142.91,310.67 134.50,305.51 126.08,300.35 117.66,295.18 126.34,290.48 135.02,285.77 143.70,281.06 152.37,276.35 161.05,271.64 169.73,266.93 178.40,262.22 187.08,257.51 195.76,252.80 204.44,248.10 213.11,243.39 221.79,238.68 230.47,233.97 239.15,229.26 247.82,224.55 256.50,219.84 265.18,215.13 273.86,210.42 282.53,205.72 291.21,201.01 299.89,196.30 308.56,191.59 317.24,186.88 325.92,182.17 334.60,177.46 343.27,172.75 351.95,168.04 360.63,163.34 369.31,158.63 377.98,153.92 386.66,149.21"/>
  <polyline points="397.72,157.16 397.01,166.50 396.29,175.84 395.58,185.18 394.86,194.52 394.15,203.86 393.43,213.20 392.72,222.54 392.00,231.88 391.29,241.22 390.57,250.56 389.86,259.90 389.14,269.24 388.43,278.58 387.71,287.92 387.00,297.26 386.28,306.61 385.57,315.95 384.85,325.29 384.14,334.63 383.42,343.97 382.71,353.31 381.99,362.65 381.28,371.99 380.56,381.33 379.85,390.67 379.13,400.01 378.42,409.35 377.70,418.69 376.99,428.03 376.27,437.37 375.56,446.71 374.84,456.05 367.11,450.76 359.38,445.47 351.65,440.18 343.92,434.90 336.19,429.61 328.45,424.32 320.72,419.03 312.99,413.74 305.26,408.45 297.53,403.16 289.80,397.87 282.06,392.58 274.33,387.29 266.60,382.00 258.87,376.71 251.14,371.42 243.41,366.13 235.67,360.84 227.94,355.55 220.21,350.26 212.48,344.97 204.75,339.68 197.02,334.40 189.29,329.11 181.55,323.82 173.82,318.53 166.09,313.24 158.36,307.95 150.63,302.66 142.90,297.37 135.16,292.08 127.43,286.79 135.88,282.74 144.33,278.69 152.77,274.64 161.22,270.59 169.67,266.53 178.11,262.48 186.56,258.43 195.01,254.38 203.45,250.33 211.90,246.28 220.35,242.23 228.79,238.18 237.24,234.13 245.68,230.08 254.13,226.02 262.58,221.97 271.02,217.92 279.47,213.87 287.92,209.82 296.36,205.77 304.81,201.72 313.26,197.67 321.70,193.62 330.15,189.57 338.60,185.51 347.04,181.46 355.49,177.41 363.94,173.36 372.38,169.31 380.83,165.26 389.28,161.21"/>
  <polyline points="399.10,169.64 397.98,178.44 396.86,187.23 395.74,196.02 394.63,204.81 393.51,213.61 392.39,222.40 391.28,231.19 390.16,239.98 389.04,248.78 387.92,257.57 386.81,266.36 385.69,275.15 384.57,283.94 383.45,292.74 382.34,301.53 381.22,310.32 380.10,319.11 378.98,327.91 377.87,336.70 376.75,345.49 375.63,354.28 374.52,363.07 373.40,371.87 372.28,380.66 371.16,389.45 370.05,398.24 368.93,407.04 367.81,415.83 366.69,424.62 365.58,433.41 364.46,442.21 363.34,451.00 356.29,445.63 349.23,440.27 342.18,434.91 335.12,429.54 328.06,424.18 321.01,418.82 313.95,413.45 306.90,408.09 299.84,402.72 292.79,397.36 285.73,392.00 278.67,386.63 271.62,381.27 264.56,375.91 257.51,370.54 250.45,365.18 243.40,359.81 236.34,354.45 229.28,349.09 222.23,343.72 215.17,338.36 208.12,333.00 201.06,327.63 194.01,322.27 186.95,316.90 179.89,311.54 172.84,306.18 165.78,300.81 158.73,295.45 151.67,290.08 144.62,284.72 137.56,279.36 145.73,275.93 153.91,272.50 162.08,269.07 170.25,265.64 178.43,262.21 186.60,258.79 194.77,255.36 202.94,251.93 211.12,248.50 219.29,245.07 227.46,241.64 235.64,238.22 243.81,234.79 251.98,231.36 260.16,227.93 268.33,224.50 276.50,221.07 284.67,217.64 292.85,214.22 301.02,210.79 309.19,207.36 317.37,203.93 325.54,200.50 333.71,197.07 341.89,193.64 350.06,190.22 358.23,186.79 366.40,183.36 374.58,179.93 382.75,176.50 390.92,173.07"/>
  <polyline points="399.48,181.89 398.01,190.12 396.55,198.35 395.08,206.58 393.61,214.81 392.15,223.04 390.68,231.27 389.21,239.49 387.74,247.72 386.28,255.95 384.81,264.18 383.34,272.41 381.88,280.64 380.41,288.86 378.94,297.09 377.48,305.32 376.01,313.55 374.54,321.78 373.08,330.01 371.61,338.23 370.14,346.46 368.68,354.69 367.21,362.92 365.74,371.15 364.28,379.38 362.81,387.61 361.34,395.83 359.88,404.06 358.41,412.29 356.94,420.52 355.48,428.75 354.01,436.98 352.54,445.20 346.15,439.82 339.76,434.44 333.36,429.05 326.97,423.67 320.58,418.28 314.19,412.90 307.79,407.51 301.40,402.13 295.01,396.74 288.62,391.36 282.22,385.98 275.83,380.59 269.44,375.21 263.05,369.82 256.65,364.44 250.26,359.05 243.87,353.67 237.48,348.28 231.08,342.90 224.69,337.51 218.30,332.13 211.90,326.75 205.51,321.36 199.12,315.98 192.73,310.59 186.33,305.21 179.94,299.82 173.55,294.44 167.16,289.05 160.76,283.67 154.37,278.29 147.98,272.90 155.84,270.06 163.70,267.21 171.56,264.37 179.42,261.53 187.28,258.68 195.13,255.84 202.99,252.99 210.85,250.15 218.71,247.31 226.57,244.46 234.43,241.62 242.29,238.77 250.15,235.93 258.01,233.09 265.87,230.24 273.73,227.40 281.59,224.55 289.45,221.71 297.31,218.87 305.17,216.02 313.03,213.18 320.88,210.33 328.74,207.49 336.60,204.65 344.46,201.80 352.32,198.96 360.18,196.11 368.04,193.27 375.90,190.43 383.76,187.58 391.62,184.74"/>
  <polyline points="398.90,193.84 397.14,201.49 395.37,209.14 393.61,216.80 391.85,224.45 390.09,232.10 388.32,239.76 386.56,247.41 384.80,255.06 383.03,262.71 381.27,270.37 379.51,278.02 377.75,285.67 375.98,293.33 374.22,300.98 372.46,308.63 370.69,316.28 368.93,323.94 367.17,331.59 365.41,339.24 363.64,346.90 361.88,354.55 360.12,362.20 358.35,369.85 356.59,377.51 354.83,385.16 353.07,392.81 351.30,400.47 349.54,408.12 347.78,415.77 346.01,423.42 344.25,431.08 342.49,438.73 336.74,433.38 331.00,428.02 325.25,422.67 319.50,417.32 313.76,411.96 308.01,406.61 302.27,401.26 296.52,395.91 290.77,390.55 285.03,385.20 279.28,379.85 273.53,374.49 267.79,369.14 262.04,363.79 256.30,358.43 250.55,353.08 244.80,347.73 239.06,342.37 233.31,337.02 227.57,331.67 221.82,326.32 216.07,320.96 210.33,315.61 204.58,310.26 198.83,304.90 193.09,299.55 187.34,294.20 181.60,288.84 175.85,283.49 170.10,278.14 164.36,272.78 158.61,267.43 166.12,265.13 173.63,262.83 181.14,260.53 188.65,258.23 196.16,255.93 203.67,253.63 211.17,251.33 218.68,249.03 226.19,246.73 233.70,244.43 241.21,242.13 248.72,239.83 256.23,237.53 263.74,235.23 271.25,232.93 278.76,230.63 286.26,228.34 293.77,226.04 301.28,223.74 308.79,221.44 316.30,219.14 323.81,216.84 331.32,214.54 338.83,212.24 346.34,209.94 353.85,207.64 361.35,205.34 368.86,203.04 376.37,200.74 383.88,198.44 391.39,196.14"/>
  <polyline points="397.39,205.41 395.39,212.48 393.38,219.55 391.37,226.62 389.37,233.69 387.36,240.76 385.36,247.83 383.35,254.90 381.35,261.97 379.34,269.04 377.34,276.11 375.33,283.18 373.33,290.25 371.32,297.32 369.32,304.39 367.31,311.46 365.31,318.52 363.30,325.59 361.29,332.66 359.29,339.73 357.28,346.80 355.28,353.87 353.27,360.94 351.27,368.01 349.26,375.08 347.26,382.15 345.25,389.22 343.25,396.29 341.24,403.36 339.24,410.43 337.23,417.50 335.23,424.57 333.22,431.64 328.10,426.37 322.98,421.09 317.86,415.82 312.74,410.55 307.62,405.28 302.50,400.01 297.38,394.74 292.26,389.47 287.14,384.19 282.02,378.92 276.90,373.65 271.78,368.38 266.66,363.11 261.54,357.84 256.42,352.57 251.30,347.29 246.18,342.02 241.07,336.75 235.95,331.48 230.83,326.21 225.71,320.94 220.59,315.67 215.47,310.39 210.35,305.12 205.23,299.85 200.11,294.58 194.99,289.31 189.87,284.04 184.75,278.77 179.63,273.49 174.51,268.22 169.39,262.95 176.51,261.15 183.64,259.35 190.76,257.56 197.89,255.76 205.01,253.96 212.14,252.16 219.26,250.36 226.39,248.57 233.51,246.77 240.64,244.97 247.76,243.17 254.89,241.37 262.02,239.58 269.14,237.78 276.27,235.98 283.39,234.18 290.52,232.38 297.64,230.59 304.77,228.79 311.89,226.99 319.02,225.19 326.14,223.39 333.27,221.60 340.39,219.80 347.52,218.00 354.64,216.20 361.77,214.40 368.89,212.60 376.02,210.81 383.14,209.01 390.27,207.21"/>
  <polyline points="394.99,216.55 392.79,223.04 390.60,229.52 388.41,236.00 386.21,242.48 384.02,248.97 381.82,255.45 379.63,261.93 377.43,268.41 375.24,274.89 373.05,281.38 370.85,287.86 368.66,294.34 366.46,300.82 364.27,307.31 362.07,313.79 359.88,320.27 357.69,326.75 355.49,333.23 353.30,339.72 351.10,346.20 348.91,352.68 346.71,359.16 344.52,365.65 342.33,372.13 340.13,378.61 337.94,385.09 335.74,391.57 333.55,398.06 331.35,404.54 329.16,411.02 326.97,417.50 324.77,423.99 320.26,418.84 315.74,413.70 311.22,408.56 306.71,403.42 302.19,398.28 297.67,393.14 293.16,388.00 288.64,382.85 284.12,377.71 279.61,372.57 275.09,367.43 270.57,362.29 266.06,357.15 261.54,352.01 257.02,346.86 252.51,341.72 247.99,336.58 243.47,331.44 238.96,326.30 234.44,321.16 229.92,316.02 225.41,310.87 220.89,305.73 216.37,300.59 211.86,295.45 207.34,290.31 202.82,285.17 198.31,280.03 193.79,274.88 189.27,269.74 184.76,264.60 180.24,259.46 186.95,258.12 193.66,256.78 200.37,255.44 207.08,254.10 213.79,252.76 220.50,251.42 227.22,250.07 233.93,248.73 240.64,247.39 247.35,246.05 254.06,244.71 260.77,243.37 267.48,242.03 274.19,240.69 280.90,239.35 287.61,238.01 294.33,236.67 301.04,235.33 307.75,233.98 314.46,232.64 321.17,231.30 327.88,229.96 334.59,228.62 341.30,227.28 348.01,225.94 354.72,224.60 361.43,223.26 368.15,221.92 374.86,220.58 381.57,219.24 388.28,217.89"/>
  <polyline points="391.73,227.20 389.40,233.10 387.07,238.99 384.74,244.89 382.41,250.78 380.08,256.68 377.75,262.57 375.42,268.47 373.10,274.36 370.77,280.26 368.44,286.15 366.11,292.05 363.78,297.94 361.45,303.84 359.12,309.73 356.79,315.63 354.46,321.52 352.13,327.42 349.80,333.31 347.47,339.21 345.14,345.10 342.81,351.00 340.48,356.89 338.15,362.79 335.82,368.68 333.49,374.58 331.16,380.47 328.83,386.37 326.50,392.26 324.17,398.16 321.84,404.05 319.51,409.95 317.18,415.84 313.24,410.88 309.30,405.91 305.36,400.95 301.42,395.98 297.47,391.02 293.53,386.05 289.59,381.09 285.65,376.12 281.71,371.16 277.77,366.19 273.83,361.22 269.89,356.26 265.95,351.29 262.01,346.33 258.07,341.36 254.13,336.40 250.19,331.43 246.25,326.47 242.31,321.50 238.37,316.54 234.43,311.57 230.49,306.61 226.55,301.64 222.61,296.68 218.67,291.71 214.73,286.75 210.79,281.78 206.85,276.81 202.91,271.85 198.97,266.88 195.03,261.92 191.09,256.95 197.36,256.02 203.63,255.09 209.90,254.16 216.17,253.23 222.44,252.31 228.71,251.38 234.98,250.45 241.25,249.52 247.52,248.59 253.79,247.66 260.06,246.73 266.33,245.80 272.60,244.87 278.87,243.94 285.14,243.01 291.41,242.08 297.68,241.15 303.95,240.22 310.22,239.29 316.49,238.36 322.76,237.43 329.03,236.50 335.30,235.57 341.57,234.64 347.84,233.71 354.11,232.78 360.38,231.85 366.65,230.92 372.92,229.99 379.19,229.06 385.46,228.13"/>
  <polyline points="387.67,237.31 385.26,242.62 382.85,247.93 380.43,253.24 378.02,258.55 375.61,263.86 373.19,269.17 370.78,274.49 368.37,279.80 365.96,285.11 363.54,290.42 361.13,295.73 358.72,301.04 356.30,306.35 353.89,311.67 351.48,316.98 349.07,322.29 346.65,327.60 344.24,332.91 341.83,338.22 339.41,343.54 337.00,348.85 334.59,354.16 332.18,359.47 329.76,364.78 327.35,370.09 324.94,375.40 322.52,380.72 320.11,386.03 317.70,391.34 315.29,396.65 312.87,401.96 310.46,407.27 307.07,402.53 303.67,397.78 300.28,393.04 296.89,388.29 293.49,383.55 290.10,378.80 286.71,374.06 283.31,369.31 279.92,364.56 276.53,359.82 273.13,355.07 269.74,350.33 266.34,345.58 262.95,340.84 259.56,336.09 256.16,331.35 252.77,326.60 249.38,321.86 245.98,317.11 242.59,312.37 239.20,307.62 235.80,302.88 232.41,298.13 229.02,293.38 225.62,288.64 222.23,283.89 218.84,279.15 215.44,274.40 212.05,269.66 208.66,264.91 205.26,260.17 201.87,255.42 207.68,254.86 213.48,254.29 219.29,253.72 225.09,253.16 230.90,252.59 236.71,252.02 242.51,251.46 248.32,250.89 254.13,250.33 259.93,249.76 265.74,249.19 271.54,248.63 277.35,248.06 283.16,247.50 288.96,246.93 294.77,246.36 300.58,245.80 306.38,245.23 312.19,244.67 318.00,244.10 323.80,243.53 329.61,242.97 335.41,242.40 341.22,241.83 347.03,241.27 352.83,240.70 358.64,240.14 364.45,239.57 370.25,239.00 376.06,238.44 381.87,237.87"/>
  <polyline points="382.85,246.80 380.40,251.54 377.96,256.28 375.52,261.01 373.07,265.75 370.63,270.48 368.18,275.22 365.74,279.95 363.30,284.69 360.85,289.43 358.41,294.16 355.96,298.90 353.52,303.63 351.08,308.37 348.63,313.10 346.19,317.84 343.75,322.57 341.30,327.31 338.86,332.05 336.41,336.78 333.97,341.52 331.53,346.25 329.08,350.99 326.64,355.72 324.20,360.46 321.75,365.20 319.31,369.93 316.86,374.67 314.42,379.40 311.98,384.14 309.53,388.87 307.09,393.61 304.65,398.34 301.77,393.86 298.89,389.38 296.01,384.89 293.13,380.41 290.25,375.92 287.37,371.44 284.49,366.96 281.61,362.47 278.73,357.99 275.85,353.50 272.97,349.02 270.09,344.53 267.21,340.05 264.34,335.57 261.46,331.08 258.58,326.60 255.70,322.11 252.82,317.63 249.94,313.14 247.06,308.66 244.18,304.18 241.30,299.69 238.42,295.21 235.54,290.72 232.66,286.24 229.78,281.76 226.90,277.27 224.03,272.79 221.15,268.30 218.27,263.82 215.39,259.33 212.51,254.85 217.83,254.60 223.15,254.35 228.48,254.10 233.80,253.84 239.12,253.59 244.45,253.34 249.77,253.09 255.09,252.84 260.42,252.59 265.74,252.34 271.06,252.08 276.39,251.83 281.71,251.58 287.03,251.33 292.35,251.08 297.68,250.83 303.00,250.58 308.32,250.32 313.65,250.07 318.97,249.82 324.29,249.57 329.62,249.32 334.94,249.07 340.26,248.82 345.59,248.56 350.91,248.31 356.23,248.06 361.55,247.81 366.88,247.56 372.20,247.31 377.52,247.06"/>
  <polyline points="377.31,255.65 374.89,259.82 372.46,263.99 370.04,268.17 367.62,272.34 365.19,276.51 362.77,280.68 360.34,284.85 357.92,289.02 355.50,293.19 353.07,297.36 350.65,301.53 348.23,305.71 345.80,309.88 343.38,314.05 340.95,318.22 338.53,322.39 336.11,326.56 333.68,330.73 331.26,334.90 328.84,339.07 326.41,343.25 323.99,347.42 321.56,351.59 319.14,355.76 316.72,359.93 314.29,364.10 311.87,368.27 309.45,372.44 307.02,376.61 304.60,380.78 302.17,384.96 299.75,389.13 297.35,384.94 294.95,380.76 292.55,376.57 290.15,372.39 287.75,368.20 285.35,364.02 282.95,359.83 280.55,355.65 278.15,351.47 275.75,347.28 273.35,343.10 270.95,338.91 268.55,334.73 266.15,330.54 263.74,326.36 261.34,322.17 258.94,317.99 256.54,313.80 254.14,309.62 251.74,305.44 249.34,301.25 246.94,297.07 244.54,292.88 242.14,288.70 239.74,284.51 237.34,280.33 234.94,276.14 232.54,271.96 230.14,267.77 227.74,263.59 225.34,259.40 222.94,255.22 227.76,255.23 232.59,255.25 237.41,255.26 242.24,255.27 247.06,255.29 251.88,255.30 256.71,255.31 261.53,255.33 266.36,255.34 271.18,255.36 276.00,255.37 280.83,255.38 285.65,255.40 290.48,255.41 295.30,255.42 300.12,255.44 304.95,255.45 309.77,255.46 314.60,255.48 319.42,255.49 324.25,255.50 329.07,255.52 333.89,255.53 338.72,255.54 343.54,255.56 348.37,255.57 353.19,255.59 358.01,255.60 362.84,255.61 367.66,255.63 372.49,255.64"/>
  </g>
</svg>
