<?xml version="1.0" encoding="UTF-8"?>
<svg xmlns="http://www.w3.org/2000/svg" viewBox="0 0 600 600" width="600" height="600" role="img" aria-label="Interactius shape · ellipse (Experience design)">
  <title>Interactius shape · ellipse (Experience design)</title>
  <defs>
    <linearGradient id="grad-ellipse" gradientUnits="userSpaceOnUse" x1="0" y1="0" x2="600" y2="600">
      <stop offset="0" stop-color="#99335F"/>
      <stop offset="1" stop-color="#F5F2ED"/>
    </linearGradient>
  </defs>
  <g fill="none" stroke="url(#grad-ellipse)" stroke-width="4" stroke-linecap="round" stroke-dasharray="0 8">
  <polyline points="457.19,142.81 463.02,149.32 468.16,156.47 472.57,164.23 476.24,172.58 479.16,181.47 481.32,190.87 482.69,200.73 483.29,211.03 483.10,221.70 482.12,232.71 480.37,244.00 477.84,255.54 474.55,267.27 470.52,279.13 465.75,291.09 460.27,303.08 454.11,315.06 447.29,326.98 439.84,338.78 431.78,350.42 423.17,361.84 414.02,372.99 404.39,383.83 394.31,394.31 383.83,404.39 372.99,414.02 361.84,423.17 350.42,431.78 338.78,439.84 326.98,447.29 315.06,454.11 303.08,460.27 291.09,465.75 279.13,470.52 267.27,474.55 255.54,477.84 244.00,480.37 232.71,482.12 221.70,483.10 211.03,483.29 200.73,482.69 190.87,481.32 181.47,479.16 172.58,476.24 164.23,472.57 156.47,468.16 149.32,463.02 142.81,457.19 136.98,450.68 131.84,443.53 127.43,435.77 123.76,427.42 120.84,418.53 118.68,409.13 117.31,399.27 116.71,388.97 116.90,378.30 117.88,367.29 119.63,356.00 122.16,344.46 125.45,332.73 129.48,320.87 134.25,308.91 139.73,296.92 145.89,284.94 152.71,273.02 160.16,261.22 168.22,249.58 176.83,238.16 185.98,227.01 195.61,216.17 205.69,205.69 216.17,195.61 227.01,185.98 238.16,176.83 249.58,168.22 261.22,160.16 273.02,152.71 284.94,145.89 296.92,139.73 308.91,134.25 320.87,129.48 332.73,125.45 344.46,122.16 356.00,119.63 367.29,117.88 378.30,116.90 388.97,116.71 399.27,117.31 409.13,118.68 418.53,120.84 427.42,123.76 435.77,127.43 443.53,131.84 450.68,136.98"/>
  <polyline points="474.06,173.75 478.80,181.07 482.77,188.90 485.96,197.20 488.36,205.94 489.94,215.09 490.72,224.60 490.68,234.43 489.82,244.54 488.15,254.89 485.67,265.44 482.40,276.13 478.34,286.92 473.53,297.77 467.96,308.63 461.69,319.45 454.71,330.19 447.08,340.80 438.81,351.24 429.96,361.45 420.54,371.40 410.61,381.05 400.20,390.35 389.37,399.26 378.15,407.75 366.60,415.78 354.77,423.31 342.69,430.31 330.44,436.76 318.06,442.61 305.59,447.86 293.11,452.48 280.65,456.44 268.28,459.73 256.04,462.34 243.99,464.25 232.18,465.46 220.67,465.96 209.49,465.75 198.69,464.84 188.34,463.21 178.46,460.89 169.10,457.87 160.30,454.18 152.10,449.84 144.53,444.84 137.63,439.23 131.42,433.03 125.94,426.25 121.20,418.93 117.23,411.10 114.04,402.80 111.64,394.06 110.06,384.91 109.28,375.40 109.32,365.57 110.18,355.46 111.85,345.11 114.33,334.56 117.60,323.87 121.66,313.08 126.47,302.23 132.04,291.37 138.31,280.55 145.29,269.81 152.92,259.20 161.19,248.76 170.04,238.55 179.46,228.60 189.39,218.95 199.80,209.65 210.63,200.74 221.85,192.25 233.40,184.22 245.23,176.69 257.31,169.69 269.56,163.24 281.94,157.39 294.41,152.14 306.89,147.52 319.35,143.56 331.72,140.27 343.96,137.66 356.01,135.75 367.82,134.54 379.33,134.04 390.51,134.25 401.31,135.16 411.66,136.79 421.54,139.11 430.90,142.13 439.70,145.82 447.90,150.16 455.47,155.16 462.37,160.77 468.58,166.97"/>
  <polyline points="482.24,200.25 486.01,208.07 488.98,216.28 491.15,224.85 492.50,233.75 493.02,242.92 492.72,252.34 491.59,261.97 489.65,271.76 486.89,281.67 483.32,291.65 478.98,301.68 473.87,311.69 468.01,321.66 461.43,331.53 454.17,341.27 446.24,350.83 437.69,360.17 428.54,369.26 418.85,378.05 408.65,386.50 397.98,394.59 386.89,402.27 375.43,409.51 363.65,416.28 351.59,422.56 339.32,428.31 326.87,433.51 314.31,438.14 301.69,442.18 289.07,445.60 276.48,448.41 264.00,450.58 251.68,452.10 239.56,452.98 227.70,453.20 216.15,452.76 204.95,451.67 194.17,449.93 183.84,447.54 174.00,444.53 164.71,440.89 155.99,436.66 147.89,431.83 140.45,426.45 133.68,420.52 127.63,414.07 122.32,407.14 117.76,399.75 113.99,391.93 111.02,383.72 108.85,375.15 107.50,366.25 106.98,357.08 107.28,347.66 108.41,338.03 110.35,328.24 113.11,318.33 116.68,308.35 121.02,298.32 126.13,288.31 131.99,278.34 138.57,268.47 145.83,258.73 153.76,249.17 162.31,239.83 171.46,230.74 181.15,221.95 191.35,213.50 202.02,205.41 213.11,197.73 224.57,190.49 236.35,183.72 248.41,177.44 260.68,171.69 273.13,166.49 285.69,161.86 298.31,157.82 310.93,154.40 323.52,151.59 336.00,149.42 348.32,147.90 360.44,147.02 372.30,146.80 383.85,147.24 395.05,148.33 405.83,150.07 416.16,152.46 426.00,155.47 435.29,159.11 444.01,163.34 452.11,168.17 459.55,173.55 466.32,179.48 472.37,185.93 477.68,192.86"/>
  <polyline points="485.90,224.95 488.72,233.10 490.74,241.54 491.95,250.22 492.33,259.12 491.88,268.20 490.62,277.41 488.54,286.72 485.65,296.08 481.97,305.47 477.50,314.82 472.28,324.12 466.32,333.31 459.65,342.36 452.29,351.23 444.29,359.88 435.66,368.27 426.45,376.37 416.70,384.14 406.46,391.55 395.75,398.57 384.64,405.17 373.16,411.32 361.37,416.99 349.32,422.16 337.06,426.81 324.63,430.91 312.10,434.45 299.53,437.42 286.95,439.80 274.43,441.58 262.01,442.76 249.76,443.32 237.73,443.27 225.96,442.60 214.51,441.33 203.43,439.45 192.75,436.97 182.54,433.91 172.83,430.27 163.67,426.08 155.09,421.34 147.13,416.09 139.82,410.33 133.20,404.11 127.30,397.44 122.13,390.35 117.73,382.88 114.10,375.05 111.28,366.90 109.26,358.46 108.05,349.78 107.67,340.88 108.12,331.80 109.38,322.59 111.46,313.28 114.35,303.92 118.03,294.53 122.50,285.18 127.72,275.88 133.68,266.69 140.35,257.64 147.71,248.77 155.71,240.12 164.34,231.73 173.55,223.63 183.30,215.86 193.54,208.45 204.25,201.43 215.36,194.83 226.84,188.68 238.63,183.01 250.68,177.84 262.94,173.19 275.37,169.09 287.90,165.55 300.47,162.58 313.05,160.20 325.57,158.42 337.99,157.24 350.24,156.68 362.27,156.73 374.04,157.40 385.49,158.67 396.57,160.55 407.25,163.03 417.46,166.09 427.17,169.73 436.33,173.92 444.91,178.66 452.87,183.91 460.18,189.67 466.80,195.89 472.70,202.56 477.87,209.65 482.27,217.12"/>
  <polyline points="486.07,248.01 487.97,256.35 489.07,264.88 489.36,273.56 488.83,282.35 487.50,291.22 485.36,300.12 482.43,309.02 478.72,317.89 474.24,326.68 469.02,335.35 463.07,343.87 456.43,352.21 449.12,360.32 441.16,368.17 432.60,375.73 423.48,382.97 413.83,389.85 403.68,396.35 393.10,402.43 382.11,408.08 370.78,413.26 359.14,417.96 347.25,422.15 335.15,425.82 322.91,428.95 310.56,431.53 298.18,433.55 285.80,434.99 273.48,435.85 261.27,436.14 249.23,435.84 237.41,434.96 225.85,433.50 214.61,431.47 203.74,428.87 193.28,425.73 183.28,422.04 173.78,417.84 164.82,413.13 156.43,407.93 148.66,402.27 141.54,396.18 135.10,389.67 129.37,382.78 124.36,375.53 120.11,367.96 116.62,360.10 113.93,351.99 112.03,343.65 110.93,335.12 110.64,326.44 111.17,317.65 112.50,308.78 114.64,299.88 117.57,290.98 121.28,282.11 125.76,273.32 130.98,264.65 136.93,256.13 143.57,247.79 150.88,239.68 158.84,231.83 167.40,224.27 176.52,217.03 186.17,210.15 196.32,203.65 206.90,197.57 217.89,191.92 229.22,186.74 240.86,182.04 252.75,177.85 264.85,174.18 277.09,171.05 289.44,168.47 301.82,166.45 314.20,165.01 326.52,164.15 338.73,163.86 350.77,164.16 362.59,165.04 374.15,166.50 385.39,168.53 396.26,171.13 406.72,174.27 416.72,177.96 426.22,182.16 435.18,186.87 443.57,192.07 451.34,197.73 458.46,203.82 464.90,210.33 470.63,217.22 475.64,224.47 479.89,232.04 483.38,239.90"/>
  <polyline points="483.39,269.41 484.39,277.81 484.60,286.31 484.02,294.87 482.65,303.45 480.49,312.01 477.57,320.53 473.88,328.95 469.45,337.25 464.30,345.40 458.44,353.34 451.90,361.06 444.72,368.52 436.91,375.69 428.52,382.53 419.57,389.01 410.12,395.12 400.19,400.82 389.83,406.09 379.09,410.90 368.01,415.24 356.64,419.08 345.03,422.42 333.22,425.23 321.27,427.50 309.23,429.23 297.15,430.40 285.08,431.02 273.08,431.07 261.19,430.57 249.47,429.50 237.97,427.88 226.73,425.71 215.80,423.01 205.23,419.78 195.07,416.03 185.36,411.79 176.15,407.07 167.46,401.89 159.33,396.27 151.82,390.24 144.93,383.83 138.71,377.06 133.18,369.95 128.36,362.55 124.28,354.88 120.96,346.97 118.39,338.87 116.61,330.59 115.61,322.19 115.40,313.69 115.98,305.13 117.35,296.55 119.51,287.99 122.43,279.47 126.12,271.05 130.55,262.75 135.70,254.60 141.56,246.66 148.10,238.94 155.28,231.48 163.09,224.31 171.48,217.47 180.43,210.99 189.88,204.88 199.81,199.18 210.17,193.91 220.91,189.10 231.99,184.76 243.36,180.92 254.97,177.58 266.78,174.77 278.73,172.50 290.77,170.77 302.85,169.60 314.92,168.98 326.92,168.93 338.81,169.43 350.53,170.50 362.03,172.12 373.27,174.29 384.20,176.99 394.77,180.22 404.93,183.97 414.64,188.21 423.85,192.93 432.54,198.11 440.67,203.73 448.18,209.76 455.07,216.17 461.29,222.94 466.82,230.05 471.64,237.45 475.72,245.12 479.04,253.03 481.61,261.13"/>
  <polyline points="478.31,289.05 478.44,297.40 477.81,305.76 476.41,314.10 474.26,322.38 471.36,330.57 467.73,338.62 463.38,346.51 458.34,354.20 452.61,361.65 446.23,368.84 439.22,375.74 431.62,382.31 423.45,388.54 414.76,394.38 405.57,399.81 395.93,404.82 385.88,409.39 375.47,413.48 364.73,417.09 353.71,420.19 342.46,422.78 331.03,424.85 319.47,426.38 307.82,427.37 296.15,427.81 284.48,427.71 272.89,427.06 261.41,425.86 250.09,424.13 238.99,421.86 228.15,419.08 217.62,415.78 207.44,411.99 197.66,407.72 188.31,402.98 179.45,397.81 171.10,392.21 163.30,386.23 156.09,379.87 149.49,373.17 143.54,366.16 138.26,358.86 133.67,351.31 129.79,343.55 126.64,335.59 124.23,327.49 122.58,319.26 121.69,310.95 121.56,302.60 122.19,294.24 123.59,285.90 125.74,277.62 128.64,269.43 132.27,261.38 136.62,253.49 141.66,245.80 147.39,238.35 153.77,231.16 160.78,224.26 168.38,217.69 176.55,211.46 185.24,205.62 194.43,200.19 204.07,195.18 214.12,190.61 224.53,186.52 235.27,182.91 246.29,179.81 257.54,177.22 268.97,175.15 280.53,173.62 292.18,172.63 303.85,172.19 315.52,172.29 327.11,172.94 338.59,174.14 349.91,175.87 361.01,178.14 371.85,180.92 382.38,184.22 392.56,188.01 402.34,192.28 411.69,197.02 420.55,202.19 428.90,207.79 436.70,213.77 443.91,220.13 450.51,226.83 456.46,233.84 461.74,241.14 466.33,248.69 470.21,256.45 473.36,264.41 475.77,272.51 477.42,280.74"/>
  <polyline points="471.24,306.85 470.54,315.05 469.11,323.19 466.97,331.22 464.10,339.12 460.53,346.85 456.28,354.39 451.35,361.69 445.78,368.72 439.59,375.46 432.79,381.88 425.43,387.95 417.53,393.64 409.12,398.93 400.25,403.80 390.95,408.22 381.27,412.18 371.23,415.65 360.89,418.64 350.28,421.11 339.46,423.07 328.48,424.50 317.37,425.39 306.18,425.75 294.97,425.57 283.79,424.86 272.67,423.60 261.66,421.82 250.83,419.52 240.20,416.71 229.83,413.39 219.76,409.59 210.03,405.32 200.69,400.60 191.77,395.45 183.32,389.89 175.36,383.95 167.94,377.64 161.09,371.01 154.83,364.07 149.19,356.85 144.20,349.39 139.88,341.72 136.24,333.87 133.30,325.88 131.07,317.78 129.57,309.60 128.80,301.37 128.76,293.15 129.46,284.95 130.89,276.81 133.03,268.78 135.90,260.88 139.47,253.15 143.72,245.61 148.65,238.31 154.22,231.28 160.41,224.54 167.21,218.12 174.57,212.05 182.47,206.36 190.88,201.07 199.75,196.20 209.05,191.78 218.73,187.82 228.77,184.35 239.11,181.36 249.72,178.89 260.54,176.93 271.52,175.50 282.63,174.61 293.82,174.25 305.03,174.43 316.21,175.14 327.33,176.40 338.34,178.18 349.17,180.48 359.80,183.29 370.17,186.61 380.24,190.41 389.97,194.68 399.31,199.40 408.23,204.55 416.68,210.11 424.64,216.05 432.06,222.36 438.91,228.99 445.17,235.93 450.81,243.15 455.80,250.61 460.12,258.28 463.76,266.13 466.70,274.12 468.93,282.22 470.43,290.40 471.20,298.63"/>
  <polyline points="462.51,322.77 461.04,330.72 458.88,338.54 456.05,346.19 452.54,353.64 448.38,360.86 443.58,367.83 438.17,374.50 432.17,380.85 425.60,386.86 418.50,392.50 410.89,397.74 402.80,402.56 394.27,406.94 385.34,410.87 376.04,414.31 366.42,417.27 356.51,419.73 346.36,421.68 336.01,423.10 325.51,424.00 314.90,424.36 304.23,424.20 293.53,423.50 282.87,422.27 272.28,420.52 261.80,418.25 251.49,415.48 241.39,412.21 231.54,408.46 221.98,404.25 212.76,399.59 203.91,394.50 195.47,389.01 187.48,383.14 179.97,376.91 172.97,370.36 166.52,363.50 160.64,356.37 155.36,349.00 150.70,341.41 146.67,333.66 143.30,325.75 140.61,317.74 138.59,309.65 137.27,301.52 136.64,293.38 136.72,285.27 137.49,277.23 138.96,269.28 141.12,261.46 143.95,253.81 147.46,246.36 151.62,239.14 156.42,232.17 161.83,225.50 167.83,219.15 174.40,213.14 181.50,207.50 189.11,202.26 197.20,197.44 205.73,193.06 214.66,189.13 223.96,185.69 233.58,182.73 243.49,180.27 253.64,178.32 263.99,176.90 274.49,176.00 285.10,175.64 295.77,175.80 306.47,176.50 317.13,177.73 327.72,179.48 338.20,181.75 348.51,184.52 358.61,187.79 368.46,191.54 378.02,195.75 387.24,200.41 396.09,205.50 404.53,210.99 412.52,216.86 420.03,223.09 427.03,229.64 433.48,236.50 439.36,243.63 444.64,251.00 449.30,258.59 453.33,266.34 456.70,274.25 459.39,282.26 461.41,290.35 462.73,298.48 463.36,306.62 463.28,314.73"/>
  <polyline points="452.45,336.76 450.27,344.37 447.45,351.79 443.99,358.99 439.92,365.94 435.25,372.61 430.00,378.96 424.19,384.98 417.85,390.63 411.01,395.90 403.69,400.75 395.93,405.18 387.75,409.15 379.20,412.66 370.31,415.68 361.12,418.21 351.67,420.23 342.00,421.74 332.15,422.72 322.16,423.18 312.07,423.11 301.93,422.52 291.79,421.40 281.68,419.76 271.65,417.61 261.74,414.95 251.99,411.80 242.45,408.18 233.15,404.09 224.15,399.55 215.46,394.59 207.14,389.22 199.22,383.47 191.73,377.37 184.70,370.93 178.16,364.19 172.15,357.17 166.68,349.91 161.79,342.44 157.49,334.78 153.79,326.97 150.73,319.05 148.30,311.05 146.52,303.00 145.40,294.94 144.94,286.90 145.15,278.91 146.02,271.02 147.55,263.24 149.73,255.63 152.55,248.21 156.01,241.01 160.08,234.06 164.75,227.39 170.00,221.04 175.81,215.02 182.15,209.37 188.99,204.10 196.31,199.25 204.07,194.82 212.25,190.85 220.80,187.34 229.69,184.32 238.88,181.79 248.33,179.77 258.00,178.26 267.85,177.28 277.84,176.82 287.93,176.89 298.07,177.48 308.21,178.60 318.32,180.24 328.35,182.39 338.26,185.05 348.01,188.20 357.55,191.82 366.85,195.91 375.85,200.45 384.54,205.41 392.86,210.78 400.78,216.53 408.27,222.63 415.30,229.07 421.84,235.81 427.85,242.83 433.32,250.09 438.21,257.56 442.51,265.22 446.21,273.03 449.27,280.95 451.70,288.95 453.48,297.00 454.60,305.06 455.06,313.10 454.85,321.09 453.98,328.98"/>
  <polyline points="441.37,348.79 438.54,355.99 435.12,362.96 431.13,369.65 426.57,376.05 421.47,382.12 415.85,387.84 409.73,393.18 403.14,398.12 396.11,402.65 388.68,406.73 380.86,410.36 372.69,413.51 364.21,416.18 355.46,418.35 346.47,420.02 337.28,421.17 327.94,421.80 318.47,421.91 308.92,421.50 299.34,420.57 289.75,419.12 280.22,417.16 270.76,414.70 261.43,411.75 252.27,408.32 243.31,404.42 234.60,400.08 226.16,395.31 218.04,390.13 210.27,384.57 202.89,378.64 195.92,372.38 189.40,365.81 183.35,358.95 177.80,351.85 172.77,344.52 168.29,337.00 164.37,329.32 161.03,321.52 158.29,313.62 156.16,305.67 154.64,297.69 153.74,289.72 153.47,281.80 153.83,273.95 154.81,266.22 156.42,258.62 158.63,251.21 161.46,244.01 164.88,237.04 168.87,230.35 173.43,223.95 178.53,217.88 184.15,212.16 190.27,206.82 196.86,201.88 203.89,197.35 211.32,193.27 219.14,189.64 227.31,186.49 235.79,183.82 244.54,181.65 253.53,179.98 262.72,178.83 272.06,178.20 281.53,178.09 291.08,178.50 300.66,179.43 310.25,180.88 319.78,182.84 329.24,185.30 338.57,188.25 347.73,191.68 356.69,195.58 365.40,199.92 373.84,204.69 381.96,209.87 389.73,215.43 397.11,221.36 404.08,227.62 410.60,234.19 416.65,241.05 422.20,248.15 427.23,255.48 431.71,263.00 435.63,270.68 438.97,278.48 441.71,286.38 443.84,294.33 445.36,302.31 446.26,310.28 446.53,318.20 446.17,326.05 445.19,333.78 443.58,341.38"/>
  <polyline points="429.52,358.87 426.12,365.61 422.19,372.06 417.73,378.20 412.77,384.01 407.33,389.45 401.42,394.52 395.08,399.18 388.34,403.41 381.21,407.20 373.74,410.54 365.95,413.40 357.88,415.77 349.56,417.65 341.03,419.02 332.33,419.89 323.48,420.24 314.54,420.08 305.53,419.40 296.50,418.21 287.49,416.51 278.52,414.32 269.65,411.64 260.91,408.47 252.34,404.85 243.97,400.77 235.84,396.27 227.99,391.35 220.44,386.04 213.24,380.36 206.40,374.34 199.97,368.00 193.97,361.36 188.42,354.47 183.34,347.34 178.77,340.01 174.72,332.51 171.20,324.87 168.23,317.12 165.83,309.30 164.00,301.44 162.76,293.57 162.10,285.73 162.03,277.95 162.56,270.27 163.67,262.71 165.37,255.31 167.64,248.11 170.48,241.13 173.88,234.39 177.81,227.94 182.27,221.80 187.23,215.99 192.67,210.55 198.58,205.48 204.92,200.82 211.66,196.59 218.79,192.80 226.26,189.46 234.05,186.60 242.12,184.23 250.44,182.35 258.97,180.98 267.67,180.11 276.52,179.76 285.46,179.92 294.47,180.60 303.50,181.79 312.51,183.49 321.48,185.68 330.35,188.36 339.09,191.53 347.66,195.15 356.03,199.23 364.16,203.73 372.01,208.65 379.56,213.96 386.76,219.64 393.60,225.66 400.03,232.00 406.03,238.64 411.58,245.53 416.66,252.66 421.23,259.99 425.28,267.49 428.80,275.13 431.77,282.88 434.17,290.70 436.00,298.56 437.24,306.43 437.90,314.27 437.97,322.05 437.44,329.73 436.33,337.29 434.63,344.69 432.36,351.89"/>
  <polyline points="417.17,367.04 413.29,373.25 408.92,379.14 404.09,384.69 398.80,389.88 393.10,394.69 387.00,399.09 380.52,403.07 373.70,406.60 366.57,409.68 359.15,412.29 351.47,414.42 343.58,416.06 335.50,417.20 327.26,417.84 318.91,417.97 310.48,417.60 302.01,416.73 293.52,415.35 285.06,413.48 276.67,411.13 268.38,408.30 260.22,405.01 252.24,401.26 244.45,397.09 236.91,392.49 229.63,387.51 222.66,382.14 216.02,376.43 209.74,370.39 203.84,364.04 198.36,357.42 193.31,350.56 188.72,343.48 184.60,336.21 180.98,328.79 177.87,321.25 175.28,313.61 173.22,305.92 171.71,298.20 170.75,290.49 170.34,282.81 170.49,275.22 171.19,267.73 172.44,260.37 174.24,253.19 176.58,246.21 179.44,239.45 182.83,232.96 186.71,226.75 191.08,220.86 195.91,215.31 201.20,210.12 206.90,205.31 213.00,200.91 219.48,196.93 226.30,193.40 233.43,190.32 240.85,187.71 248.53,185.58 256.42,183.94 264.50,182.80 272.74,182.16 281.09,182.03 289.52,182.40 297.99,183.27 306.48,184.65 314.94,186.52 323.33,188.87 331.62,191.70 339.78,194.99 347.76,198.74 355.55,202.91 363.09,207.51 370.37,212.49 377.34,217.86 383.98,223.57 390.26,229.61 396.16,235.96 401.64,242.58 406.69,249.44 411.28,256.52 415.40,263.79 419.02,271.21 422.13,278.75 424.72,286.39 426.78,294.08 428.29,301.80 429.25,309.51 429.66,317.19 429.51,324.78 428.81,332.27 427.56,339.63 425.76,346.81 423.42,353.79 420.56,360.55"/>
  <polyline points="404.57,373.33 400.28,378.97 395.56,384.27 390.44,389.21 384.92,393.77 379.04,397.93 372.83,401.67 366.30,404.97 359.48,407.83 352.42,410.22 345.12,412.14 337.64,413.58 329.99,414.53 322.22,414.99 314.35,414.96 306.42,414.44 298.46,413.43 290.50,411.93 282.59,409.95 274.76,407.50 267.03,404.60 259.44,401.24 252.02,397.45 244.82,393.24 237.84,388.64 231.14,383.65 224.73,378.31 218.64,372.63 212.90,366.64 207.53,360.36 202.56,353.83 198.00,347.06 193.88,340.10 190.22,332.96 187.03,325.68 184.32,318.29 182.10,310.82 180.40,303.31 179.20,295.78 178.52,288.27 178.36,280.81 178.72,273.43 179.60,266.17 181.00,259.05 182.90,252.11 185.31,245.37 188.21,238.87 191.59,232.62 195.43,226.67 199.72,221.03 204.44,215.73 209.56,210.79 215.08,206.23 220.96,202.07 227.17,198.33 233.70,195.03 240.52,192.17 247.58,189.78 254.88,187.86 262.36,186.42 270.01,185.47 277.78,185.01 285.65,185.04 293.58,185.56 301.54,186.57 309.50,188.07 317.41,190.05 325.24,192.50 332.97,195.40 340.56,198.76 347.98,202.55 355.18,206.76 362.16,211.36 368.86,216.35 375.27,221.69 381.36,227.37 387.10,233.36 392.47,239.64 397.44,246.17 402.00,252.94 406.12,259.90 409.78,267.04 412.97,274.32 415.68,281.71 417.90,289.18 419.60,296.69 420.80,304.22 421.48,311.73 421.64,319.19 421.28,326.57 420.40,333.83 419.00,340.95 417.10,347.89 414.69,354.63 411.79,361.13 408.41,367.38"/>
  <polyline points="391.94,377.81 387.33,382.86 382.35,387.55 377.01,391.86 371.35,395.78 365.38,399.30 359.13,402.38 352.63,405.03 345.90,407.23 338.98,408.97 331.88,410.24 324.66,411.04 317.32,411.36 309.91,411.21 302.46,410.58 295.00,409.48 287.56,407.91 280.18,405.88 272.88,403.39 265.69,400.46 258.65,397.10 251.79,393.33 245.14,389.15 238.72,384.60 232.56,379.68 226.69,374.42 221.14,368.84 215.92,362.97 211.06,356.82 206.59,350.44 202.51,343.84 198.85,337.05 195.63,330.10 192.85,323.02 190.53,315.84 188.68,308.60 187.30,301.32 186.41,294.03 186.01,286.77 186.09,279.57 186.66,272.45 187.72,265.45 189.25,258.60 191.27,251.93 193.74,245.46 196.67,239.23 200.05,233.25 203.85,227.56 208.06,222.19 212.67,217.14 217.65,212.45 222.99,208.14 228.65,204.22 234.62,200.70 240.87,197.62 247.37,194.97 254.10,192.77 261.02,191.03 268.12,189.76 275.34,188.96 282.68,188.64 290.09,188.79 297.54,189.42 305.00,190.52 312.44,192.09 319.82,194.12 327.12,196.61 334.31,199.54 341.35,202.90 348.21,206.67 354.86,210.85 361.28,215.40 367.44,220.32 373.31,225.58 378.86,231.16 384.08,237.03 388.94,243.18 393.41,249.56 397.49,256.16 401.15,262.95 404.37,269.90 407.15,276.98 409.47,284.16 411.32,291.40 412.70,298.68 413.59,305.97 413.99,313.23 413.91,320.43 413.34,327.55 412.28,334.55 410.75,341.40 408.73,348.07 406.26,354.54 403.33,360.77 399.95,366.75 396.15,372.44"/>
  <polyline points="379.47,380.57 374.64,385.00 369.48,389.07 364.02,392.75 358.30,396.04 352.32,398.92 346.11,401.37 339.71,403.39 333.15,404.97 326.43,406.10 319.61,406.77 312.70,406.99 305.74,406.75 298.75,406.05 291.76,404.89 284.82,403.29 277.94,401.25 271.15,398.77 264.48,395.87 257.97,392.55 251.64,388.85 245.51,384.76 239.62,380.31 233.99,375.51 228.64,370.39 223.59,364.97 218.87,359.27 214.50,353.32 210.50,347.14 206.88,340.76 203.66,334.20 200.85,327.50 198.46,320.68 196.51,313.77 195.00,306.80 193.95,299.80 193.34,292.80 193.20,285.84 193.51,278.93 194.27,272.12 195.49,265.42 197.16,258.87 199.27,252.50 201.81,246.33 204.76,240.39 208.13,234.71 211.89,229.31 216.03,224.21 220.53,219.43 225.36,215.00 230.52,210.93 235.98,207.25 241.70,203.96 247.68,201.08 253.89,198.63 260.29,196.61 266.85,195.03 273.57,193.90 280.39,193.23 287.30,193.01 294.26,193.25 301.25,193.95 308.24,195.11 315.18,196.71 322.06,198.75 328.85,201.23 335.52,204.13 342.03,207.45 348.36,211.15 354.49,215.24 360.38,219.69 366.01,224.49 371.36,229.61 376.41,235.03 381.13,240.73 385.50,246.68 389.50,252.86 393.12,259.24 396.34,265.80 399.15,272.50 401.54,279.32 403.49,286.23 405.00,293.20 406.05,300.20 406.66,307.20 406.80,314.16 406.49,321.07 405.73,327.88 404.51,334.58 402.84,341.13 400.73,347.50 398.19,353.67 395.24,359.61 391.87,365.29 388.11,370.69 383.97,375.79"/>
  <polyline points="367.37,381.70 362.39,385.51 357.15,388.96 351.66,392.02 345.95,394.69 340.04,396.96 333.96,398.81 327.73,400.23 321.39,401.23 314.95,401.80 308.45,401.92 301.92,401.62 295.37,400.87 288.85,399.70 282.37,398.10 275.97,396.07 269.67,393.64 263.50,390.80 257.49,387.58 251.66,383.98 246.04,380.02 240.65,375.72 235.51,371.10 230.65,366.17 226.08,360.96 221.83,355.48 217.92,349.77 214.36,343.85 211.16,337.73 208.35,331.46 205.93,325.05 203.91,318.53 202.30,311.94 201.11,305.29 200.34,298.62 200.00,291.96 200.09,285.33 200.61,278.77 201.55,272.29 202.91,265.93 204.69,259.72 206.88,253.69 209.47,247.85 212.44,242.23 215.79,236.86 219.50,231.76 223.56,226.96 227.94,222.46 232.63,218.30 237.61,214.49 242.85,211.04 248.34,207.98 254.05,205.31 259.96,203.04 266.04,201.19 272.27,199.77 278.61,198.77 285.05,198.20 291.55,198.08 298.08,198.38 304.63,199.13 311.15,200.30 317.63,201.90 324.03,203.93 330.33,206.36 336.50,209.20 342.51,212.42 348.34,216.02 353.96,219.98 359.35,224.28 364.49,228.90 369.35,233.83 373.92,239.04 378.17,244.52 382.08,250.23 385.64,256.15 388.84,262.27 391.65,268.54 394.07,274.95 396.09,281.47 397.70,288.06 398.89,294.71 399.66,301.38 400.00,308.04 399.91,314.67 399.39,321.23 398.45,327.71 397.09,334.07 395.31,340.28 393.12,346.31 390.53,352.15 387.56,357.77 384.21,363.14 380.50,368.24 376.44,373.04 372.06,377.54"/>
  <polyline points="355.80,381.31 350.77,384.51 345.52,387.35 340.08,389.81 334.46,391.89 328.70,393.57 322.81,394.85 316.82,395.73 310.77,396.20 304.66,396.25 298.54,395.89 292.43,395.13 286.34,393.95 280.32,392.37 274.37,390.40 268.54,388.04 262.85,385.30 257.31,382.20 251.95,378.74 246.81,374.95 241.88,370.84 237.21,366.42 232.81,361.72 228.69,356.76 224.88,351.55 221.39,346.12 218.24,340.50 215.44,334.70 213.00,328.75 210.93,322.68 209.24,316.51 207.95,310.27 207.04,303.99 206.54,297.69 206.43,291.40 206.73,285.14 207.42,278.95 208.52,272.85 210.00,266.87 211.87,261.03 214.11,255.36 216.73,249.87 219.70,244.60 223.01,239.57 226.66,234.80 230.61,230.31 234.87,226.11 239.40,222.23 244.20,218.69 249.23,215.49 254.48,212.65 259.92,210.19 265.54,208.11 271.30,206.43 277.19,205.15 283.18,204.27 289.23,203.80 295.34,203.75 301.46,204.11 307.57,204.87 313.66,206.05 319.68,207.63 325.63,209.60 331.46,211.96 337.15,214.70 342.69,217.80 348.05,221.26 353.19,225.05 358.12,229.16 362.79,233.58 367.19,238.28 371.31,243.24 375.12,248.45 378.61,253.88 381.76,259.50 384.56,265.30 387.00,271.25 389.07,277.32 390.76,283.49 392.05,289.73 392.96,296.01 393.46,302.31 393.57,308.60 393.27,314.86 392.58,321.05 391.48,327.15 390.00,333.13 388.13,338.97 385.89,344.64 383.27,350.13 380.30,355.40 376.99,360.43 373.34,365.20 369.39,369.69 365.13,373.89 360.60,377.77"/>
  <polyline points="344.92,379.54 339.92,382.14 334.75,384.39 329.42,386.27 323.98,387.79 318.43,388.93 312.80,389.69 307.12,390.07 301.40,390.06 295.68,389.66 289.98,388.88 284.33,387.72 278.73,386.19 273.23,384.28 267.85,382.02 262.60,379.40 257.51,376.45 252.61,373.16 247.91,369.57 243.43,365.67 239.19,361.49 235.21,357.05 231.51,352.37 228.11,347.46 225.01,342.35 222.23,337.06 219.79,331.61 217.68,326.02 215.94,320.32 214.55,314.54 213.53,308.69 212.87,302.81 212.60,296.91 212.69,291.03 213.16,285.18 214.00,279.40 215.21,273.71 216.78,268.12 218.71,262.68 220.99,257.40 223.60,252.29 226.55,247.40 229.80,242.72 233.36,238.30 237.20,234.13 241.31,230.25 245.68,226.67 250.27,223.40 255.08,220.46 260.08,217.86 265.25,215.61 270.58,213.73 276.02,212.21 281.57,211.07 287.20,210.31 292.88,209.93 298.60,209.94 304.32,210.34 310.02,211.12 315.67,212.28 321.27,213.81 326.77,215.72 332.15,217.98 337.40,220.60 342.49,223.55 347.39,226.84 352.09,230.43 356.57,234.33 360.81,238.51 364.79,242.95 368.49,247.63 371.89,252.54 374.99,257.65 377.77,262.94 380.21,268.39 382.32,273.98 384.06,279.68 385.45,285.46 386.47,291.31 387.13,297.19 387.40,303.09 387.31,308.97 386.84,314.82 386.00,320.60 384.79,326.29 383.22,331.88 381.29,337.32 379.01,342.60 376.40,347.71 373.45,352.60 370.20,357.28 366.64,361.70 362.80,365.87 358.69,369.75 354.32,373.33 349.73,376.60"/>
  <polyline points="334.85,376.51 329.96,378.53 324.95,380.23 319.83,381.58 314.62,382.58 309.35,383.22 304.04,383.51 298.71,383.44 293.39,383.02 288.09,382.24 282.85,381.10 277.68,379.62 272.61,377.80 267.65,375.65 262.83,373.17 258.17,370.38 253.69,367.29 249.41,363.90 245.35,360.25 241.52,356.34 237.94,352.18 234.62,347.81 231.59,343.22 228.85,338.46 226.41,333.52 224.29,328.45 222.49,323.25 221.02,317.95 219.90,312.58 219.11,307.15 218.67,301.69 218.58,296.23 218.84,290.78 219.45,285.37 220.40,280.02 221.69,274.76 223.32,269.61 225.28,264.58 227.55,259.71 230.14,255.01 233.02,250.51 236.19,246.21 239.64,242.15 243.34,238.33 247.29,234.78 251.46,231.50 255.84,228.52 260.41,225.85 265.15,223.49 270.04,221.47 275.05,219.77 280.17,218.42 285.38,217.42 290.65,216.78 295.96,216.49 301.29,216.56 306.61,216.98 311.91,217.76 317.15,218.90 322.32,220.38 327.39,222.20 332.35,224.35 337.17,226.83 341.83,229.62 346.31,232.71 350.59,236.10 354.65,239.75 358.48,243.66 362.06,247.82 365.38,252.19 368.41,256.78 371.15,261.54 373.59,266.48 375.71,271.55 377.51,276.75 378.98,282.05 380.10,287.42 380.89,292.85 381.33,298.31 381.42,303.77 381.16,309.22 380.55,314.63 379.60,319.98 378.31,325.24 376.68,330.39 374.72,335.42 372.45,340.29 369.86,344.99 366.98,349.49 363.81,353.79 360.36,357.85 356.66,361.67 352.71,365.22 348.54,368.50 344.16,371.48 339.59,374.15"/>
  <polyline points="325.72,372.36 321.02,373.85 316.23,375.03 311.38,375.89 306.47,376.42 301.54,376.63 296.60,376.51 291.67,376.06 286.78,375.28 281.95,374.18 277.19,372.77 272.54,371.04 267.99,369.01 263.59,366.68 259.34,364.07 255.27,361.18 251.39,358.03 247.71,354.63 244.26,351.00 241.05,347.15 238.09,343.10 235.40,338.86 232.98,334.46 230.85,329.91 229.02,325.23 227.49,320.44 226.27,315.57 225.36,310.63 224.78,305.64 224.52,300.63 224.58,295.62 224.96,290.62 225.67,285.67 226.69,280.78 228.03,275.97 229.68,271.26 231.62,266.67 233.86,262.23 236.39,257.95 239.18,253.85 242.24,249.95 245.54,246.26 249.08,242.80 252.83,239.59 256.79,236.64 260.93,233.95 265.24,231.55 269.69,229.45 274.28,227.64 278.98,226.15 283.77,224.97 288.62,224.11 293.53,223.58 298.46,223.37 303.40,223.49 308.33,223.94 313.22,224.72 318.05,225.82 322.81,227.23 327.46,228.96 332.01,230.99 336.41,233.32 340.66,235.93 344.73,238.82 348.61,241.97 352.29,245.37 355.74,249.00 358.95,252.85 361.91,256.90 364.60,261.14 367.02,265.54 369.15,270.09 370.98,274.77 372.51,279.56 373.73,284.43 374.64,289.37 375.22,294.36 375.48,299.37 375.42,304.38 375.04,309.38 374.33,314.33 373.31,319.22 371.97,324.03 370.32,328.74 368.38,333.33 366.14,337.77 363.61,342.05 360.82,346.15 357.76,350.05 354.46,353.74 350.92,357.20 347.17,360.41 343.21,363.36 339.07,366.05 334.76,368.45 330.31,370.55"/>
  <polyline points="317.62,367.25 313.18,368.26 308.69,368.97 304.16,369.39 299.61,369.52 295.06,369.34 290.54,368.87 286.06,368.11 281.63,367.05 277.29,365.70 273.04,364.08 268.90,362.18 264.90,360.01 261.05,357.59 257.37,354.92 253.87,352.01 250.57,348.88 247.48,345.54 244.61,342.01 241.98,338.30 239.60,334.42 237.48,330.40 235.62,326.24 234.05,321.98 232.75,317.62 231.74,313.18 231.03,308.69 230.61,304.16 230.48,299.61 230.66,295.06 231.13,290.54 231.89,286.06 232.95,281.63 234.30,277.29 235.92,273.04 237.82,268.90 239.99,264.90 242.41,261.05 245.08,257.37 247.99,253.87 251.12,250.57 254.46,247.48 257.99,244.61 261.70,241.98 265.58,239.60 269.60,237.48 273.76,235.62 278.02,234.05 282.38,232.75 286.82,231.74 291.31,231.03 295.84,230.61 300.39,230.48 304.94,230.66 309.46,231.13 313.94,231.89 318.37,232.95 322.71,234.30 326.96,235.92 331.10,237.82 335.10,239.99 338.95,242.41 342.63,245.08 346.13,247.99 349.43,251.12 352.52,254.46 355.39,257.99 358.02,261.70 360.40,265.58 362.52,269.60 364.38,273.76 365.95,278.02 367.25,282.38 368.26,286.82 368.97,291.31 369.39,295.84 369.52,300.39 369.34,304.94 368.87,309.46 368.11,313.94 367.05,318.37 365.70,322.71 364.08,326.96 362.18,331.10 360.01,335.10 357.59,338.95 354.92,342.63 352.01,346.13 348.88,349.43 345.54,352.52 342.01,355.39 338.30,358.02 334.42,360.40 330.40,362.52 326.24,364.38 321.98,365.95"/>
  </g>
</svg>
