<?xml version="1.0" encoding="UTF-8"?>
<svg xmlns="http://www.w3.org/2000/svg" viewBox="0 0 600 600" width="600" height="600" role="img" aria-label="Interactius shape · wave (Cultural transformation)">
  <title>Interactius shape · wave (Cultural transformation)</title>
  <defs>
    <linearGradient id="grad-wave" gradientUnits="userSpaceOnUse" x1="0" y1="0" x2="600" y2="600">
      <stop offset="0" stop-color="#5999A6"/>
      <stop offset="1" stop-color="#F5F2ED"/>
    </linearGradient>
  </defs>
  <g fill="none" stroke="url(#grad-wave)" stroke-width="4" stroke-linecap="round" stroke-dasharray="0 8">
  <polyline points="300.00,77.70 315.03,70.71 330.90,65.28 347.36,61.93 364.01,61.10 380.43,63.06 396.13,67.92 410.67,75.59 423.66,85.81 434.86,98.17 444.12,112.17 451.50,127.24 457.19,142.81 461.51,158.36 464.90,173.47 467.84,187.85 470.84,201.36 474.34,214.03 478.68,225.99 484.07,237.52 490.55,248.94 497.99,260.62 506.07,272.87 514.36,285.95 522.30,300.00 529.29,315.03 534.72,330.90 538.07,347.36 538.90,364.01 536.94,380.43 532.08,396.13 524.41,410.67 514.19,423.66 501.83,434.86 487.83,444.12 472.76,451.50 457.19,457.19 441.64,461.51 426.53,464.90 412.15,467.84 398.64,470.84 385.97,474.34 374.01,478.68 362.48,484.07 351.06,490.55 339.38,497.99 327.13,506.07 314.05,514.36 300.00,522.30 284.97,529.29 269.10,534.72 252.64,538.07 235.99,538.90 219.57,536.94 203.87,532.08 189.33,524.41 176.34,514.19 165.14,501.83 155.88,487.83 148.50,472.76 142.81,457.19 138.49,441.64 135.10,426.53 132.16,412.15 129.16,398.64 125.66,385.97 121.32,374.01 115.93,362.48 109.45,351.06 102.01,339.38 93.93,327.13 85.64,314.05 77.70,300.00 70.71,284.97 65.28,269.10 61.93,252.64 61.10,235.99 63.06,219.57 67.92,203.87 75.59,189.33 85.81,176.34 98.17,165.14 112.17,155.88 127.24,148.50 142.81,142.81 158.36,138.49 173.47,135.10 187.85,132.16 201.36,129.16 214.03,125.66 225.99,121.32 237.52,115.93 248.94,109.45 260.62,102.01 272.87,93.93 285.95,85.64"/>
  <polyline points="321.47,86.05 336.61,80.78 352.41,77.08 368.57,75.44 384.68,76.25 400.29,79.73 414.93,85.92 428.18,94.71 439.70,105.79 449.28,118.78 456.85,133.15 462.50,148.36 466.47,163.89 469.12,179.28 470.92,194.14 472.37,208.27 473.95,221.57 476.09,234.09 479.12,246.02 483.19,257.64 488.32,269.26 494.35,281.22 500.95,293.79 507.67,307.18 513.95,321.47 519.22,336.61 522.92,352.41 524.56,368.57 523.75,384.68 520.27,400.29 514.08,414.93 505.29,428.18 494.21,439.70 481.22,449.28 466.85,456.85 451.64,462.50 436.11,466.47 420.72,469.12 405.86,470.92 391.73,472.37 378.43,473.95 365.91,476.09 353.98,479.12 342.36,483.19 330.74,488.32 318.78,494.35 306.21,500.95 292.82,507.67 278.53,513.95 263.39,519.22 247.59,522.92 231.43,524.56 215.32,523.75 199.71,520.27 185.07,514.08 171.82,505.29 160.30,494.21 150.72,481.22 143.15,466.85 137.50,451.64 133.53,436.11 130.88,420.72 129.08,405.86 127.63,391.73 126.05,378.43 123.91,365.91 120.88,353.98 116.81,342.36 111.68,330.74 105.65,318.78 99.05,306.21 92.33,292.82 86.05,278.53 80.78,263.39 77.08,247.59 75.44,231.43 76.25,215.32 79.73,199.71 85.92,185.07 94.71,171.82 105.79,160.30 118.78,150.72 133.15,143.15 148.36,137.50 163.89,133.53 179.28,130.88 194.14,129.08 208.27,127.63 221.57,126.05 234.09,123.91 246.02,120.88 257.64,116.81 269.26,111.68 281.22,105.65 293.79,99.05 307.18,92.33"/>
  <polyline points="341.27,96.39 356.34,92.78 371.88,90.75 387.57,90.74 402.99,93.07 417.66,97.92 431.14,105.28 443.03,115.01 453.03,126.78 460.99,140.18 466.88,154.73 470.84,169.90 473.16,185.21 474.23,200.26 474.53,214.72 474.55,228.44 474.79,241.38 475.64,253.62 477.40,265.39 480.19,276.95 484.01,288.61 488.65,300.69 493.78,313.41 498.94,326.93 503.61,341.27 507.22,356.34 509.25,371.88 509.26,387.57 506.93,402.99 502.08,417.66 494.72,431.14 484.99,443.03 473.22,453.03 459.82,460.99 445.27,466.88 430.10,470.84 414.79,473.16 399.74,474.23 385.28,474.53 371.56,474.55 358.62,474.79 346.38,475.64 334.61,477.40 323.05,480.19 311.39,484.01 299.31,488.65 286.59,493.78 273.07,498.94 258.73,503.61 243.66,507.22 228.12,509.25 212.43,509.26 197.01,506.93 182.34,502.08 168.86,494.72 156.97,484.99 146.97,473.22 139.01,459.82 133.12,445.27 129.16,430.10 126.84,414.79 125.77,399.74 125.47,385.28 125.45,371.56 125.21,358.62 124.36,346.38 122.60,334.61 119.81,323.05 115.99,311.39 111.35,299.31 106.22,286.59 101.06,273.07 96.39,258.73 92.78,243.66 90.75,228.12 90.74,212.43 93.07,197.01 97.92,182.34 105.28,168.86 115.01,156.97 126.78,146.97 140.18,139.01 154.73,133.12 169.90,129.16 185.21,126.84 200.26,125.77 214.72,125.47 228.44,125.45 241.38,125.21 253.62,124.36 265.39,122.60 276.95,119.81 288.61,115.99 300.69,111.35 313.41,106.22 326.93,101.06"/>
  <polyline points="359.24,108.48 374.05,106.46 389.18,106.01 404.25,107.51 418.82,111.24 432.44,117.31 444.67,125.67 455.15,136.15 463.62,148.42 469.97,162.06 474.23,176.59 476.57,191.54 477.32,206.47 476.90,221.01 475.79,234.93 474.49,248.11 473.48,260.55 473.11,272.39 473.66,283.86 475.24,295.22 477.77,306.79 481.07,318.84 484.77,331.55 488.42,345.02 491.52,359.24 493.54,374.05 493.99,389.18 492.49,404.25 488.76,418.82 482.69,432.44 474.33,444.67 463.85,455.15 451.58,463.62 437.94,469.97 423.41,474.23 408.46,476.57 393.53,477.32 378.99,476.90 365.07,475.79 351.89,474.49 339.45,473.48 327.61,473.11 316.14,473.66 304.78,475.24 293.21,477.77 281.16,481.07 268.45,484.77 254.98,488.42 240.76,491.52 225.95,493.54 210.82,493.99 195.75,492.49 181.18,488.76 167.56,482.69 155.33,474.33 144.85,463.85 136.38,451.58 130.03,437.94 125.77,423.41 123.43,408.46 122.68,393.53 123.10,378.99 124.21,365.07 125.51,351.89 126.52,339.45 126.89,327.61 126.34,316.14 124.76,304.78 122.23,293.21 118.93,281.16 115.23,268.45 111.58,254.98 108.48,240.76 106.46,225.95 106.01,210.82 107.51,195.75 111.24,181.18 117.31,167.56 125.67,155.33 136.15,144.85 148.42,136.38 162.06,130.03 176.59,125.77 191.54,123.43 206.47,122.68 221.01,123.10 234.93,124.21 248.11,125.51 260.55,126.52 272.39,126.89 283.86,126.34 295.22,124.76 306.79,122.23 318.84,118.93 331.55,115.23 345.02,111.58"/>
  <polyline points="375.24,122.05 389.63,121.54 404.18,122.57 418.48,125.45 432.09,130.43 444.57,137.56 455.49,146.76 464.54,157.82 471.48,170.40 476.26,184.08 478.94,198.43 479.74,212.99 479.03,227.37 477.22,241.28 474.82,254.52 472.31,267.03 470.14,278.86 468.65,290.18 468.08,301.23 468.49,312.28 469.81,323.62 471.81,335.48 474.14,348.03 476.35,361.30 477.95,375.24 478.46,389.63 477.43,404.18 474.55,418.48 469.57,432.09 462.44,444.57 453.24,455.49 442.18,464.54 429.60,471.48 415.92,476.26 401.57,478.94 387.01,479.74 372.63,479.03 358.72,477.22 345.48,474.82 332.97,472.31 321.14,470.14 309.82,468.65 298.77,468.08 287.72,468.49 276.38,469.81 264.52,471.81 251.97,474.14 238.70,476.35 224.76,477.95 210.37,478.46 195.82,477.43 181.52,474.55 167.91,469.57 155.43,462.44 144.51,453.24 135.46,442.18 128.52,429.60 123.74,415.92 121.06,401.57 120.26,387.01 120.97,372.63 122.78,358.72 125.18,345.48 127.69,332.97 129.86,321.14 131.35,309.82 131.92,298.77 131.51,287.72 130.19,276.38 128.19,264.52 125.86,251.97 123.65,238.70 122.05,224.76 121.54,210.37 122.57,195.82 125.45,181.52 130.43,167.91 137.56,155.43 146.76,144.51 157.82,135.46 170.40,128.52 184.08,123.74 198.43,121.06 212.99,120.26 227.37,120.97 241.28,122.78 254.52,125.18 267.03,127.69 278.86,129.86 290.18,131.35 301.23,131.92 312.28,131.51 323.62,130.19 335.48,128.19 348.03,125.86 361.30,123.65"/>
  <polyline points="389.14,136.84 402.97,137.73 416.80,140.11 430.22,144.25 442.78,150.32 454.04,158.34 463.61,168.21 471.21,179.66 476.65,192.37 479.91,205.94 481.10,219.93 480.47,233.95 478.40,247.66 475.34,260.80 471.77,273.25 468.16,284.99 464.95,296.11 462.43,306.80 460.82,317.32 460.16,327.95 460.33,338.93 461.11,350.48 462.13,362.72 462.97,375.64 463.16,389.14 462.27,402.97 459.89,416.80 455.75,430.22 449.68,442.78 441.66,454.04 431.79,463.61 420.34,471.21 407.63,476.65 394.06,479.91 380.07,481.10 366.05,480.47 352.34,478.40 339.20,475.34 326.75,471.77 315.01,468.16 303.89,464.95 293.20,462.43 282.68,460.82 272.05,460.16 261.07,460.33 249.52,461.11 237.28,462.13 224.36,462.97 210.86,463.16 197.03,462.27 183.20,459.89 169.78,455.75 157.22,449.68 145.96,441.66 136.39,431.79 128.79,420.34 123.35,407.63 120.09,394.06 118.90,380.07 119.53,366.05 121.60,352.34 124.66,339.20 128.23,326.75 131.84,315.01 135.05,303.89 137.57,293.20 139.18,282.68 139.84,272.05 139.67,261.07 138.89,249.52 137.87,237.28 137.03,224.36 136.84,210.86 137.73,197.03 140.11,183.20 144.25,169.78 150.32,157.22 158.34,145.96 168.21,136.39 179.66,128.79 192.37,123.35 205.94,120.09 219.93,118.90 233.95,119.53 247.66,121.60 260.80,124.66 273.25,128.23 284.99,131.84 296.11,135.05 306.80,137.57 317.32,139.18 327.95,139.84 338.93,139.67 350.48,138.89 362.72,137.87 375.64,137.03"/>
  <polyline points="400.87,152.56 414.01,154.74 427.01,158.34 439.44,163.58 450.86,170.59 460.86,179.34 469.07,189.69 475.23,201.37 479.22,214.05 481.03,227.33 480.82,240.82 478.88,254.16 475.59,267.07 471.40,279.34 466.79,290.90 462.22,301.78 458.07,312.10 454.65,322.09 452.10,331.99 450.44,342.08 449.56,352.60 449.19,363.72 448.99,375.51 448.55,387.95 447.44,400.87 445.26,414.01 441.66,427.01 436.42,439.44 429.41,450.86 420.66,460.86 410.31,469.07 398.63,475.23 385.95,479.22 372.67,481.03 359.18,480.82 345.84,478.88 332.93,475.59 320.66,471.40 309.10,466.79 298.22,462.22 287.90,458.07 277.91,454.65 268.01,452.10 257.92,450.44 247.40,449.56 236.28,449.19 224.49,448.99 212.05,448.55 199.13,447.44 185.99,445.26 172.99,441.66 160.56,436.42 149.14,429.41 139.14,420.66 130.93,410.31 124.77,398.63 120.78,385.95 118.97,372.67 119.18,359.18 121.12,345.84 124.41,332.93 128.60,320.66 133.21,309.10 137.78,298.22 141.93,287.90 145.35,277.91 147.90,268.01 149.56,257.92 150.44,247.40 150.81,236.28 151.01,224.49 151.45,212.05 152.56,199.13 154.74,185.99 158.34,172.99 163.58,160.56 170.59,149.14 179.34,139.14 189.69,130.93 201.37,124.77 214.05,120.78 227.33,118.97 240.82,119.18 254.16,121.12 267.07,124.41 279.34,128.60 290.90,133.21 301.78,137.78 312.10,141.93 322.09,145.35 331.99,147.90 342.08,149.56 352.60,150.44 363.72,150.81 375.51,151.01 387.95,151.45"/>
  <polyline points="410.40,168.93 422.73,172.27 434.79,176.95 446.16,183.15 456.39,190.93 465.09,200.24 471.94,210.90 476.70,222.64 479.29,235.12 479.75,247.97 478.26,260.83 475.13,273.38 470.75,285.38 465.57,296.70 460.07,307.29 454.66,317.23 449.72,326.69 445.49,335.89 442.11,345.10 439.56,354.57 437.71,364.53 436.30,375.11 434.98,386.35 433.37,398.17 431.07,410.40 427.73,422.73 423.05,434.79 416.85,446.16 409.07,456.39 399.76,465.09 389.10,471.94 377.36,476.70 364.88,479.29 352.03,479.75 339.17,478.26 326.62,475.13 314.62,470.75 303.30,465.57 292.71,460.07 282.77,454.66 273.31,449.72 264.11,445.49 254.90,442.11 245.43,439.56 235.47,437.71 224.89,436.30 213.65,434.98 201.83,433.37 189.60,431.07 177.27,427.73 165.21,423.05 153.84,416.85 143.61,409.07 134.91,399.76 128.06,389.10 123.30,377.36 120.71,364.88 120.25,352.03 121.74,339.17 124.87,326.62 129.25,314.62 134.43,303.30 139.93,292.71 145.34,282.77 150.28,273.31 154.51,264.11 157.89,254.90 160.44,245.43 162.29,235.47 163.70,224.89 165.02,213.65 166.63,201.83 168.93,189.60 172.27,177.27 176.95,165.21 183.15,153.84 190.93,143.61 200.24,134.91 210.90,128.06 222.64,123.30 235.12,120.71 247.97,120.25 260.83,121.74 273.38,124.87 285.38,129.25 296.70,134.43 307.29,139.93 317.23,145.34 326.69,150.28 335.89,154.51 345.10,157.89 354.57,160.44 364.53,162.29 375.11,163.70 386.35,165.02 398.17,166.63"/>
  <polyline points="417.72,185.67 429.15,190.04 440.19,195.65 450.42,202.64 459.43,211.03 466.83,220.74 472.33,231.55 475.75,243.19 477.02,255.33 476.23,267.61 473.58,279.72 469.40,291.38 464.08,302.40 458.07,312.68 451.81,322.25 445.71,331.20 440.10,339.74 435.19,348.10 431.09,356.55 427.75,365.34 425.04,374.65 422.68,384.59 420.35,395.17 417.68,406.29 414.33,417.72 409.96,429.15 404.35,440.19 397.36,450.42 388.97,459.43 379.26,466.83 368.45,472.33 356.81,475.75 344.67,477.02 332.39,476.23 320.28,473.58 308.62,469.40 297.60,464.08 287.32,458.07 277.75,451.81 268.80,445.71 260.26,440.10 251.90,435.19 243.45,431.09 234.66,427.75 225.35,425.04 215.41,422.68 204.83,420.35 193.71,417.68 182.28,414.33 170.85,409.96 159.81,404.35 149.58,397.36 140.57,388.97 133.17,379.26 127.67,368.45 124.25,356.81 122.98,344.67 123.77,332.39 126.42,320.28 130.60,308.62 135.92,297.60 141.93,287.32 148.19,277.75 154.29,268.80 159.90,260.26 164.81,251.90 168.91,243.45 172.25,234.66 174.96,225.35 177.32,215.41 179.65,204.83 182.32,193.71 185.67,182.28 190.04,170.85 195.65,159.81 202.64,149.58 211.03,140.57 220.74,133.17 231.55,127.67 243.19,124.25 255.33,122.98 267.61,123.77 279.72,126.42 291.38,130.60 302.40,135.92 312.68,141.93 322.25,148.19 331.20,154.29 339.74,159.90 348.10,164.81 356.55,168.91 365.34,172.25 374.65,174.96 384.59,177.32 395.17,179.65 406.29,182.32"/>
  <polyline points="422.84,202.52 433.29,207.76 443.26,214.15 452.32,221.77 460.09,230.61 466.20,240.54 470.40,251.35 472.54,262.75 472.59,274.41 470.67,286.02 466.99,297.28 461.90,307.96 455.79,317.93 449.10,327.14 442.23,335.64 435.58,343.57 429.42,351.15 423.96,358.64 419.25,366.28 415.25,374.32 411.77,382.91 408.58,392.14 405.36,401.98 401.76,412.29 397.48,422.84 392.24,433.29 385.85,443.26 378.23,452.32 369.39,460.09 359.46,466.20 348.65,470.40 337.25,472.54 325.59,472.59 313.98,470.67 302.72,466.99 292.04,461.90 282.07,455.79 272.86,449.10 264.36,442.23 256.43,435.58 248.85,429.42 241.36,423.96 233.72,419.25 225.68,415.25 217.09,411.77 207.86,408.58 198.02,405.36 187.71,401.76 177.16,397.48 166.71,392.24 156.74,385.85 147.68,378.23 139.91,369.39 133.80,359.46 129.60,348.65 127.46,337.25 127.41,325.59 129.33,313.98 133.01,302.72 138.10,292.04 144.21,282.07 150.90,272.86 157.77,264.36 164.42,256.43 170.58,248.85 176.04,241.36 180.75,233.72 184.75,225.68 188.23,217.09 191.42,207.86 194.64,198.02 198.24,187.71 202.52,177.16 207.76,166.71 214.15,156.74 221.77,147.68 230.61,139.91 240.54,133.80 251.35,129.60 262.75,127.46 274.41,127.41 286.02,129.33 297.28,133.01 307.96,138.10 317.93,144.21 327.14,150.90 335.64,157.77 343.57,164.42 351.15,170.58 358.64,176.04 366.28,180.75 374.32,184.75 382.91,188.23 392.14,191.42 401.98,194.64 412.29,198.24"/>
  <polyline points="425.84,219.20 435.26,225.17 444.10,232.18 451.98,240.27 458.50,249.40 463.36,259.41 466.32,270.06 467.26,281.08 466.20,292.15 463.27,302.98 458.71,313.32 452.86,322.97 446.12,331.85 438.89,339.94 431.56,347.35 424.49,354.25 417.93,360.86 412.04,367.44 406.84,374.25 402.28,381.49 398.16,389.31 394.26,397.76 390.26,406.79 385.87,416.24 380.80,425.84 374.83,435.26 367.82,444.10 359.73,451.98 350.60,458.50 340.59,463.36 329.94,466.32 318.92,467.26 307.85,466.20 297.02,463.27 286.68,458.71 277.03,452.86 268.15,446.12 260.06,438.89 252.65,431.56 245.75,424.49 239.14,417.93 232.56,412.04 225.75,406.84 218.51,402.28 210.69,398.16 202.24,394.26 193.21,390.26 183.76,385.87 174.16,380.80 164.74,374.83 155.90,367.82 148.02,359.73 141.50,350.60 136.64,340.59 133.68,329.94 132.74,318.92 133.80,307.85 136.73,297.02 141.29,286.68 147.14,277.03 153.88,268.15 161.11,260.06 168.44,252.65 175.51,245.75 182.07,239.14 187.96,232.56 193.16,225.75 197.72,218.51 201.84,210.69 205.74,202.24 209.74,193.21 214.13,183.76 219.20,174.16 225.17,164.74 232.18,155.90 240.27,148.02 249.40,141.50 259.41,136.64 270.06,133.68 281.08,132.74 292.15,133.80 302.98,136.73 313.32,141.29 322.97,147.14 331.85,153.88 339.94,161.11 347.35,168.44 354.25,175.51 360.86,182.07 367.44,187.96 374.25,193.16 381.49,197.72 389.31,201.84 397.76,205.74 406.79,209.74 416.24,214.13"/>
  <polyline points="426.79,235.47 435.14,242.01 442.85,249.48 449.54,257.90 454.84,267.16 458.49,277.09 460.28,287.46 460.12,297.97 458.07,308.35 454.27,318.33 448.97,327.68 442.52,336.26 435.29,344.02 427.67,351.00 420.04,357.32 412.69,363.18 405.86,368.81 399.65,374.48 394.08,380.43 389.07,386.85 384.44,393.86 379.94,401.49 375.30,409.66 370.24,418.19 364.53,426.79 357.99,435.14 350.52,442.85 342.10,449.54 332.84,454.84 322.91,458.49 312.54,460.28 302.03,460.12 291.65,458.07 281.67,454.27 272.32,448.97 263.74,442.52 255.98,435.29 249.00,427.67 242.68,420.04 236.82,412.69 231.19,405.86 225.52,399.65 219.57,394.08 213.15,389.07 206.14,384.44 198.51,379.94 190.34,375.30 181.81,370.24 173.21,364.53 164.86,357.99 157.15,350.52 150.46,342.10 145.16,332.84 141.51,322.91 139.72,312.54 139.88,302.03 141.93,291.65 145.73,281.67 151.03,272.32 157.48,263.74 164.71,255.98 172.33,249.00 179.96,242.68 187.31,236.82 194.14,231.19 200.35,225.52 205.92,219.57 210.93,213.15 215.56,206.14 220.06,198.51 224.70,190.34 229.76,181.81 235.47,173.21 242.01,164.86 249.48,157.15 257.90,150.46 267.16,145.16 277.09,141.51 287.46,139.72 297.97,139.88 308.35,141.93 318.33,145.73 327.68,151.03 336.26,157.48 344.02,164.71 351.00,172.33 357.32,179.96 363.18,187.31 368.81,194.14 374.48,200.35 380.43,205.92 386.85,210.93 393.86,215.56 401.49,220.06 409.66,224.70 418.19,229.76"/>
  <polyline points="425.82,251.08 433.08,258.05 439.65,265.84 445.17,274.42 449.30,283.66 451.80,293.39 452.51,303.34 451.37,313.26 448.45,322.86 443.91,331.92 438.02,340.24 431.12,347.74 423.56,354.38 415.71,360.25 407.90,365.49 400.41,370.32 393.42,374.99 387.03,379.76 381.21,384.85 375.87,390.43 370.83,396.62 365.86,403.39 360.70,410.67 355.12,418.24 348.92,425.82 341.95,433.08 334.16,439.65 325.58,445.17 316.34,449.30 306.61,451.80 296.66,452.51 286.74,451.37 277.14,448.45 268.08,443.91 259.76,438.02 252.26,431.12 245.62,423.56 239.75,415.71 234.51,407.90 229.68,400.41 225.01,393.42 220.24,387.03 215.15,381.21 209.57,375.87 203.38,370.83 196.61,365.86 189.33,360.70 181.76,355.12 174.18,348.92 166.92,341.95 160.35,334.16 154.83,325.58 150.70,316.34 148.20,306.61 147.49,296.66 148.63,286.74 151.55,277.14 156.09,268.08 161.98,259.76 168.88,252.26 176.44,245.62 184.29,239.75 192.10,234.51 199.59,229.68 206.58,225.01 212.97,220.24 218.79,215.15 224.13,209.57 229.17,203.38 234.14,196.61 239.30,189.33 244.88,181.76 251.08,174.18 258.05,166.92 265.84,160.35 274.42,154.83 283.66,150.70 293.39,148.20 303.34,147.49 313.26,148.63 322.86,151.55 331.92,156.09 340.24,161.98 347.74,168.88 354.38,176.44 360.25,184.29 365.49,192.10 370.32,199.59 374.99,206.58 379.76,212.97 384.85,218.79 390.43,224.13 396.62,229.17 403.39,234.14 410.67,239.30 418.24,244.88"/>
  <polyline points="423.07,265.83 429.25,273.08 434.69,281.03 439.08,289.63 442.10,298.72 443.53,308.11 443.25,317.55 441.24,326.78 437.58,335.54 432.46,343.64 426.13,350.92 418.92,357.32 411.18,362.86 403.24,367.64 395.39,371.84 387.88,375.68 380.86,379.42 374.39,383.30 368.43,387.54 362.88,392.30 357.55,397.64 352.23,403.55 346.69,409.91 340.72,416.51 334.17,423.07 326.92,429.25 318.97,434.69 310.37,439.08 301.28,442.10 291.89,443.53 282.45,443.25 273.22,441.24 264.46,437.58 256.36,432.46 249.08,426.13 242.68,418.92 237.14,411.18 232.36,403.24 228.16,395.39 224.32,387.88 220.58,380.86 216.70,374.39 212.46,368.43 207.70,362.88 202.36,357.55 196.45,352.23 190.09,346.69 183.49,340.72 176.93,334.17 170.75,326.92 165.31,318.97 160.92,310.37 157.90,301.28 156.47,291.89 156.75,282.45 158.76,273.22 162.42,264.46 167.54,256.36 173.87,249.08 181.08,242.68 188.82,237.14 196.76,232.36 204.61,228.16 212.12,224.32 219.14,220.58 225.61,216.70 231.57,212.46 237.12,207.70 242.45,202.36 247.77,196.45 253.31,190.09 259.28,183.49 265.83,176.93 273.08,170.75 281.03,165.31 289.63,160.92 298.72,157.90 308.11,156.47 317.55,156.75 326.78,158.76 335.54,162.42 343.64,167.54 350.92,173.87 357.32,181.08 362.86,188.82 367.64,196.76 371.84,204.61 375.68,212.12 379.42,219.14 383.30,225.61 387.54,231.57 392.30,237.12 397.64,242.45 403.55,247.77 409.91,253.31 416.51,259.28"/>
  <polyline points="418.69,279.53 423.81,286.91 428.17,294.88 431.48,303.36 433.45,312.18 433.91,321.12 432.77,329.95 430.01,338.42 425.75,346.30 420.18,353.42 413.56,359.66 406.19,364.98 398.40,369.45 390.50,373.19 382.75,376.39 375.34,379.29 368.40,382.14 361.96,385.17 355.97,388.59 350.31,392.53 344.81,397.04 339.26,402.09 333.46,407.53 327.24,413.16 320.47,418.69 313.09,423.81 305.12,428.17 296.64,431.48 287.82,433.45 278.88,433.91 270.05,432.77 261.58,430.01 253.70,425.75 246.58,420.18 240.34,413.56 235.02,406.19 230.55,398.40 226.81,390.50 223.61,382.75 220.71,375.34 217.86,368.40 214.83,361.96 211.41,355.97 207.47,350.31 202.96,344.81 197.91,339.26 192.47,333.46 186.84,327.24 181.31,320.47 176.19,313.09 171.83,305.12 168.52,296.64 166.55,287.82 166.09,278.88 167.23,270.05 169.99,261.58 174.25,253.70 179.82,246.58 186.44,240.34 193.81,235.02 201.60,230.55 209.50,226.81 217.25,223.61 224.66,220.71 231.60,217.86 238.04,214.83 244.03,211.41 249.69,207.47 255.19,202.96 260.74,197.91 266.54,192.47 272.76,186.84 279.53,181.31 286.91,176.19 294.88,171.83 303.36,168.52 312.18,166.55 321.12,166.09 329.95,167.23 338.42,169.99 346.30,174.25 353.42,179.82 359.66,186.44 364.98,193.81 369.45,201.60 373.19,209.50 376.39,217.25 379.29,224.66 382.14,231.60 385.17,238.04 388.59,244.03 392.53,249.69 397.04,255.19 402.09,260.74 407.53,266.54 413.16,272.76"/>
  <polyline points="412.89,291.99 416.98,299.37 420.31,307.24 422.60,315.47 423.62,323.90 423.22,332.31 421.31,340.46 417.94,348.12 413.22,355.08 407.35,361.21 400.57,366.42 393.18,370.71 385.48,374.16 377.74,376.92 370.19,379.18 363.00,381.20 356.24,383.20 349.94,385.44 344.02,388.07 338.36,391.22 332.79,394.93 327.13,399.12 321.20,403.67 314.85,408.35 308.01,412.89 300.63,416.98 292.76,420.31 284.53,422.60 276.10,423.62 267.69,423.22 259.54,421.31 251.88,417.94 244.92,413.22 238.79,407.35 233.58,400.57 229.29,393.18 225.84,385.48 223.08,377.74 220.82,370.19 218.80,363.00 216.80,356.24 214.56,349.94 211.93,344.02 208.78,338.36 205.07,332.79 200.88,327.13 196.33,321.20 191.65,314.85 187.11,308.01 183.02,300.63 179.69,292.76 177.40,284.53 176.38,276.10 176.78,267.69 178.69,259.54 182.06,251.88 186.78,244.92 192.65,238.79 199.43,233.58 206.82,229.29 214.52,225.84 222.26,223.08 229.81,220.82 237.00,218.80 243.76,216.80 250.06,214.56 255.98,211.93 261.64,208.78 267.21,205.07 272.87,200.88 278.80,196.33 285.15,191.65 291.99,187.11 299.37,183.02 307.24,179.69 315.47,177.40 323.90,176.38 332.31,176.78 340.46,178.69 348.12,182.06 355.08,186.78 361.21,192.65 366.42,199.43 370.71,206.82 374.16,214.52 376.92,222.26 379.18,229.81 381.20,237.00 383.20,243.76 385.44,250.06 388.07,255.98 391.22,261.64 394.93,267.21 399.12,272.87 403.67,278.80 408.35,285.15"/>
  <polyline points="405.85,303.09 408.97,310.35 411.34,317.98 412.70,325.86 412.86,333.80 411.70,341.59 409.17,349.00 405.32,355.82 400.27,361.86 394.23,367.02 387.43,371.24 380.15,374.54 372.66,377.03 365.20,378.88 357.96,380.28 351.07,381.48 344.59,382.72 338.51,384.21 332.76,386.11 327.19,388.52 321.66,391.44 316.00,394.82 310.05,398.50 303.71,402.27 296.91,405.85 289.65,408.97 282.02,411.34 274.14,412.70 266.20,412.86 258.41,411.70 251.00,409.17 244.18,405.32 238.14,400.27 232.98,394.23 228.76,387.43 225.46,380.15 222.97,372.66 221.12,365.20 219.72,357.96 218.52,351.07 217.28,344.59 215.79,338.51 213.89,332.76 211.48,327.19 208.56,321.66 205.18,316.00 201.50,310.05 197.73,303.71 194.15,296.91 191.03,289.65 188.66,282.02 187.30,274.14 187.14,266.20 188.30,258.41 190.83,251.00 194.68,244.18 199.73,238.14 205.77,232.98 212.57,228.76 219.85,225.46 227.34,222.97 234.80,221.12 242.04,219.72 248.93,218.52 255.41,217.28 261.49,215.79 267.24,213.89 272.81,211.48 278.34,208.56 284.00,205.18 289.95,201.50 296.29,197.73 303.09,194.15 310.35,191.03 317.98,188.66 325.86,187.30 333.80,187.14 341.59,188.30 349.00,190.83 355.82,194.68 361.86,199.73 367.02,205.77 371.24,212.57 374.54,219.85 377.03,227.34 378.88,234.80 380.28,242.04 381.48,248.93 382.72,255.41 384.21,261.49 386.11,267.24 388.52,272.81 391.44,278.34 394.82,284.00 398.50,289.95 402.27,296.29"/>
  <polyline points="397.80,312.71 400.01,319.72 401.50,327.01 402.03,334.44 401.44,341.82 399.64,348.93 396.61,355.56 392.40,361.51 387.16,366.65 381.08,370.86 374.39,374.14 367.34,376.53 360.17,378.14 353.08,379.15 346.24,379.78 339.75,380.25 333.63,380.80 327.86,381.61 322.35,382.84 316.97,384.55 311.57,386.75 306.01,389.35 300.16,392.21 293.93,395.11 287.29,397.80 280.28,400.01 272.99,401.50 265.56,402.03 258.18,401.44 251.07,399.64 244.44,396.61 238.49,392.40 233.35,387.16 229.14,381.08 225.86,374.39 223.47,367.34 221.86,360.17 220.85,353.08 220.22,346.24 219.75,339.75 219.20,333.63 218.39,327.86 217.16,322.35 215.45,316.97 213.25,311.57 210.65,306.01 207.79,300.16 204.89,293.93 202.20,287.29 199.99,280.28 198.50,272.99 197.97,265.56 198.56,258.18 200.36,251.07 203.39,244.44 207.60,238.49 212.84,233.35 218.92,229.14 225.61,225.86 232.66,223.47 239.83,221.86 246.92,220.85 253.76,220.22 260.25,219.75 266.37,219.20 272.14,218.39 277.65,217.16 283.03,215.45 288.43,213.25 293.99,210.65 299.84,207.79 306.07,204.89 312.71,202.20 319.72,199.99 327.01,198.50 334.44,197.97 341.82,198.56 348.93,200.36 355.56,203.39 361.51,207.60 366.65,212.84 370.86,218.92 374.14,225.61 376.53,232.66 378.14,239.83 379.15,246.92 379.78,253.76 380.25,260.25 380.80,266.37 381.61,272.14 382.84,277.65 384.55,283.03 386.75,288.43 389.35,293.99 392.21,299.84 395.11,306.07"/>
  <polyline points="388.96,320.75 390.35,327.42 391.04,334.28 390.85,341.18 389.62,347.92 387.30,354.30 383.89,360.13 379.47,365.24 374.17,369.48 368.17,372.81 361.71,375.21 354.99,376.75 348.23,377.58 341.60,377.85 335.24,377.80 329.21,377.64 323.52,377.57 318.13,377.79 312.94,378.41 307.82,379.49 302.64,381.02 297.28,382.90 291.62,385.00 285.61,387.09 279.25,388.96 272.58,390.35 265.72,391.04 258.82,390.85 252.08,389.62 245.70,387.30 239.87,383.89 234.76,379.47 230.52,374.17 227.19,368.17 224.79,361.71 223.25,354.99 222.42,348.23 222.15,341.60 222.20,335.24 222.36,329.21 222.43,323.52 222.21,318.13 221.59,312.94 220.51,307.82 218.98,302.64 217.10,297.28 215.00,291.62 212.91,285.61 211.04,279.25 209.65,272.58 208.96,265.72 209.15,258.82 210.38,252.08 212.70,245.70 216.11,239.87 220.53,234.76 225.83,230.52 231.83,227.19 238.29,224.79 245.01,223.25 251.77,222.42 258.40,222.15 264.76,222.20 270.79,222.36 276.48,222.43 281.87,222.21 287.06,221.59 292.18,220.51 297.36,218.98 302.72,217.10 308.38,215.00 314.39,212.91 320.75,211.04 327.42,209.65 334.28,208.96 341.18,209.15 347.92,210.38 354.30,212.70 360.13,216.11 365.24,220.53 369.48,225.83 372.81,231.83 375.21,238.29 376.75,245.01 377.58,251.77 377.85,258.40 377.80,264.76 377.64,270.79 377.57,276.48 377.79,281.87 378.41,287.06 379.49,292.18 381.02,297.36 382.90,302.72 385.00,308.38 387.09,314.39"/>
  <polyline points="379.56,327.18 380.22,333.41 380.22,339.76 379.41,346.05 377.67,352.12 374.96,357.75 371.30,362.78 366.78,367.04 361.53,370.44 355.74,372.94 349.60,374.54 343.30,375.34 337.04,375.47 330.94,375.12 325.12,374.48 319.61,373.78 314.41,373.20 309.45,372.90 304.64,372.99 299.86,373.51 294.98,374.44 289.89,375.67 284.51,377.06 278.82,378.43 272.82,379.56 266.59,380.22 260.24,380.22 253.95,379.41 247.88,377.67 242.25,374.96 237.22,371.30 232.96,366.78 229.56,361.53 227.06,355.74 225.46,349.60 224.66,343.30 224.53,337.04 224.88,330.94 225.52,325.12 226.22,319.61 226.80,314.41 227.10,309.45 227.01,304.64 226.49,299.86 225.56,294.98 224.33,289.89 222.94,284.51 221.57,278.82 220.44,272.82 219.78,266.59 219.78,260.24 220.59,253.95 222.33,247.88 225.04,242.25 228.70,237.22 233.22,232.96 238.47,229.56 244.26,227.06 250.40,225.46 256.70,224.66 262.96,224.53 269.06,224.88 274.88,225.52 280.39,226.22 285.59,226.80 290.55,227.10 295.36,227.01 300.14,226.49 305.02,225.56 310.11,224.33 315.49,222.94 321.18,221.57 327.18,220.44 333.41,219.78 339.76,219.78 346.05,220.59 352.12,222.33 357.75,225.04 362.78,228.70 367.04,233.22 370.44,238.47 372.94,244.26 374.54,250.40 375.34,256.70 375.47,262.96 375.12,269.06 374.48,274.88 373.78,280.39 373.20,285.59 372.90,290.55 372.99,295.36 373.51,300.14 374.44,305.02 375.67,310.11 377.06,315.49 378.43,321.18"/>
  <polyline points="369.83,331.96 369.86,337.68 369.29,343.45 367.98,349.10 365.84,354.45 362.86,359.33 359.08,363.56 354.58,367.02 349.50,369.64 344.01,371.38 338.28,372.27 332.49,372.43 326.78,371.97 321.27,371.10 316.04,369.99 311.10,368.85 306.42,367.85 301.94,367.12 297.56,366.77 293.17,366.80 288.64,367.20 283.91,367.85 278.90,368.63 273.60,369.35 268.04,369.83 262.32,369.86 256.55,369.29 250.90,367.98 245.55,365.84 240.67,362.86 236.44,359.08 232.98,354.58 230.36,349.50 228.62,344.01 227.73,338.28 227.57,332.49 228.03,326.78 228.90,321.27 230.01,316.04 231.15,311.10 232.15,306.42 232.88,301.94 233.23,297.56 233.20,293.17 232.80,288.64 232.15,283.91 231.37,278.90 230.65,273.60 230.17,268.04 230.14,262.32 230.71,256.55 232.02,250.90 234.16,245.55 237.14,240.67 240.92,236.44 245.42,232.98 250.50,230.36 255.99,228.62 261.72,227.73 267.51,227.57 273.22,228.03 278.73,228.90 283.96,230.01 288.90,231.15 293.58,232.15 298.06,232.88 302.44,233.23 306.83,233.20 311.36,232.80 316.09,232.15 321.10,231.37 326.40,230.65 331.96,230.17 337.68,230.14 343.45,230.71 349.10,232.02 354.45,234.16 359.33,237.14 363.56,240.92 367.02,245.42 369.64,250.50 371.38,255.99 372.27,261.72 372.43,267.51 371.97,273.22 371.10,278.73 369.99,283.96 368.85,288.90 367.85,293.58 367.12,298.06 366.77,302.44 366.80,306.83 367.20,311.36 367.85,316.09 368.63,321.10 369.35,326.40"/>
  <polyline points="360.01,335.10 359.52,340.26 358.48,345.40 356.79,350.37 354.38,355.00 351.26,359.12 347.47,362.59 343.11,365.30 338.30,367.20 333.19,368.27 327.95,368.56 322.72,368.17 317.62,367.25 312.74,365.96 308.12,364.49 303.78,363.02 299.65,361.69 295.68,360.64 291.77,359.92 287.81,359.55 283.70,359.50 279.37,359.66 274.79,359.91 269.95,360.08 264.90,360.01 259.74,359.52 254.60,358.48 249.63,356.79 245.00,354.38 240.88,351.26 237.41,347.47 234.70,343.11 232.80,338.30 231.73,333.19 231.44,327.95 231.83,322.72 232.75,317.62 234.04,312.74 235.51,308.12 236.98,303.78 238.31,299.65 239.36,295.68 240.08,291.77 240.45,287.81 240.50,283.70 240.34,279.37 240.09,274.79 239.92,269.95 239.99,264.90 240.48,259.74 241.52,254.60 243.21,249.63 245.62,245.00 248.74,240.88 252.53,237.41 256.89,234.70 261.70,232.80 266.81,231.73 272.05,231.44 277.28,231.83 282.38,232.75 287.26,234.04 291.88,235.51 296.22,236.98 300.35,238.31 304.32,239.36 308.23,240.08 312.19,240.45 316.30,240.50 320.63,240.34 325.21,240.09 330.05,239.92 335.10,239.99 340.26,240.48 345.40,241.52 350.37,243.21 355.00,245.62 359.12,248.74 362.59,252.53 365.30,256.89 367.20,261.70 368.27,266.81 368.56,272.05 368.17,277.28 367.25,282.38 365.96,287.26 364.49,291.88 363.02,296.22 361.69,300.35 360.64,304.32 359.92,308.23 359.55,312.19 359.50,316.30 359.66,320.63 359.91,325.21 360.08,330.05"/>
  </g>
</svg>
