<svg width="3131" height="404" viewBox="0 0 3131 404" fill="none" xmlns="http://www.w3.org/2000/svg">
<path d="M2995.45 403C2941.34 403 2887.39 387.927 2853 343.728L2897.13 306.474C2923.08 334.836 2957.75 348.922 2996.03 348.922C3020.74 348.922 3057.7 342.61 3057.7 311.126C3057.7 288.212 3035.14 283.235 3016.39 280.307C2988 275.862 2959.13 272.637 2931.46 264.607C2894.97 252.45 2870.37 224.989 2870.37 186.107C2870.37 113.563 2940.19 89 3002.43 89C3047.93 89 3091.4 97.2281 3127.47 141.728L3082.91 178.548C3060.49 154.098 3032.64 143.078 3000.1 143.078C2962.1 143.078 2943.09 154.901 2943.09 178.548C2943.09 225.485 3039.38 216.25 3069.33 226.23C3106.06 236.888 3131 265.178 3131 303.567C3131 377.261 3058.33 403 2995.45 403Z" fill="#1C1A17"/>
<path d="M2785.74 96.272L2785.74 344.272L2838 344.272L2838 396.295L2712 396.295L2712 344.272L2708 344.272C2693.01 381.427 2661.09 403.272 2621.12 403.272C2591.75 403.272 2567.99 393.387 2549.82 373.619C2531.27 354.237 2522 326.328 2522 289.891L2522 96.2719L2596.2 96.272L2596.2 279.425C2596.2 322.84 2614.94 344.547 2652.42 344.547C2680.83 344.547 2712 328.674 2712 296.869L2712 96.272L2785.74 96.272Z" fill="#1C1A17"/>
<path d="M2312 343.835H2363.62V147.887L2312 147.887V96H2438.12V343.835H2490V396L2312 396V343.835Z" fill="#1C1A17"/>
<path d="M2596 0L2312 0V52L2596 52V0Z" fill="#1C1A17"/>
<path d="M2152.03 396C2102.65 396 2068.92 365.268 2068.92 314.749V148H2014V96H2041.21C2063.61 96 2074.11 86.0546 2074.11 63.4501V0L2142.79 0V96L2260 96V148L2142.79 148V344H2260V396H2152.03Z" fill="#1C1A17"/>
<path d="M1864.5 403.272C1803.23 403.272 1749.13 370.779 1727.84 311.398C1714.02 270.581 1714.02 221.962 1727.84 181.146C1748.81 122.656 1801.88 89.272 1863.92 89.272C1916.35 89.272 1965.98 110.796 1988.5 159.5L1934 192.5C1923.5 165.5 1893.15 149.746 1863.92 149.746C1806.71 149.746 1791.99 199.5 1791.99 245C1791.99 290.736 1811.32 342.798 1865.08 342.798C1896.43 342.798 1919.92 325.911 1933.41 298.024L1989 331.168C1965.75 380.551 1917.33 403.272 1864.5 403.272Z" fill="#1C1A17"/>
<path d="M837.085 359.155C795.136 313.516 789.171 237.922 808.665 180.89C836.555 103.831 925.051 68.9533 1000.64 100.7C1035.37 114.518 1060.78 143.301 1073.14 178.005C1083.02 205.749 1083 234.415 1083 263.388H873.044C873.044 307.187 897.58 343.283 944.405 344.385C977.204 345.157 1012.57 328.08 1031.38 302.041L1073.72 344.155C1062.89 359.924 1047.04 373.385 1026.16 384.539C968.885 415.712 882.919 407.508 837.085 359.155ZM873.044 219.543L1008.76 219.543C1008.76 179.469 988.419 143.875 944.405 143.62C899.847 143.363 873.044 177.773 873.044 219.543Z" fill="#1C1A17"/>
<path d="M664.029 396C614.647 396 580.916 365.268 580.916 314.749V148H526V96H553.212C575.61 96 586.111 86.0546 586.111 63.4501V0L654.794 0V96L772 96V148L654.794 148V344H772V396H664.029Z" fill="#1C1A17"/>
<path d="M230.256 396L230.256 148H178V95.9772L304 95.9772V148H308C322.993 110.845 354.908 89 394.878 89C424.248 89 448.013 98.8845 466.176 118.653C484.725 138.035 493.999 165.944 493.999 202.381L493.999 396L419.803 396L419.803 212.847C419.803 169.432 401.061 147.725 363.577 147.725C335.165 147.725 304 163.598 304 195.403L304 396H230.256Z" fill="#1C1A17"/>
<path d="M0 343.835H51.6189L51.6189 147.887L0 147.887L0 96H126.121L126.121 343.835H178L178 396L0 396L0 343.835Z" fill="#1C1A17"/>
<path d="M126 0L0 0L0 52L126 52L126 0Z" fill="#1C1A17"/>
<path d="M1666.65 396.056C1621.1 396.056 1600.45 377.581 1596.29 344.512H1592C1579.53 384.992 1545.46 403 1505.53 403C1450.85 403 1407 370.248 1407 313.305C1407 253.123 1451.24 223.031 1539.72 223.031L1592 223.031C1592 201.69 1594.59 177.211 1578.55 160.534C1544.66 125.289 1481.48 151.932 1458 185.417L1415.85 148.959C1439.71 106.271 1493.32 89.1152 1539.72 89.0006C1608.77 88.83 1666 127.1 1666 199.884V344.014H1718V396.056L1666.65 396.056ZM1530.45 352.076C1558.72 352.076 1592 338.495 1592 305.782V265.853H1541.46C1500.89 265.853 1480.61 278.584 1480.61 304.046C1480.61 335.115 1497.47 352.076 1530.45 352.076Z" fill="#1C1A17"/>
<path d="M1122 344H1174V147.887H1122L1122 96L1248 96V148H1252C1266.69 114 1302.42 96 1353.48 96H1386V159.767C1386 159.767 1366.58 159.767 1324.45 159.767C1282.32 159.767 1248 186.311 1248 229.924V343.808L1300 344V396L1122 396L1122 344Z" fill="#1C1A17"/>
</svg>
