<svg width="362" height="362" viewBox="0 0 362 362" fill="none" xmlns="http://www.w3.org/2000/svg">
<g clip-path="url(#clip0_16_1757)">
<path d="M362 133.932C350.65 128.694 338.476 127.379 325.979 127.379C296.593 127.379 263.629 138.976 263.629 173.227C263.629 191.584 275.241 204.55 292.47 210.29C305.533 214.081 319.165 215.603 332.571 217.702C341.423 219.085 352.073 221.434 352.073 232.253C352.073 247.118 334.625 250.098 322.958 250.098C304.884 250.098 288.513 243.447 276.264 230.057L255.427 247.646C271.665 268.513 297.135 275.63 322.684 275.63C336.035 275.63 350.32 273.171 362 267.302V362H0V272.325H84.041V247.695H59.5469V130.684H0V109.909H134.087V85.3584H0V0H362V133.932ZM99.1504 130.812V222.228C99.1505 239.431 103.529 252.607 112.287 261.758C120.862 271.091 132.083 275.759 145.949 275.759C164.821 275.759 179.889 265.444 186.968 247.902H188.856V272.464H248.346V247.902H223.674V130.812H188.856V225.521C188.856 240.538 174.142 248.032 160.728 248.032C143.03 248.032 134.181 237.783 134.181 217.286V130.812H99.1504ZM0 155.182H24.3711V247.695H0V155.182ZM324.881 152.911C339.3 152.911 351.769 157.495 362 167.604V193.687C360.568 193.119 359.089 192.612 357.566 192.17C343.424 187.458 297.963 191.819 297.963 169.658C297.963 158.494 306.936 152.911 324.881 152.911Z" fill="#1C1A17"/>
</g>
<defs>
<clipPath id="clip0_16_1757">
<rect width="362" height="362" fill="white"/>
</clipPath>
</defs>
</svg>
