<svg width="362" height="362" viewBox="0 0 362 362" fill="none" xmlns="http://www.w3.org/2000/svg">
<path d="M0 0H362V362H0V0Z" fill="#1C1A17"/>
<mask id="path-2-inside-1_1514_41" fill="white">
<path d="M0 362L-7.86945e-06 181.968L362 181.968L362 362L0 362Z"/>
</mask>
<path d="M0 362L-7.86945e-06 181.968L362 181.968L362 362L0 362Z" fill="#F5F2ED"/>
<path d="M0 362L-2 362L-2 364L8.74228e-08 364L0 362ZM362 362L362 364L364 364L364 362L362 362ZM0 362L2 362L1.99999 181.968L-7.86945e-06 181.968L-2.00001 181.968L-2 362L0 362ZM362 181.968L360 181.968L360 362L362 362L364 362L364 181.968L362 181.968ZM362 362L362 360L-8.74228e-08 360L0 362L8.74228e-08 364L362 364L362 362Z" fill="#1C1A17" mask="url(#path-2-inside-1_1514_41)"/>
<rect x="140.025" y="181.968" width="80.0143" height="80.0143" transform="rotate(-90 140.025 181.968)" fill="#F5F2ED"/>
<path d="M140.025 261.982L140.025 181.968L220.04 181.968L220.04 261.982L140.025 261.982Z" fill="#1C1A17"/>
</svg>
